<svg id="Icon_home" data-name="Icon / home" xmlns="http://www.w3.org/2000/svg" width="21" height="21" viewBox="0 0 21 21">
  <path id="Home" d="M13.333,21V16.957a1.891,1.891,0,0,0-1.89-1.89H9.553a1.89,1.89,0,0,0-1.889,1.89V21H3.53a.84.84,0,0,1-.84-.84V10.4A1.258,1.258,0,0,1,3.2,9.334q3.246-2.628,6.49-5.251a1.089,1.089,0,0,1,1.608,0q3.25,2.629,6.509,5.251a1.241,1.241,0,0,1,.5,1.031v9.8a.84.84,0,0,1-.84.84ZM19.809,9.993A1.049,1.049,0,0,1,18.876,8.9a.57.57,0,0,0-.256-.478q-3.677-2.881-7.349-5.765a1.114,1.114,0,0,0-1.553,0Q6.03,5.558,2.337,8.451a.5.5,0,0,0-.224.43,1.037,1.037,0,0,1-.926,1.05,1.007,1.007,0,0,1-1.151-.8,5.716,5.716,0,0,1,0-1.271A.921.921,0,0,1,.456,7.25Q4.714,3.9,8.985.57a2.3,2.3,0,0,1,3.034,0l3.128,2.457a1.272,1.272,0,0,1,2.477.392V4.634a1.159,1.159,0,0,1-.038.3l2.94,2.309a1.106,1.106,0,0,1,.46.944v.333H21a3.565,3.565,0,0,1-.041.6,1.051,1.051,0,0,1-1.034.87A1.063,1.063,0,0,1,19.809,9.993Z" fill="#4569a0"/>
</svg>
