<svg id="Icon_lock" data-name="Icon / lock" xmlns="http://www.w3.org/2000/svg" width="19.368" height="24.702" viewBox="0 0 19.368 24.702">
  <path id="Lock" d="M17.123,24.7H2.245A2.248,2.248,0,0,1,0,22.457V12.351a2.25,2.25,0,0,1,1.824-2.2V7.859a7.86,7.86,0,0,1,15.719,0v2.29a2.245,2.245,0,0,1,1.824,2.2V22.457A2.248,2.248,0,0,1,17.123,24.7ZM9.683,13.684a2.245,2.245,0,0,0-.842,4.325v3.325h1.685V18.009a2.245,2.245,0,0,0-.843-4.325Zm0-10.316A4.5,4.5,0,0,0,5.193,7.859v2.247h8.98V7.859A4.5,4.5,0,0,0,9.683,3.368Z" transform="translate(0 0)" fill="#4569a0"/>
</svg>
