<svg id="Icon_youTube" data-name="Icon / youTube" xmlns="http://www.w3.org/2000/svg" width="25" height="17" viewBox="0 0 25 17">
  <path id="Mask" d="M12.5,17c-.078,0-7.84-.006-9.768-.508A3.081,3.081,0,0,1,.523,14.346,30.858,30.858,0,0,1,0,8.5,30.838,30.838,0,0,1,.523,2.655,3.085,3.085,0,0,1,2.732.508C4.66.006,12.422,0,12.5,0s7.84.006,9.768.508a3.086,3.086,0,0,1,2.209,2.148A30.838,30.838,0,0,1,25,8.5a30.858,30.858,0,0,1-.523,5.846,3.082,3.082,0,0,1-2.209,2.146C20.34,16.994,12.578,17,12.5,17ZM9.375,4.636v7.728L15.625,8.5Z" fill="#4569a0"/>
</svg>
