<svg xmlns="http://www.w3.org/2000/svg" width="18.297" height="24.702" viewBox="0 0 18.297 24.702">
  <g id="Icon_pin" data-name="Icon / pin" transform="translate(0)">
    <path id="Pin" d="M9.152,24.7a.773.773,0,0,1-.657-.345l-6.567-9.38A9.387,9.387,0,0,1,.022,8.723,9.233,9.233,0,0,1,9.12,0a9.355,9.355,0,0,1,9.162,8.723,9.7,9.7,0,0,1-1.938,6.254l-6.536,9.38A.768.768,0,0,1,9.152,24.7ZM9.12,5.409a3.877,3.877,0,1,0,3.846,3.878A3.867,3.867,0,0,0,9.12,5.409Z" transform="translate(0 0)" fill="#4569a0"/>
  </g>
</svg>
