<svg id="Icon_phone" data-name="Icon / phone" xmlns="http://www.w3.org/2000/svg" width="24.968" height="25.01" viewBox="0 0 24.968 25.01">
  <path id="Phone" d="M9.722,4.385,5.958.621A1.888,1.888,0,0,0,3.27.514L1.011,2.772c-2.9,2.9.86,9.678,6.022,14.948C12.41,23.1,19.293,26.968,22.3,23.957l2.151-2.151a2.016,2.016,0,0,0-.108-2.8l-3.656-3.656a2.031,2.031,0,0,0-2.8-.215L15.636,17.4A16.318,16.318,0,0,1,7.571,9.332L9.829,7.074A1.888,1.888,0,0,0,9.722,4.385Z" transform="translate(0 0)" fill="#4569a0"/>
</svg>
