<svg xmlns="http://www.w3.org/2000/svg" xmlns:xlink="http://www.w3.org/1999/xlink" viewBox="0 0 160 160"><defs><style>.cls-1,.cls-6,.cls-8{fill:#dfb1cf;}.cls-1,.cls-2{clip-rule:evenodd;}.cls-2,.cls-3,.cls-9{fill:#b74d94;}.cls-4{fill:#f4e4ee;}.cls-5{fill:#fff;}.cls-6,.cls-9{fill-rule:evenodd;}.cls-7{clip-path:url(#clip-path);}.cls-10{clip-path:url(#clip-path-2);}.cls-11{clip-path:url(#clip-path-3);}.cls-12{clip-path:url(#clip-path-4);}.cls-13{clip-path:url(#clip-path-5);}.cls-14{fill:none;stroke:#fff;stroke-linecap:round;stroke-linejoin:round;stroke-width:1.5px;}</style><clipPath id="clip-path"><path class="cls-1" d="M155.3,112.35H15.79c-5.46,0-5.23-1.62-6-2.75a7.56,7.56,0,0,1-.43-1H2.49a9.36,9.36,0,0,0,.73,3.8c2.25,5.16,8.92,5.28,8.92,5.28H144.49c6.81,0,9.64-2.8,10.81-5.28"/></clipPath><clipPath id="clip-path-2"><path class="cls-2" d="M91.41,112.35H67.19a3.8,3.8,0,0,1-3.8-3.8H95.21a3.8,3.8,0,0,1-3.8,3.8"/></clipPath><clipPath id="clip-path-3"><path class="cls-3" d="M146.3,102.89a1.31,1.31,0,0,1-2.62,0V36.78a4.45,4.45,0,0,0-4.45-4.45H19.37a4.46,4.46,0,0,0-4.46,4.45v66.11a1.31,1.31,0,1,1-2.61,0V36.78a7.07,7.07,0,0,1,7.07-7.07H139.23a7.08,7.08,0,0,1,7.07,7.07Z"/></clipPath><clipPath id="clip-path-4"><path class="cls-3" d="M22.46,39.19v63a1.31,1.31,0,1,1-2.61,0V37.88a1.31,1.31,0,0,1,1.3-1.31H137.44a1.31,1.31,0,0,1,1.31,1.31V102.2a1.31,1.31,0,1,1-2.61,0v-63Z"/></clipPath><clipPath id="clip-path-5"><path class="cls-3" d="M147,118.94H11.57A10.39,10.39,0,0,1,1.18,108.55a1.31,1.31,0,0,1,1.31-1.31H156.11a1.31,1.31,0,0,1,1.31,1.31A10.39,10.39,0,0,1,147,118.94ZM11.57,116.32H147a7.76,7.76,0,0,0,7.66-6.46H3.91A7.76,7.76,0,0,0,11.57,116.32Z"/></clipPath></defs><title>Components_sml</title><g id="Layer_2" data-name="Layer 2"><circle class="cls-4" cx="79.54" cy="76.03" r="61.84"/><rect class="cls-5" x="14.46" y="32.49" width="129.01" height="81.77"/><path class="cls-6" d="M155.3,112.35H15.79c-5.46,0-5.23-1.62-6-2.75a7.56,7.56,0,0,1-.43-1H2.49a9.36,9.36,0,0,0,.73,3.8c2.25,5.16,8.92,5.28,8.92,5.28H144.49c6.81,0,9.64-2.8,10.81-5.28"/><g class="cls-7"><rect class="cls-8" x="1.3" y="105.1" width="157.38" height="15.87"/></g><path class="cls-9" d="M91.41,112.35H67.19a3.8,3.8,0,0,1-3.8-3.8H95.21a3.8,3.8,0,0,1-3.8,3.8"/><g class="cls-10"><rect class="cls-3" x="61.38" y="105.1" width="38.01" height="10.56"/></g><path class="cls-3" d="M146.3,102.89a1.31,1.31,0,0,1-2.62,0V36.78a4.45,4.45,0,0,0-4.45-4.45H19.37a4.46,4.46,0,0,0-4.46,4.45v66.11a1.31,1.31,0,1,1-2.61,0V36.78a7.07,7.07,0,0,1,7.07-7.07H139.23a7.08,7.08,0,0,1,7.07,7.07Z"/><g class="cls-11"><rect class="cls-3" x="10.98" y="25.84" width="138.82" height="81.63"/></g><path class="cls-3" d="M22.46,39.19v63a1.31,1.31,0,1,1-2.61,0V37.88a1.31,1.31,0,0,1,1.3-1.31H137.44a1.31,1.31,0,0,1,1.31,1.31V102.2a1.31,1.31,0,1,1-2.61,0v-63Z"/><g class="cls-12"><rect class="cls-3" x="18.43" y="32.74" width="123.93" height="74.04"/></g><path class="cls-3" d="M147,118.94H11.57A10.39,10.39,0,0,1,1.18,108.55a1.31,1.31,0,0,1,1.31-1.31H156.11a1.31,1.31,0,0,1,1.31,1.31A10.39,10.39,0,0,1,147,118.94ZM11.57,116.32H147a7.76,7.76,0,0,0,7.66-6.46H3.91A7.76,7.76,0,0,0,11.57,116.32Z"/><g class="cls-13"><rect class="cls-3" x="0.01" y="103.79" width="160.76" height="18.5"/></g><rect class="cls-8" x="27.31" y="44.11" width="103.57" height="16.5" rx="1"/><rect class="cls-8" x="60.32" y="66.52" width="70.21" height="14.24" rx="1"/><rect class="cls-8" x="60.32" y="86.05" width="70.21" height="16.33" rx="1"/><rect class="cls-8" x="27.31" y="66.52" width="27.1" height="21.45" rx="1"/><line class="cls-14" x1="33.27" y1="71.62" x2="48.45" y2="71.62"/><line class="cls-14" x1="33.27" y1="77.43" x2="48.45" y2="77.43"/><line class="cls-14" x1="33.27" y1="82.67" x2="48.45" y2="82.67"/></g></svg>