<svg xmlns="http://www.w3.org/2000/svg" viewBox="0 0 160 160"><defs><style>.cls-1{fill:#ebf4ff;}.cls-2{fill:#5ba6ff;}.cls-3{fill:#bedcff;}.cls-4,.cls-5{fill:none;stroke-width:3px;}.cls-4{stroke:#bedcff;stroke-miterlimit:10;}.cls-5{stroke:#5ba6ff;stroke-linecap:round;stroke-linejoin:round;}</style></defs><title>Foundations_sml</title><g id="Layer_2" data-name="Layer 2"><circle class="cls-1" cx="69.24" cy="103.5" r="41.51"/><path class="cls-2" d="M52.27,125.37,43,150.21H31.12l30.28-79H75.28l30.42,79H93.4l-9.52-24.84Zm29.23-8L72.77,94.67c-2-5.15-3.31-9.84-4.63-14.41h-.26c-1.33,4.69-2.78,9.49-4.5,14.3l-8.73,22.85Z"/><path class="cls-2" d="M136.57,150.18l-.55-4.52h-.23A14.13,14.13,0,0,1,124.36,151c-7.57,0-11.43-5.11-11.43-10.29,0-8.67,8-13.41,22.48-13.33v-.74c0-3-.85-8.3-8.5-8.3a19.18,19.18,0,0,0-9.73,2.67l-1.55-4.3a24,24,0,0,1,12.28-3.18c11.44,0,14.22,7.48,14.22,14.66v13.4a47.89,47.89,0,0,0,.62,8.6Zm-1-18.3c-7.41-.14-15.83,1.11-15.83,8.08,0,4.22,2.93,6.22,6.41,6.22a9.31,9.31,0,0,0,9-6,6.63,6.63,0,0,0,.38-2.08Z"/><circle class="cls-3" cx="27.91" cy="35.97" r="19.03"/><path id="Tick" class="cls-2" d="M18,37.67A.46.46,0,0,1,18,37l1.77-1.8a.46.46,0,0,1,.65,0l3.61,3.62a.46.46,0,0,0,.65,0L35.34,28.23a.46.46,0,0,1,.65,0L37.77,30a.46.46,0,0,1,0,.65L24.72,43.7a.46.46,0,0,1-.65,0Z"/><line class="cls-4" x1="19.08" y1="145.49" x2="19.08" y2="74.75"/><polygon class="cls-3" points="12.12 78.13 18.87 71.38 25.62 78.13 12.12 78.13"/><polygon class="cls-3" points="25.62 143.6 18.87 150.35 12.12 143.6 25.62 143.6"/><path class="cls-3" d="M58.62,21.37a2,2,0,0,0,0,2.82l77.12,77.12a2,2,0,0,0,2.83,0L148.89,91a1.86,1.86,0,0,0-.08-2.74L67,15.77a2.15,2.15,0,0,0-2.91.09Z"/><rect class="cls-5" x="51.91" y="39.49" width="111.47" height="23.84" transform="translate(67.88 -61.06) rotate(45)"/><line class="cls-5" x1="68" y1="27.33" x2="77.64" y2="17.69"/><line class="cls-5" x1="72.54" y1="31.87" x2="76.88" y2="27.53"/><line class="cls-5" x1="77.08" y1="36.41" x2="81.42" y2="32.07"/><line class="cls-5" x1="81.62" y1="40.95" x2="85.96" y2="36.61"/><line class="cls-5" x1="86.16" y1="45.49" x2="90.5" y2="41.15"/><line class="cls-5" x1="90.54" y1="49.87" x2="100.18" y2="40.23"/><line class="cls-5" x1="95.08" y1="54.41" x2="99.42" y2="50.07"/><line class="cls-5" x1="99.62" y1="58.95" x2="103.96" y2="54.61"/><line class="cls-5" x1="104.16" y1="63.49" x2="108.5" y2="59.15"/><line class="cls-5" x1="108.7" y1="68.03" x2="113.04" y2="63.69"/><line class="cls-5" x1="113.56" y1="72.89" x2="123.2" y2="63.25"/><line class="cls-5" x1="118.1" y1="77.43" x2="122.44" y2="73.09"/><line class="cls-5" x1="122.64" y1="81.97" x2="126.98" y2="77.63"/><line class="cls-5" x1="127.18" y1="86.51" x2="131.52" y2="82.17"/><line class="cls-5" x1="131.72" y1="91.05" x2="136.06" y2="86.71"/></g></svg>