<svg width="40" height="40" viewBox="0 0 40 40" fill="none" xmlns="http://www.w3.org/2000/svg">
<path fill-rule="evenodd" clip-rule="evenodd" d="M20 40C31.0457 40 40 31.0457 40 20C40 8.9543 31.0457 0 20 0C8.9543 0 0 8.9543 0 20C0 31.0457 8.9543 40 20 40Z" fill="white"/>
<path fill-rule="evenodd" clip-rule="evenodd" d="M19.9375 7.50115C19.4809 7.5212 19.0665 7.76712 18.8391 8.153L8.17716 26.1284C7.93978 26.531 7.94103 27.0262 8.18044 27.4277C8.41984 27.8292 8.86106 28.0759 9.33801 28.075H30.662C31.1389 28.0759 31.5802 27.8292 31.8196 27.4277C32.059 27.0262 32.0602 26.531 31.8228 26.1284L21.1519 8.153C20.9038 7.73216 20.4356 7.48081 19.9375 7.50115Z" fill="#4569A0"/>
<path fill-rule="evenodd" clip-rule="evenodd" d="M21.4853 24.3698C21.4853 25.0102 20.9287 25.5291 20.2425 25.5291C19.5561 25.5291 19 25.0102 19 24.3698C19 23.7289 19.5561 23.2101 20.2425 23.2101C20.9287 23.2102 21.4853 23.7291 21.4853 24.3698Z" fill="white"/>
<path fill-rule="evenodd" clip-rule="evenodd" d="M21.6749 15.2163C21.6509 14.9586 21.5445 14.7159 21.3824 14.5168C21.1345 14.2125 20.7558 14.0099 20.3399 14.0104C19.9363 14.01 19.5679 14.2006 19.3199 14.4897C19.145 14.6937 19.0299 14.9467 19.0047 15.2163C18.9981 15.2875 18.9988 15.3647 19.0047 15.4339L19.5575 21.3421C19.5742 21.5205 19.6581 21.678 19.7836 21.7952C19.9271 21.9293 20.125 22.0107 20.3399 22.0104C20.5333 22.0107 20.7129 21.9447 20.8514 21.8339C21.0016 21.7138 21.1035 21.5407 21.1222 21.342L21.6749 15.4338C21.681 15.3646 21.6816 15.2875 21.6749 15.2163Z" fill="white"/>
</svg>
