<svg xmlns="http://www.w3.org/2000/svg" xmlns:xlink="http://www.w3.org/1999/xlink" width="266" height="336" viewBox="0 0 266 336">
  <defs>
    <clipPath id="clip-path">
      <rect id="Rectangle_103" data-name="Rectangle 103" width="266" height="336" transform="translate(829 -329)" fill="none"/>
    </clipPath>
    <clipPath id="clip-path-2">
      <path id="Path_2481" data-name="Path 2481" d="M984-129.279V-88l8.527-9.692L1001-93.786V-134Z" fill="none" clip-rule="evenodd"/>
    </clipPath>
    <clipPath id="clip-path-3">
      <path id="Path_2480" data-name="Path 2480" d="M0,0H1200V-356H0Z" fill="none"/>
    </clipPath>
    <clipPath id="clip-path-4">
      <path id="Path_2484" data-name="Path 2484" d="M939.7-193.956s3.409,24.662-12.767,36.23a9.124,9.124,0,0,1-8.688,1.088l-2.257-.895a3.225,3.225,0,0,1-.53-5.678c7.45-4.861,18.911-16.038,15.933-37.788" fill="none" clip-rule="evenodd"/>
    </clipPath>
    <clipPath id="clip-path-6">
      <path id="Path_2487" data-name="Path 2487" d="M922-1.311,895.081-143.1,857-155v42.116l6.795,3.029a22.737,22.737,0,0,1,10.411,9.626,27.656,27.656,0,0,1,3.588,13.753v8.881a36.511,36.511,0,0,1-8.248,23.581A29.108,29.108,0,0,1,857-45.214V-1Z" fill="none" clip-rule="evenodd"/>
    </clipPath>
    <clipPath id="clip-path-8">
      <path id="Path_2490" data-name="Path 2490" d="M942.7-204.231l-6.462-9.2c-4.3-6.123-7.106-15.764-8.156-23.434a3.934,3.934,0,0,0-.274-1.112h0c-1.566-7.286-2.214-22.576-2.468-31.569a120.862,120.862,0,0,1,1.109-16.362l.322-1.867c2.6-15.062,11.844-23.919,24.4-29.632A59.2,59.2,0,0,1,969-321.756c-1.717-.153-3.519-.242-5.4-.244h-2.593a60.28,60.28,0,0,0-23.225,4.6c-12.556,5.712-21.8,14.57-24.4,29.632l-.921,5.335a41.857,41.857,0,0,0-.662,5.871c-12.5-.075-8.024,22.772-8.024,22.772,1.049,8.737,4.7,14.892,9.649,14.993,1.123.023,1.268,1.939,1.268,1.939,1.05,7.67,3.854,17.311,8.156,23.434l6.462,9.2a40.686,40.686,0,0,0,18.93,14.91A36.436,36.436,0,0,0,961.009-187H963.6a36.118,36.118,0,0,0,5.4-.414,36.734,36.734,0,0,1-7.369-1.907,40.683,40.683,0,0,1-18.93-14.91" fill="none" clip-rule="evenodd"/>
    </clipPath>
    <clipPath id="clip-path-10">
      <path id="Path_2493" data-name="Path 2493" d="M866-167v8.834L962-129v-1.907Z" fill="none" clip-rule="evenodd"/>
    </clipPath>
    <clipPath id="clip-path-12">
      <path id="Path_2496" data-name="Path 2496" d="M1082-53.518c-16.61-.514-16.869-15.963-16.872-16.736V-102a8.911,8.911,0,0,0-4.311,2.7c-7.167,7.48-4.215,25.295-4.215,25.295.038.212.079.417.119.625a29.551,29.551,0,0,0,2.648,8.541,21.569,21.569,0,0,0,5.5,7.462l.092.079c7.574,6.368,17.04,3.785,17.04,3.785" fill="none" clip-rule="evenodd"/>
    </clipPath>
    <clipPath id="clip-path-14">
      <path id="Path_2499" data-name="Path 2499" d="M836-99.547v34.692c0,8.034,4.68,10.91,9,11.856v-55.8c-8.914-1.83-9,9.249-9,9.249" fill="none" clip-rule="evenodd"/>
    </clipPath>
  </defs>
  <g id="Group_2509" data-name="Group 2509" transform="translate(-829 329)" clip-path="url(#clip-path)">
    <g id="Group_2469" data-name="Group 2469" clip-path="url(#clip-path-2)">
      <g id="Group_2468" data-name="Group 2468" clip-path="url(#clip-path-3)">
        <path id="Path_2479" data-name="Path 2479" d="M979-139h27v56H979Z" fill="#41669e"/>
      </g>
    </g>
    <g id="Group_2471" data-name="Group 2471" clip-path="url(#clip-path-4)">
      <g id="Group_2470" data-name="Group 2470" clip-path="url(#clip-path-3)">
        <path id="Path_2482" data-name="Path 2482" d="M909-206h36v55H909Z" fill="#41669e"/>
      </g>
    </g>
    <g id="Group_2473" data-name="Group 2473" clip-path="url(#clip-path-6)">
      <g id="Group_2472" data-name="Group 2472" clip-path="url(#clip-path-3)">
        <path id="Path_2485" data-name="Path 2485" d="M852-160h75V4H852Z" fill="#41669e"/>
      </g>
    </g>
    <g id="Group_2475" data-name="Group 2475" clip-path="url(#clip-path-8)">
      <g id="Group_2474" data-name="Group 2474" clip-path="url(#clip-path-3)">
        <path id="Path_2488" data-name="Path 2488" d="M898-327h76v145H898Z" fill="#41669e"/>
      </g>
    </g>
    <g id="Group_2477" data-name="Group 2477" clip-path="url(#clip-path-10)">
      <g id="Group_2476" data-name="Group 2476" clip-path="url(#clip-path-3)">
        <path id="Path_2491" data-name="Path 2491" d="M861-172H967v48H861Z" fill="#41669e"/>
      </g>
    </g>
    <g id="Group_2479" data-name="Group 2479" clip-path="url(#clip-path-12)">
      <g id="Group_2478" data-name="Group 2478" clip-path="url(#clip-path-3)">
        <path id="Path_2494" data-name="Path 2494" d="M1051-107h36v59h-36Z" fill="#41669e"/>
      </g>
    </g>
    <g id="Group_2481" data-name="Group 2481" clip-path="url(#clip-path-14)">
      <g id="Group_2480" data-name="Group 2480" clip-path="url(#clip-path-3)">
        <path id="Path_2497" data-name="Path 2497" d="M831-114h19v66H831Z" fill="#41669e"/>
      </g>
    </g>
    <g id="Group_2508" data-name="Group 2508" clip-path="url(#clip-path-3)">
      <g id="Group_2482" data-name="Group 2482" transform="translate(856 -43)">
        <path id="Path_2500" data-name="Path 2500" d="M0,0V42" fill="none" stroke="#3b619b" stroke-linecap="round" stroke-linejoin="round" stroke-width="7"/>
      </g>
      <g id="Group_2483" data-name="Group 2483" transform="translate(1067 -44)">
        <path id="Path_2501" data-name="Path 2501" d="M0,0V44" fill="none" stroke="#3b619b" stroke-linecap="round" stroke-linejoin="round" stroke-width="7"/>
      </g>
      <g id="Group_2484" data-name="Group 2484" transform="translate(857 -155)">
        <path id="Path_2502" data-name="Path 2502" d="M105,33.2,0,0V40" fill="none" stroke="#3b619b" stroke-linecap="round" stroke-linejoin="round" stroke-width="7"/>
      </g>
      <g id="Group_2485" data-name="Group 2485" transform="translate(866 -168)">
        <path id="Path_2503" data-name="Path 2503" d="M96,36,0,0V5.889" fill="none" stroke="#3b619b" stroke-linecap="round" stroke-linejoin="round" stroke-width="7"/>
      </g>
      <g id="Group_2486" data-name="Group 2486" transform="translate(963 -155)">
        <path id="Path_2504" data-name="Path 2504" d="M105,40V0L0,33.2" fill="none" stroke="#3b619b" stroke-linecap="round" stroke-linejoin="round" stroke-width="7"/>
      </g>
      <g id="Group_2487" data-name="Group 2487" transform="translate(963 -167)">
        <path id="Path_2505" data-name="Path 2505" d="M96,5V0L0,34" fill="none" stroke="#3b619b" stroke-linecap="round" stroke-linejoin="round" stroke-width="7"/>
      </g>
      <g id="Group_2488" data-name="Group 2488" transform="translate(876 -107)">
        <path id="Path_2506" data-name="Path 2506" d="M68,22,0,0" fill="none" stroke="#3b619b" stroke-linecap="round" stroke-linejoin="round" stroke-width="7"/>
      </g>
      <g id="Group_2489" data-name="Group 2489" transform="translate(879 -82)">
        <path id="Path_2507" data-name="Path 2507" d="M65,21,0,0" fill="none" stroke="#3b619b" stroke-linecap="round" stroke-linejoin="round" stroke-width="7"/>
      </g>
      <g id="Group_2490" data-name="Group 2490" transform="translate(876 -60)">
        <path id="Path_2508" data-name="Path 2508" d="M68,22,0,0" fill="none" stroke="#3b619b" stroke-linecap="round" stroke-linejoin="round" stroke-width="7"/>
      </g>
      <g id="Group_2491" data-name="Group 2491" transform="translate(981 -80)">
        <path id="Path_2509" data-name="Path 2509" d="M0,21,63,0" fill="none" stroke="#3b619b" stroke-linecap="round" stroke-linejoin="round" stroke-width="7"/>
      </g>
      <g id="Group_2492" data-name="Group 2492" transform="translate(981 -64)">
        <path id="Path_2510" data-name="Path 2510" d="M0,21,63,0" fill="none" stroke="#3b619b" stroke-linecap="round" stroke-linejoin="round" stroke-width="7"/>
      </g>
      <g id="Group_2493" data-name="Group 2493" transform="translate(1000 -47)">
        <path id="Path_2511" data-name="Path 2511" d="M0,13,39,0" fill="none" stroke="#3b619b" stroke-linecap="round" stroke-linejoin="round" stroke-width="7"/>
      </g>
      <g id="Group_2494" data-name="Group 2494" transform="translate(957 -112)">
        <path id="Path_2512" data-name="Path 2512" d="M0,0V111" fill="none" stroke="#3b619b" stroke-linecap="round" stroke-linejoin="round" stroke-width="7"/>
      </g>
      <g id="Group_2495" data-name="Group 2495" transform="translate(969 -112)">
        <path id="Path_2513" data-name="Path 2513" d="M0,0V111" fill="none" stroke="#3b619b" stroke-linecap="round" stroke-linejoin="round" stroke-width="7"/>
      </g>
      <g id="Group_2496" data-name="Group 2496" transform="translate(984 -128)">
        <path id="Path_2514" data-name="Path 2514" d="M0,42V0" fill="none" stroke="#3b619b" stroke-linecap="round" stroke-linejoin="round" stroke-width="7"/>
      </g>
      <g id="Group_2497" data-name="Group 2497" transform="translate(1000 -133)">
        <path id="Path_2515" data-name="Path 2515" d="M0,40V0" fill="none" stroke="#3b619b" stroke-linecap="round" stroke-linejoin="round" stroke-width="7"/>
      </g>
      <g id="Group_2498" data-name="Group 2498" transform="translate(984 -97)">
        <path id="Path_2516" data-name="Path 2516" d="M0,10,8.527,0,17,4.03" fill="none" stroke="#3b619b" stroke-linecap="round" stroke-linejoin="round" stroke-width="7"/>
      </g>
      <g id="Group_2499" data-name="Group 2499" transform="translate(914 -260)">
        <path id="Path_2517" data-name="Path 2517" d="M1,11A94.594,94.594,0,0,1,0,0" fill="none" stroke="#3b619b" stroke-linecap="round" stroke-linejoin="round" stroke-width="7"/>
      </g>
      <g id="Group_2500" data-name="Group 2500" transform="translate(1011 -260)">
        <path id="Path_2518" data-name="Path 2518" d="M0,11A94.589,94.589,0,0,0,1,0" fill="none" stroke="#3b619b" stroke-linecap="round" stroke-linejoin="round" stroke-width="7"/>
      </g>
      <g id="Group_2501" data-name="Group 2501" transform="translate(904 -322)">
        <path id="Path_2519" data-name="Path 2519" d="M97.986,13.7a36.184,36.184,0,0,1,10.6,20.525l.924,5.335a41.675,41.675,0,0,1,.663,5.87c12.537-.075,8.051,22.773,8.051,22.773-1.053,8.737-4.711,14.892-9.681,14.993-1.127.023-1.272,1.939-1.272,1.939-1.053,7.67-3.867,17.31-8.182,23.433l-6.483,9.2a40.8,40.8,0,0,1-18.991,14.91A36.664,36.664,0,0,1,60.8,135H58.2a36.661,36.661,0,0,1-12.808-2.321A40.8,40.8,0,0,1,26.4,117.769l-6.483-9.2C15.6,102.45,12.787,92.809,11.734,85.14c0,0-.146-1.916-1.272-1.939C5.492,83.1,1.833,76.945.781,68.208c0,0-4.486-22.847,8.051-22.773a41.652,41.652,0,0,1,.664-5.87l.923-5.335C13.025,19.168,22.3,10.311,34.9,4.6A60.647,60.647,0,0,1,58.2,0h2.6A60.647,60.647,0,0,1,84.1,4.6q1.276.579,2.506,1.2L91.77,2.23l2.775,4.5L100.7,8.141Z" fill="none" stroke="#3b619b" stroke-linecap="round" stroke-linejoin="round" stroke-width="7"/>
      </g>
      <g id="Group_2502" data-name="Group 2502" transform="translate(1056 -109)">
        <path id="Path_2520" data-name="Path 2520" d="M27.371,54.459h0C30.151,53.214,32,49.974,32,46.348V8.231c0-5.714-4.64-9.686-9.022-7.723L8.743,6.886C3.492,9.239,0,15.358,0,22.205v8.823C0,48.363,14.078,60.415,27.371,54.459Z" fill="none" stroke="#3b619b" stroke-linecap="round" stroke-linejoin="round" stroke-width="7"/>
      </g>
      <g id="Group_2503" data-name="Group 2503" transform="translate(836 -109)">
        <path id="Path_2521" data-name="Path 2521" d="M4.629,54.459h0C1.849,53.214,0,49.974,0,46.348V8.231C0,2.517,4.64-1.455,9.021.508L23.257,6.886C28.508,9.239,32,15.358,32,22.205v8.823C32,48.363,17.922,60.415,4.629,54.459Z" fill="none" stroke="#3b619b" stroke-linecap="round" stroke-linejoin="round" stroke-width="7"/>
      </g>
      <g id="Group_2504" data-name="Group 2504" transform="translate(994 -188)">
        <path id="Path_2522" data-name="Path 2522" d="M0,0C.17,7.117,4.382,13.694,11.043,18.616A67.378,67.378,0,0,0,18,23" fill="none" stroke="#3b619b" stroke-linecap="round" stroke-linejoin="round" stroke-width="7"/>
      </g>
      <g id="Group_2505" data-name="Group 2505" transform="translate(913 -188)">
        <path id="Path_2523" data-name="Path 2523" d="M18,0c-.17,7.22-4.382,13.56-11.044,18.552A67.323,67.323,0,0,1,0,23" fill="none" stroke="#3b619b" stroke-linecap="round" stroke-linejoin="round" stroke-width="7"/>
      </g>
      <g id="Group_2506" data-name="Group 2506" transform="translate(931 -178)">
        <path id="Path_2524" data-name="Path 2524" d="M66,0C59.853,9.272,47.615,15,32.976,15,18.311,15,6.134,9.368,0,.069" fill="none" stroke="#3b619b" stroke-linecap="round" stroke-linejoin="round" stroke-width="7"/>
      </g>
      <g id="Group_2507" data-name="Group 2507" transform="translate(912 -296)">
        <path id="Path_2525" data-name="Path 2525" d="M0,19.536A22.38,22.38,0,0,0,4.852,21.88s.59,9.2,10.86,9.653c0,0-1.1-22.2,2.257-21.1C49.716,20.873,67.564,0,67.564,0c3.418,11.446,17.467,10.436,17.467,10.436,1.747,3.03,2.257,22.556,2.257,22.556,8.1.337,9.372-10.625,9.372-10.625,5.213-1.156,6.34-2.832,6.34-2.832" fill="none" stroke="#3b619b" stroke-linecap="round" stroke-linejoin="round" stroke-width="7"/>
      </g>
    </g>
  </g>
</svg>
