<svg xmlns="http://www.w3.org/2000/svg" width="750" height="140" viewBox="0 0 750 140">
  <g id="Group_3596" data-name="Group 3596" transform="translate(-95 -1564)">
    <g id="Group_3557" data-name="Group 3557" transform="translate(-1 684)">
      <rect id="Rectangle_154" data-name="Rectangle 154" width="36.75" height="139" transform="translate(578 881)" fill="#4569a0" opacity="0.18"/>
      <rect id="Rectangle_149" data-name="Rectangle 149" width="36.75" height="139" transform="translate(476 881)" fill="#4569a0" opacity="0.18"/>
      <rect id="Rectangle_152" data-name="Rectangle 152" width="36.75" height="139" transform="translate(679.25 881)" fill="#4569a0" opacity="0.18"/>
      <rect id="Rectangle_153" data-name="Rectangle 153" width="36.75" height="139" transform="translate(629 881)" fill="#4569a0" opacity="0.18"/>
      <rect id="Rectangle_131" data-name="Rectangle 131" width="36" height="139" transform="translate(173.75 881)" fill="#4569a0" opacity="0.18"/>
      <rect id="Rectangle_147" data-name="Rectangle 147" width="36" height="139" transform="translate(375.5 881)" fill="#4569a0" opacity="0.18"/>
      <rect id="Rectangle_145" data-name="Rectangle 145" width="36" height="139" transform="translate(274.25 881)" fill="#4569a0" opacity="0.18"/>
      <rect id="Rectangle_144" data-name="Rectangle 144" width="36.75" height="139" transform="translate(224 881)" fill="#4569a0" opacity="0.18"/>
      <rect id="Rectangle_148" data-name="Rectangle 148" width="36.75" height="139" transform="translate(425.75 881)" fill="#4569a0" opacity="0.18"/>
      <rect id="Rectangle_146" data-name="Rectangle 146" width="36.75" height="139" transform="translate(324.5 881)" fill="#4569a0" opacity="0.18"/>
      <rect id="Rectangle_150" data-name="Rectangle 150" width="36.75" height="139" transform="translate(527 881)" fill="#4569a0" opacity="0.18"/>
      <rect id="Rectangle_151" data-name="Rectangle 151" width="36" height="139" transform="translate(730.25 881)" fill="#4569a0" opacity="0.18"/>
    </g>
    <rect id="Rectangle_279" data-name="Rectangle 279" width="288.75" height="100.275" transform="translate(172.75 1583.765)" fill="#4569a0" opacity="0.5"/>
    <rect id="Rectangle_301" data-name="Rectangle 301" width="289.75" height="100.275" transform="translate(475.5 1583.765)" fill="#4569a0" opacity="0.5"/>
    <g id="Rectangle_278" data-name="Rectangle 278" transform="translate(95 1564)" fill="none" stroke="#707070" stroke-width="1">
      <rect width="750" height="140" stroke="none"/>
      <rect x="0.5" y="0.5" width="749" height="139" fill="none"/>
    </g>
  </g>
</svg>
