<svg xmlns="http://www.w3.org/2000/svg" width="228.433" height="44.63" viewBox="0 0 228.433 44.63">
  <g id="Group_3503" data-name="Group 3503" transform="translate(-214 -1092)">
    <path id="Path_3620" data-name="Path 3620" d="M214.855,122.63h.471V78.211h-.471Zm-99.037-2.337-.958-2.214-.987,2.214Zm.159.356H113.7l-.275.624a1.384,1.384,0,0,0-.131.515.423.423,0,0,0,.218.4,1.941,1.941,0,0,0,.631.117v.174H112V122.3a1,1,0,0,0,.573-.284,4.039,4.039,0,0,0,.552-.972l2.308-5.132h.094l2.323,5.27a3.159,3.159,0,0,0,.552.943.771.771,0,0,0,.45.175v.174h-3.121V122.3h.123a.952.952,0,0,0,.53-.109.244.244,0,0,0,.109-.218.482.482,0,0,0-.029-.174,3.085,3.085,0,0,0-.145-.356Zm6.83-2.606v3.469a1.269,1.269,0,0,0,.1.639.56.56,0,0,0,.384.16v.174h-1.814v-.6a2.223,2.223,0,0,1-.639.559,1.431,1.431,0,0,1-.711.167,1.083,1.083,0,0,1-.675-.225,1.139,1.139,0,0,1-.385-.537,4.039,4.039,0,0,1-.1-1.082v-1.764a1.212,1.212,0,0,0-.1-.624.577.577,0,0,0-.385-.167v-.174H120.3v3.027a2.648,2.648,0,0,0,.044.617.423.423,0,0,0,.137.2.447.447,0,0,0,.233.072.6.6,0,0,0,.312-.087,2.3,2.3,0,0,0,.457-.5V119a1.33,1.33,0,0,0-.087-.624.616.616,0,0,0-.392-.167v-.174C120.993,118.043,122.807,118.043,122.807,118.043Zm3.593-.123.073,1.509h-.167a2.377,2.377,0,0,0-.6-.921.987.987,0,0,0-.617-.247.482.482,0,0,0-.333.13.385.385,0,0,0-.138.3.379.379,0,0,0,.094.247,4.508,4.508,0,0,0,.849.668,3.372,3.372,0,0,1,.922.8,1.259,1.259,0,0,1,.225.74,1.55,1.55,0,0,1-.182.726,1.293,1.293,0,0,1-.522.544,1.448,1.448,0,0,1-.748.189,2.592,2.592,0,0,1-.849-.2.676.676,0,0,0-.2-.051c-.1,0-.189.073-.261.24h-.16l-.072-1.6h.167a1.921,1.921,0,0,0,.587.936,1.13,1.13,0,0,0,.7.32.5.5,0,0,0,.371-.138.462.462,0,0,0,.145-.341.557.557,0,0,0-.138-.392,3.658,3.658,0,0,0-.639-.5,4.859,4.859,0,0,1-.943-.769,1.322,1.322,0,0,1-.312-.857,1.354,1.354,0,0,1,.355-.922,1.271,1.271,0,0,1,1.031-.421,1.494,1.494,0,0,1,.7.175.533.533,0,0,0,.2.072.293.293,0,0,0,.138-.029.978.978,0,0,0,.167-.2A1.048,1.048,0,0,1,126.4,117.92Zm2.359-1.5v1.626h1.052v.465h-1.052v2.736a2.329,2.329,0,0,0,.029.494.418.418,0,0,0,.131.181.263.263,0,0,0,.167.065c.2,0,.406-.159.588-.471l.145.109a1.317,1.317,0,0,1-1.256.914,1.141,1.141,0,0,1-.719-.232,1.021,1.021,0,0,1-.37-.53,4.583,4.583,0,0,1-.051-.871v-2.4h-.58v-.167a6.22,6.22,0,0,0,1.023-.886,5.663,5.663,0,0,0,.733-1.038A.612.612,0,0,1,128.759,116.424Zm3.223,1.619v1a3.141,3.141,0,0,1,.776-.908,1.129,1.129,0,0,1,.646-.225.556.556,0,0,1,.421.167.618.618,0,0,1,.16.458.727.727,0,0,1-.153.493.486.486,0,0,1-.37.174.6.6,0,0,1-.435-.159,2.53,2.53,0,0,0-.218-.182.2.2,0,0,0-.109-.029.39.39,0,0,0-.261.1.99.99,0,0,0-.3.457,3.26,3.26,0,0,0-.152,1.016v1.024l.007.268a1.063,1.063,0,0,0,.029.341.421.421,0,0,0,.167.189,1.2,1.2,0,0,0,.377.073v.174h-2.4V122.3a.5.5,0,0,0,.392-.16,1.4,1.4,0,0,0,.1-.711v-2.454a1.726,1.726,0,0,0-.037-.486.328.328,0,0,0-.138-.189.689.689,0,0,0-.319-.087v-.174Zm4.449,3.433V120a2.821,2.821,0,0,0-.857.719.826.826,0,0,0-.181.515.553.553,0,0,0,.152.385.438.438,0,0,0,.334.131A.943.943,0,0,0,136.431,121.476Zm0,.348a2.336,2.336,0,0,1-1.459.719.855.855,0,0,1-.632-.247.882.882,0,0,1-.254-.624,1.2,1.2,0,0,1,.436-.907,7.919,7.919,0,0,1,1.909-1.082v-.45a2.114,2.114,0,0,0-.058-.631.576.576,0,0,0-.2-.232.565.565,0,0,0-.342-.1.86.86,0,0,0-.508.138.233.233,0,0,0-.123.2.427.427,0,0,0,.131.247.637.637,0,0,1,.181.392.534.534,0,0,1-.174.4.649.649,0,0,1-.45.16.742.742,0,0,1-.5-.174.563.563,0,0,1-.2-.421.993.993,0,0,1,.268-.646,1.688,1.688,0,0,1,.755-.479,2.956,2.956,0,0,1,1.009-.167,1.661,1.661,0,0,1,1,.268,1.226,1.226,0,0,1,.479.581,3.733,3.733,0,0,1,.072.914V121.4a2.053,2.053,0,0,0,.022.384.24.24,0,0,0,.073.116.193.193,0,0,0,.109.037c.087,0,.166-.058.254-.175l.145.109a1.794,1.794,0,0,1-.5.516,1.075,1.075,0,0,1-.573.159.926.926,0,0,1-.6-.174A.821.821,0,0,1,136.431,121.824Zm3.861-5.777v5.509a1.142,1.142,0,0,0,.109.6.6.6,0,0,0,.428.146v.174H138.42V122.3a.555.555,0,0,0,.435-.175,1.051,1.051,0,0,0,.094-.58v-4.6a1.053,1.053,0,0,0-.109-.6.588.588,0,0,0-.428-.152v-.174C138.427,116.047,140.292,116.047,140.292,116.047Zm2.707,2v3.513a1.075,1.075,0,0,0,.109.6.61.61,0,0,0,.428.146v.174h-2.4V122.3a.581.581,0,0,0,.436-.175,1.035,1.035,0,0,0,.094-.58v-2.591a1.039,1.039,0,0,0-.109-.6.583.583,0,0,0-.421-.152v-.174C141.134,118.043,143,118.043,143,118.043Zm-.667-2.148a.689.689,0,0,1,.522.225.719.719,0,0,1-.007,1.038.735.735,0,0,1-.515.21.712.712,0,0,1-.516-.21.684.684,0,0,1-.217-.523.7.7,0,0,1,.217-.515A.641.641,0,0,1,142.332,115.895Zm3.8,5.581V120a2.821,2.821,0,0,0-.857.719.871.871,0,0,0-.189.515.561.561,0,0,0,.16.385.428.428,0,0,0,.334.131A.908.908,0,0,0,146.128,121.476Zm0,.348a2.336,2.336,0,0,1-1.459.719.857.857,0,0,1-.893-.871,1.2,1.2,0,0,1,.436-.907,8.08,8.08,0,0,1,1.908-1.082v-.45a2.539,2.539,0,0,0-.05-.631.547.547,0,0,0-.211-.232.564.564,0,0,0-.341-.1.86.86,0,0,0-.508.138.249.249,0,0,0-.123.2.43.43,0,0,0,.13.247.6.6,0,0,1,.182.392.532.532,0,0,1-.175.4.652.652,0,0,1-.45.16.723.723,0,0,1-.5-.174.538.538,0,0,1-.2-.421.97.97,0,0,1,.276-.646,1.688,1.688,0,0,1,.755-.479,2.956,2.956,0,0,1,1.009-.167,1.619,1.619,0,0,1,.994.268,1.139,1.139,0,0,1,.479.581,3.663,3.663,0,0,1,.073.914V121.4a1.965,1.965,0,0,0,.022.384.239.239,0,0,0,.072.116.179.179,0,0,0,.109.037c.087,0,.167-.058.254-.175l.138.109a1.816,1.816,0,0,1-.486.508,1.019,1.019,0,0,1-.574.16.91.91,0,0,1-.6-.174A.849.849,0,0,1,146.128,121.824Zm3.846-3.781v.573a2.606,2.606,0,0,1,.654-.537,1.381,1.381,0,0,1,.682-.174,1.1,1.1,0,0,1,.718.24,1.158,1.158,0,0,1,.385.6,4.466,4.466,0,0,1,.08,1.038V121.5a1.389,1.389,0,0,0,.087.639.551.551,0,0,0,.392.16v.174h-2.25V122.3a.48.48,0,0,0,.363-.211,1.238,1.238,0,0,0,.08-.588v-1.974a3.188,3.188,0,0,0-.044-.69.372.372,0,0,0-.145-.217.368.368,0,0,0-.225-.08c-.276,0-.53.2-.762.58V121.5a1.388,1.388,0,0,0,.087.631.481.481,0,0,0,.348.167v.174h-2.25V122.3a.579.579,0,0,0,.4-.181,1.342,1.342,0,0,0,.087-.617v-2.5a1.293,1.293,0,0,0-.1-.624.557.557,0,0,0-.384-.167v-.175C148.167,118.043,149.974,118.043,149.974,118.043Zm11.751-2.141v2.264h-.181a2.877,2.877,0,0,0-.958-1.415,2.26,2.26,0,0,0-1.394-.486,1.787,1.787,0,0,0-1.2.406,2.181,2.181,0,0,0-.683,1.125,5.836,5.836,0,0,0,.015,3.107,1.9,1.9,0,0,0,.7,1.023,2.053,2.053,0,0,0,1.161.327,2.213,2.213,0,0,0,.479-.051,3.629,3.629,0,0,0,.5-.145v-1.336a1.381,1.381,0,0,0-.051-.493.5.5,0,0,0-.217-.2.764.764,0,0,0-.392-.087h-.167v-.174h3.135v.174a1.515,1.515,0,0,0-.5.1.5.5,0,0,0-.21.247,1.291,1.291,0,0,0-.044.442v1.336a6.552,6.552,0,0,1-2.671.551,4.047,4.047,0,0,1-1.531-.246,3.835,3.835,0,0,1-1.067-.654,3.07,3.07,0,0,1-.726-.914,3.16,3.16,0,0,1-.334-1.466,3.3,3.3,0,0,1,1.024-2.454,3.525,3.525,0,0,1,2.569-1,4.494,4.494,0,0,1,.871.08,3.664,3.664,0,0,1,.675.217,2.955,2.955,0,0,0,.559.175.376.376,0,0,0,.247-.1.853.853,0,0,0,.21-.37C161.551,115.9,161.725,115.9,161.725,115.9Zm3.107,2.344a.533.533,0,0,0-.414.189,1.3,1.3,0,0,0-.232.718c-.029.356-.051.857-.051,1.5a6.657,6.657,0,0,0,.065.95.874.874,0,0,0,.225.516.534.534,0,0,0,.392.174.527.527,0,0,0,.356-.116.789.789,0,0,0,.247-.457,10.525,10.525,0,0,0,.1-1.822,4.59,4.59,0,0,0-.087-1.1.948.948,0,0,0-.261-.443A.551.551,0,0,0,164.832,118.246Zm-.015-.334a2.046,2.046,0,0,1,1.082.3,1.9,1.9,0,0,1,.747.849,2.885,2.885,0,0,1,.269,1.205,2.564,2.564,0,0,1-.479,1.582,1.909,1.909,0,0,1-1.6.77,1.857,1.857,0,0,1-1.553-.7,2.752,2.752,0,0,1,.014-3.288A1.815,1.815,0,0,1,164.817,117.912Zm4.195,4.7-1.5-3.433a3.609,3.609,0,0,0-.421-.791.615.615,0,0,0-.327-.167v-.174h2.359v.174a.423.423,0,0,0-.3.087.291.291,0,0,0-.109.247,2.109,2.109,0,0,0,.21.661l.733,1.669.588-1.437a2.623,2.623,0,0,0,.254-.871.313.313,0,0,0-.1-.232.6.6,0,0,0-.385-.109v-.174h1.451v.174a.6.6,0,0,0-.341.159,2.945,2.945,0,0,0-.4.755l-1.481,3.477A1.135,1.135,0,0,0,169.012,122.608Zm4.776-2.823a4.632,4.632,0,0,0-.08-1.045.808.808,0,0,0-.261-.428.377.377,0,0,0-.261-.088.5.5,0,0,0-.407.24,2.063,2.063,0,0,0-.283,1.154v.167Zm1.176.312h-2.439a2.263,2.263,0,0,0,.472,1.394.994.994,0,0,0,.791.392.914.914,0,0,0,.516-.153,2.154,2.154,0,0,0,.5-.573l.16.1a2.866,2.866,0,0,1-.8,1.046,1.719,1.719,0,0,1-1.016.3,1.694,1.694,0,0,1-1.5-.754,2.663,2.663,0,0,1-.413-1.525,2.51,2.51,0,0,1,.6-1.763,1.866,1.866,0,0,1,1.415-.661,1.518,1.518,0,0,1,1.169.559A2.562,2.562,0,0,1,174.964,120.1Zm2.112-2.054v1a3.052,3.052,0,0,1,.777-.908,1.144,1.144,0,0,1,.646-.225.574.574,0,0,1,.428.167.648.648,0,0,1,.16.458.7.7,0,0,1-.16.493.475.475,0,0,1-.37.174.614.614,0,0,1-.436-.159,1.767,1.767,0,0,0-.225-.182.2.2,0,0,0-.108-.029.392.392,0,0,0-.262.1,1.046,1.046,0,0,0-.3.457,3.233,3.233,0,0,0-.146,1.016V121.7a1.316,1.316,0,0,0,.03.341.429.429,0,0,0,.166.189,1.255,1.255,0,0,0,.378.073v.174h-2.4V122.3a.482.482,0,0,0,.385-.16,1.37,1.37,0,0,0,.109-.711v-2.454a1.635,1.635,0,0,0-.044-.486.331.331,0,0,0-.137-.189.7.7,0,0,0-.32-.087v-.174Zm4.094,0v.573a2.753,2.753,0,0,1,.653-.537,1.387,1.387,0,0,1,.682-.174,1.073,1.073,0,0,1,.719.24,1.211,1.211,0,0,1,.385.6,4.674,4.674,0,0,1,.072,1.038V121.5a1.269,1.269,0,0,0,.094.639.539.539,0,0,0,.392.16v.174h-2.25V122.3a.493.493,0,0,0,.363-.211,1.339,1.339,0,0,0,.08-.588v-1.974a4.067,4.067,0,0,0-.036-.69.456.456,0,0,0-.153-.217.368.368,0,0,0-.225-.08c-.268,0-.522.2-.762.58V121.5a1.388,1.388,0,0,0,.087.631.5.5,0,0,0,.349.167v.174h-2.25V122.3a.549.549,0,0,0,.4-.181,1.366,1.366,0,0,0,.08-.617v-2.5a1.327,1.327,0,0,0-.087-.624.577.577,0,0,0-.385-.167v-.175h1.793Zm5.153,0v.588a2.673,2.673,0,0,1,.675-.559,1.455,1.455,0,0,1,.682-.16,1.185,1.185,0,0,1,.719.2,1.214,1.214,0,0,1,.45.6,2.992,2.992,0,0,1,.733-.617,1.509,1.509,0,0,1,.726-.189,1.174,1.174,0,0,1,.733.211,1.077,1.077,0,0,1,.385.537,3.557,3.557,0,0,1,.108,1.031v1.821a1.269,1.269,0,0,0,.1.639.543.543,0,0,0,.384.16v.174H189.72v-.174a.509.509,0,0,0,.4-.211,1.248,1.248,0,0,0,.087-.588V119.6a3.679,3.679,0,0,0-.051-.755.421.421,0,0,0-.152-.24.412.412,0,0,0-.24-.08.71.71,0,0,0-.413.153,1.9,1.9,0,0,0-.421.45v2.38a1.4,1.4,0,0,0,.08.6.494.494,0,0,0,.413.2v.174h-2.3v-.174a.5.5,0,0,0,.291-.095.432.432,0,0,0,.145-.2,1.929,1.929,0,0,0,.036-.508V119.6a3.75,3.75,0,0,0-.043-.755.464.464,0,0,0-.167-.24.4.4,0,0,0-.24-.087.644.644,0,0,0-.348.1,1.762,1.762,0,0,0-.479.5V121.5a1.459,1.459,0,0,0,.087.624.5.5,0,0,0,.392.175v.174H184.5V122.3a.557.557,0,0,0,.4-.182,1.363,1.363,0,0,0,.08-.617V119a1.191,1.191,0,0,0-.1-.624.56.56,0,0,0-.385-.167v-.174Zm8.478,1.742a3.778,3.778,0,0,0-.088-1.045.794.794,0,0,0-.254-.428.394.394,0,0,0-.268-.088.484.484,0,0,0-.407.24,2.063,2.063,0,0,0-.283,1.154v.167Zm1.183.312h-2.446a2.307,2.307,0,0,0,.471,1.394.99.99,0,0,0,.784.392.92.92,0,0,0,.523-.153,2.306,2.306,0,0,0,.5-.573l.167.1a2.791,2.791,0,0,1-.806,1.046,1.856,1.856,0,0,1-2.511-.45,2.656,2.656,0,0,1-.414-1.525,2.51,2.51,0,0,1,.6-1.763,1.864,1.864,0,0,1,1.408-.661,1.518,1.518,0,0,1,1.169.559A2.531,2.531,0,0,1,195.984,120.1Zm1.981-2.054v.573a2.752,2.752,0,0,1,.653-.537,1.38,1.38,0,0,1,.675-.174,1.073,1.073,0,0,1,.719.24,1.164,1.164,0,0,1,.385.6,4.543,4.543,0,0,1,.079,1.038V121.5a1.389,1.389,0,0,0,.087.639.548.548,0,0,0,.385.16v.174h-2.243V122.3a.478.478,0,0,0,.363-.211,1.339,1.339,0,0,0,.08-.588v-1.974a3.212,3.212,0,0,0-.043-.69.374.374,0,0,0-.146-.217.368.368,0,0,0-.225-.08c-.275,0-.522.2-.762.58V121.5a1.388,1.388,0,0,0,.087.631.486.486,0,0,0,.349.167v.174h-2.257V122.3a.564.564,0,0,0,.4-.181,1.367,1.367,0,0,0,.08-.617v-2.5a1.2,1.2,0,0,0-.1-.624.574.574,0,0,0-.384-.167v-.175h1.814Zm4.878-1.619v1.626H203.9v.465h-1.059v2.736a2.167,2.167,0,0,0,.036.494.367.367,0,0,0,.13.181.254.254,0,0,0,.167.065c.2,0,.4-.159.581-.471l.145.109a1.307,1.307,0,0,1-1.248.914,1.115,1.115,0,0,1-.719-.232,1.021,1.021,0,0,1-.37-.53,4.027,4.027,0,0,1-.051-.871v-2.4h-.58v-.167a5.9,5.9,0,0,0,1.016-.886,5.663,5.663,0,0,0,.733-1.038Zm-44.536-13.137a1.306,1.306,0,0,0-.16.516l-.058.029c.044-.225-.174-.356-.116-.588-.116-.174-.116-.4-.218-.588-.138-.24.116-.341.218-.5.2.087.276.276.428.457C158.488,102.859,158.292,103.055,158.307,103.287Zm23.284-5.422a1.162,1.162,0,0,0-1.1-.6.994.994,0,0,0-.82.6.758.758,0,0,0,.275.813.224.224,0,0,0,.291-.073c.072-.189-.131-.189-.16-.334a.491.491,0,0,1,.16-.515c.152-.145.392-.073.573-.073a.992.992,0,0,1,.443.421,1.21,1.21,0,0,1,0,.784,1.315,1.315,0,0,1-.907.74c-1.22.174-14.553.116-14.553.116-1.575.145-3.353-.3-4.7.53a2.321,2.321,0,0,0-1.082,1.575,10.813,10.813,0,0,0-1.146,1.161l-.044-.043c.073-.356.232-.661.312-1.016.218-.291.218-.69.385-1.016a7.949,7.949,0,0,1,1.945-2.439c.363-.486,1.009-.392,1.568-.392a3.934,3.934,0,0,0,2.039.29.132.132,0,0,0,.044-.1c-.211-.189-.544-.269-.777-.45-.588-.283-1.139.087-1.756.044-.029-.029-.058-.044-.044-.087a8.735,8.735,0,0,1,1.815-.973,11.549,11.549,0,0,1,1.6-.631c.217,0,.428-.189.624-.058l.776-.2c.029.015.058.058.116.044a8.19,8.19,0,0,1,2.236-.029l.1.08.7.174c.261.029.377.341.66.356.145-.2-.16-.29-.232-.428a1.626,1.626,0,0,1,.98.145l-.145.16c-.088.167.043.283.174.341.1.029.181-.051.254-.073.188-.131-.015-.269.043-.385a14.216,14.216,0,0,1,3.121.885,2.554,2.554,0,0,0,.85.283A3.817,3.817,0,0,0,175.1,96.9c-.254-.145-.6-.167-.791-.37.043-.073.145-.044.189-.1a2.181,2.181,0,0,0,1.277-.82c.029-.094.189-.058.174-.174-.13-.152-.348.044-.522.029-.617.116-.879.842-1.5.973-.747-.174-1.509-.356-2.257-.544a4.531,4.531,0,0,1-1.1-.232l-.82-.08h-1.51c-.014-.029-.058-.044-.043-.087.522-.131.98-.443,1.51-.573l3.926-1.793a9.167,9.167,0,0,0,1.111-1.2.279.279,0,0,0-.16-.283.241.241,0,0,0-.29.058c-.182.131,0,.3,0,.45a2.493,2.493,0,0,1-.675.573c-.058-.015-4.036,1.807-4.036,1.807a10.407,10.407,0,0,1-1.785.66l-.85.131a.56.56,0,0,1-.37.341,3.433,3.433,0,0,1-.675.189,14.977,14.977,0,0,0-5.385,3.012,1.686,1.686,0,0,0,.145-.617,1.206,1.206,0,0,0-.16-.646c-.036-.08-.145-.319-.109-.407l-.21.138a2,2,0,0,0-.116,1.248c.043.269.261.573.058.813a13.368,13.368,0,0,0-1.568,2.852c-.174-.036-.261-.189-.341-.356a4.833,4.833,0,0,0,1.045-2.148c.1-.073.029-.269.131-.356-.029-.24.138-.472.014-.66.095-.327-.428-.617-.094-.827l-.276.131c-.624.827.327,2.061-.392,2.853v.058a2.543,2.543,0,0,1-.588.7c-.355-.153-.486-.545-.689-.842a1.319,1.319,0,0,1-.131-1.372c.131-.421-.087-.791-.131-1.176l-.152-.087a1.687,1.687,0,0,0-.2,1.72c.145.262.159.632.377.849a4.9,4.9,0,0,0,.632,1.089c.058.145-.087.182-.16.247-.16-.1-.131-.334-.276-.436a10.794,10.794,0,0,0-1.872-2.692c-.029-.131-.16-.254-.088-.4a1.064,1.064,0,0,0,.189-1.118c-.029-.073-.116-.167-.1-.24l-.218-.174c.029.515-.305.965-.167,1.517v.029a27.633,27.633,0,0,0-4.87-2.932l-.138.37a9.94,9.94,0,0,1,1.568.8,10.25,10.25,0,0,1,1.466.784,10.046,10.046,0,0,1,4.2,4.95c.015.16.16.341.058.5a8.1,8.1,0,0,0-1.11-1.118,2.129,2.129,0,0,0-1.118-1.626c-.218-.326-.682-.355-1.052-.45l-5.328-.036c-4.333-.058-8.281.131-12.593.058-.6-.058-1.335-.261-1.509-.9a.968.968,0,0,1,0-.806.891.891,0,0,1,.747-.4.767.767,0,0,1,.494.414c0,.189-.16.363-.233.53.015.058.073.174.175.131a.734.734,0,0,0,.384-.472c.008-.1.051-.247-.043-.319a.975.975,0,0,0-.69-.6A1.15,1.15,0,0,0,134.253,99a1.973,1.973,0,0,0,1.583,1.176l14.247.058a30.208,30.208,0,0,1,4.362.116,1.683,1.683,0,0,1,1.184,1.118c-.015.029-.059.014-.1.014a6.393,6.393,0,0,0-4.159-.849,4.906,4.906,0,0,0-1.633.341.863.863,0,0,1-.726-.239,2.4,2.4,0,0,0-2.119-.262c0,.044-.015.087.014.1.719-.058,1.147.552,1.793.631.145.029.261-.13.392-.014a13.866,13.866,0,0,1-2.04.914c-.217-.043-.333-.254-.508-.362-.275-.313-.791-.175-1.168-.211-.138.036-.254-.058-.341,0a1.243,1.243,0,0,0,.624.486c.37.16.791-.007,1.132.2a1.42,1.42,0,0,1-.3.2c-.689.268-1.255.885-2.017.834a2.625,2.625,0,0,1-2.171-.7,1.464,1.464,0,0,0-1.48-.849c-.044.029-.109.029-.087.1.319.189.573.566.892.791.2.247.6,0,.784.283a2.748,2.748,0,0,0,.951.407,4.259,4.259,0,0,0,.762.2l-.1.058a12.553,12.553,0,0,1-4.363.428c-.435-.014-.863-.145-1.3-.131a.9.9,0,0,0,.356.211,1.036,1.036,0,0,1-.4.116,2.6,2.6,0,0,0-.552.145,1.483,1.483,0,0,0-.631.145,2.865,2.865,0,0,1-.835.675c0,.058-.015.153.058.153.276-.124.624-.029.907-.153.479-.043.762-.566,1.14-.8a1.96,1.96,0,0,1,1.5-.174c.29.072-.029.188.058.384.116.1.218.218.385.175a.269.269,0,0,1,.1-.073.343.343,0,0,0,.015-.37c.2-.138.486.007.7-.073.559-.014,1.11-.13,1.655-.145.087-.014.188-.109.283-.014-.044.116-.189.13-.131.29.029.131.174.2.29.225.146-.058.276-.167.225-.356-.029-.1-.145-.116-.225-.159.3-.153.661-.2.966-.342a3.354,3.354,0,0,0,.617-.2c.188-.022.348-.2.522-.123a3,3,0,0,1-.305.7,3.53,3.53,0,0,0,0,2.555c.044.014.059-.015.088-.029a3.487,3.487,0,0,1,.13-2.41c.211-1.248,1.5-1.611,2.417-2.083l.044.058a4.62,4.62,0,0,0-.552,2.047c.029.13-.058.268,0,.355a1.6,1.6,0,0,0,.544-.675c.1-.66-.275-1.48.392-1.966a10.28,10.28,0,0,1,3.717-1.1c.05.044.145-.029.159.058-.29.327-.718.632-.849,1.031a3.321,3.321,0,0,0-.254,2.54c.138.458-.261.7-.45,1.06-.087.123-.116.341-.2.486l.283.029a1.534,1.534,0,0,0,.5-.965.411.411,0,0,0,.275.3c.1-.16-.087-.283-.1-.443.239-.131.334.16.53.218a3.421,3.421,0,0,0,.892.2l.1-.1a1.806,1.806,0,0,0-1.524-.617,2.978,2.978,0,0,1-.269-1.669,2.839,2.839,0,0,1,.3-.915,2.194,2.194,0,0,1,.406-.558,2.048,2.048,0,0,1,.929-.5h.044a.1.1,0,0,0,.014.051c-.392.3-.435.733-.675,1.117a1.232,1.232,0,0,0-.13,1.278c.087.188.043.486.247.617a3.308,3.308,0,0,0,.3-.9c-.043-.487-.334-.937-.058-1.408a1.2,1.2,0,0,1,.791-.646,4.47,4.47,0,0,1,2.207.646c.145.1.4.188.421.391a1.229,1.229,0,0,1-.544.988,1.254,1.254,0,0,1-1.329-.015,1,1,0,0,1-.232-.893.63.63,0,0,1,.646-.239c.145.072.276.218.465.138a.194.194,0,0,0,.058-.24c-.16-.087-.218-.305-.443-.341a.944.944,0,0,0-.806.167,1.063,1.063,0,0,0-.341,1.031,1.263,1.263,0,0,0,.915.936,1.694,1.694,0,0,0,1.8-.617,1.936,1.936,0,0,0,.319-.631,3.813,3.813,0,0,1,1.51,1.937,3.2,3.2,0,0,1,.014.741l.515.043a.506.506,0,0,1,.044-.355,4.407,4.407,0,0,1,1.5-2.4c.254-.145.189.189.254.291a1.922,1.922,0,0,0,1.271,1.11,1.6,1.6,0,0,0,1.582-.515c.189-.349.421-.864.1-1.234a1.009,1.009,0,0,0-.813-.385,1,1,0,0,0-.8.545c0,.123-.014.254.087.312.058,0,.182.014.225-.073.029-.218.218-.319.392-.435a.454.454,0,0,1,.465.087.819.819,0,0,1,.21.573.9.9,0,0,1-.486.69,1.474,1.474,0,0,1-1.408-.131,3.287,3.287,0,0,1-.407-.646c-.029-.24-.116-.443,0-.675a4.895,4.895,0,0,1,2.091-.733,1.465,1.465,0,0,1,.776.486c.675.69-.145,1.677.32,2.439.181-.029.181-.261.254-.414a2.583,2.583,0,0,0-.189-1.611,2.928,2.928,0,0,0-.559-.864.37.37,0,0,1,.174-.029,3.383,3.383,0,0,1,.886.762,3.914,3.914,0,0,1,.573,2.41c-.116.435-.588.646-.951.806a1.3,1.3,0,0,0-.391.471c.174.1.421,0,.6-.072.276-.109.435-.457.631-.617.029.014.015.058.029.087.015.16-.072.385.073.428a5.325,5.325,0,0,0,.131-.747,1.486,1.486,0,0,1,.275.733c.131.268.356.617.705.66.087-.13-.015-.268-.044-.385-.044-.37-.356-.558-.559-.82-.515-.711-.276-1.807-.675-2.6a3.192,3.192,0,0,0-.791-1.089l.058-.058a8.779,8.779,0,0,1,1.974.349c.806.4,1.974.3,2.359,1.357a3.786,3.786,0,0,0,.835,1.582l.043-.022a.6.6,0,0,0,0-.544c-.087-.733-.733-.907-1.074-1.524l.044-.058a10.172,10.172,0,0,1,1.074.341,3.15,3.15,0,0,1,2.134,2.656,5.81,5.81,0,0,1-.537,2.519c-.044.116-.254.254-.116.348.159-.116.188-.312.275-.443a4.071,4.071,0,0,0,.487-2.954c-.015-.188-.24-.333-.138-.529a.431.431,0,0,0,.254.13c.087-.058.225-.058.276-.167.021-.087.072-.188,0-.261a.4.4,0,0,0-.421-.1.7.7,0,0,0-.175.32,3.024,3.024,0,0,0-.529-.777l.029-.043c.66.225,1.255.544,1.93.718a.959.959,0,0,0,.508.16,13.611,13.611,0,0,0,1.8.45c.443-.044.806.167,1.249.065v-.029l-.008.015c-.159-.2-.515-.015-.7-.16a10.822,10.822,0,0,1-2.881-.719c.014-.043.073-.029.116-.029a.272.272,0,1,0-.1-.53.425.425,0,0,0-.217.255.393.393,0,0,0,.217.283c-.021.029-.079.007-.13.007-.457-.2-.893-.392-1.328-.6-.16-.029-.3-.159-.458-.2-.334-.159-.675-.319-1.009-.457a23.55,23.55,0,0,0-2.968-1.1l-.632-.174c-.362-.1-.733-.189-1.1-.3a5.55,5.55,0,0,0-3.991.341c-.175-.058-.276.218-.363.044a2.067,2.067,0,0,1,2-1.1c5.872-.058,11.381-.1,17.158-.189a1.838,1.838,0,0,0,1.684-.842A1.5,1.5,0,0,0,181.591,97.866Zm-18.53-7-.066-3.586.059.051a11.342,11.342,0,0,1,1.335-2.286,2.5,2.5,0,0,0,.61-1.517c-.262-.2-.624-.1-.951-.16-.1-.087-.407.08-.377-.174a2.109,2.109,0,0,0,.95-.849.8.8,0,0,1,.8-.16,1.33,1.33,0,0,1,.791,1.161,10.575,10.575,0,0,1-.6,2.533,5.326,5.326,0,0,0-.4.987,2.951,2.951,0,0,0-.275,1.553.833.833,0,0,0,.573.617,5.2,5.2,0,0,1,3.368-.486,6.246,6.246,0,0,1,3.085,1.894,5.971,5.971,0,0,1,1.146,1.531c.087.1.145.3.233.4a2.054,2.054,0,0,0,.116.3l.174.443c-.029.428.283.965-.189,1.219a.527.527,0,0,0-.363.073,3.156,3.156,0,0,1-.733-.16c-.551-.044-1.27-.189-1.626.283a.488.488,0,0,1-.058.3,7.191,7.191,0,0,0-.1.806l-.058.559c-.087.414-.058.929-.182,1.35a.384.384,0,0,1,0,.283c.051.276-.1.6.066.806.05.2-.131.37-.16.559-.073.131-.1.261-.247.319a12.889,12.889,0,0,1-2.758-.058c0-.29.334-.232.508-.348.7-.189,1.684-.1,1.938-.958a10.515,10.515,0,0,0,.131-2.127l-.058-.457.029-.486-.058-.182-.131-.377a1.645,1.645,0,0,0-.828-.973c-.13.029-.29,0-.391.1.087.109.159.16.152.3a1.986,1.986,0,0,1-.261.4,4.613,4.613,0,0,0-.458.827l-.45.733c-.334.6-.689,1.19-.994,1.793a9.9,9.9,0,0,0-.406.907c-.117.189-.291.414-.16.66a.35.35,0,0,1-.232.276c-.951.051-1.946-.015-2.838-.029a.2.2,0,0,1-.116-.073c.3-.421.95-.3,1.408-.494.145-.058.384.058.493-.1.218-.015.349-.247.574-.247a10.232,10.232,0,0,0,1.5-2.49l.385-.806c.029-.494.428-.885.246-1.423-.159-.189-.188-.66-.522-.559-.632.341-1.219-.116-1.684-.5a4.191,4.191,0,0,1-1.945-1.967l-.007-.022C163.054,90.854,163.061,90.861,163.061,90.869Zm-11.715,6.315a.229.229,0,0,1-.232-.232v-.007a.229.229,0,0,1,.232-.232h.007a.23.23,0,0,1,.233.232A.242.242,0,0,1,151.346,97.183Zm14.008-1.553a.256.256,0,0,1-.275-.24.251.251,0,0,1,.275-.24.26.26,0,0,1,.276.24A.256.256,0,0,1,165.354,95.63Zm-1.117.668a.267.267,0,0,1-.283-.24.263.263,0,0,1,.283-.239.242.242,0,1,1,0,.479Zm-13.268,1.524a.242.242,0,1,1,0-.479.266.266,0,0,1,.276.239A.261.261,0,0,1,150.969,97.822Zm.856.073a.266.266,0,0,1-.276-.24.279.279,0,1,1,.276.24Zm23.887-11.54a1.728,1.728,0,0,1,.2,1.829c-.16-.014-.131-.225-.16-.341a2.148,2.148,0,0,1-.261-1.851C175.69,86.013,175.61,86.253,175.712,86.354Zm-35.042.66a2.586,2.586,0,0,0,0,1.161c-.073.073-.059-.073-.131-.058-.573-.406-.305-1.219-.45-1.793a.124.124,0,0,1,.145-.036A1.1,1.1,0,0,1,140.67,87.015Zm36.305.043c.087.16-.073.327-.189.4a.376.376,0,0,1-.363-.16.342.342,0,0,1,.174-.385A.379.379,0,0,1,176.975,87.058ZM139.77,87.7a.411.411,0,0,1-.189.319c-.087,0-.218,0-.276-.073a.265.265,0,0,1-.058-.312.337.337,0,0,1,.276-.131C139.624,87.559,139.733,87.588,139.77,87.7Zm37.771.254a.321.321,0,0,1,0,.232.326.326,0,0,1-.392.138.4.4,0,0,1-.16-.254.43.43,0,0,1,.254-.261A.394.394,0,0,1,177.541,87.958Zm-.828.015c.116.058.029.21.015.3-.065.073-.174.189-.3.145-.073-.073-.16-.073-.189-.174a.33.33,0,0,1,.2-.341C176.546,87.864,176.626,87.929,176.713,87.973Zm-1.074.218c0,.16.015.363-.174.4a.276.276,0,0,1-.334-.2.348.348,0,0,1,.218-.356A.381.381,0,0,1,175.639,88.19Zm-34.265.073c.043.145-.1.232-.2.3a.3.3,0,0,1-.291-.16c-.1-.1.029-.2.058-.283A.284.284,0,0,1,141.374,88.263Zm-.886.044a.3.3,0,0,1-.16.276.249.249,0,0,1-.159-.472C140.328,88.06,140.43,88.2,140.488,88.307Zm31.609.058a3.052,3.052,0,0,1,.29,1.052c-.058.276.044.646-.159.842-.2-.073-.225-.327-.349-.457a2.551,2.551,0,0,1,.051-1.611C172.054,88.147,172.054,88.292,172.1,88.365Zm-32.291.174c.043.174-.087.268-.189.37a.341.341,0,0,1-.363-.2.288.288,0,0,1,.552-.167Zm34.607.428a2.082,2.082,0,0,1,.065,1.408l-.087.073a5.682,5.682,0,0,1-.6-1.19,1.818,1.818,0,0,1,.174-.835c.109-.073.167.015.2.1A.58.58,0,0,0,174.413,88.967Zm1.843-.261c-.022.145-.08.3-.218.348a.269.269,0,0,1-.341-.174.337.337,0,0,1,.16-.356C176.024,88.444,176.183,88.59,176.256,88.706Zm-35.753.45a.3.3,0,0,1-.218.276c-.124.087-.2-.058-.312-.1a.373.373,0,0,1,0-.341c.043-.087.145-.087.232-.116C140.343,88.952,140.474,89.011,140.5,89.156Zm.646-.073c.058.145-.1.218-.16.29-.174.058-.261-.073-.341-.174-.029-.145.058-.232.167-.319C140.989,88.836,141.076,88.952,141.149,89.083Zm35.521-.044c-.015.189-.312.385-.341.573a1.453,1.453,0,0,1-.908.82.669.669,0,0,1-.333.189c-.03-.3.232-.559.391-.82A2.182,2.182,0,0,1,176.67,89.04Zm-36.458.617a5.358,5.358,0,0,0,.6.689.12.12,0,0,1-.1.145c-.711-.044-1.2-.777-1.546-1.292.044-.167.232-.029.334-.044C139.748,89.352,140.024,89.41,140.212,89.657Zm36.661.21a1.882,1.882,0,0,1-.907,1.582c-.167.058-.341.225-.5.116a7.456,7.456,0,0,1,1.292-1.706h.116Zm-2.816.421a.349.349,0,0,1-.254.421c-.16.015-.261-.116-.334-.232a.3.3,0,0,1,.2-.327.243.243,0,0,1,.174-.044C173.948,90.143,173.984,90.215,174.057,90.288Zm-34.65.138a8.8,8.8,0,0,1,.8.689c-.2.131-.428.014-.646.014-.5-.174-.835-.6-1.35-.748.015-.16.2-.1.305-.145A2.558,2.558,0,0,1,139.407,90.426Zm16.969-3.832.109-.022Zm-12.752,4.094a.32.32,0,0,1-.225.334c-.109-.044-.2-.058-.276-.174-.051-.16.087-.276.2-.334C143.449,90.542,143.6,90.557,143.624,90.687Zm-.951,0a.3.3,0,0,1,.058.334c-.1.094-.261.167-.349.051-.087-.087-.174-.189-.108-.312C142.382,90.658,142.557,90.571,142.673,90.687Zm31.536.414c.058.16-.072.276-.188.341-.146-.044-.334-.073-.334-.269a.278.278,0,0,1,.225-.218C174.028,90.9,174.151,91.014,174.209,91.1Zm.777-.029c.043.073.145.189.022.269-.051.044-.1.058-.145.116a.283.283,0,0,1-.349-.174c-.029-.167.1-.24.225-.312C174.833,90.934,174.906,91.014,174.986,91.072ZM139,91.246a.292.292,0,0,1-.4.189.731.731,0,0,1-.116-.189.256.256,0,0,1,.167-.247A.354.354,0,0,1,139,91.246Zm4.936.247a.434.434,0,0,1-.254.276c-.146.022-.247-.1-.32-.2a.291.291,0,0,1,.174-.29A.337.337,0,0,1,143.936,91.493Zm-.864-.1a.222.222,0,0,1,.044.232c-.088.073-.225.2-.371.116-.087-.073-.188-.131-.159-.283a.616.616,0,0,1,.21-.174C142.92,91.261,142.978,91.333,143.072,91.391Zm34.149.174a.374.374,0,0,1-.188.276.27.27,0,0,1-.32-.073c-.087-.022-.058-.145-.058-.218a.491.491,0,0,1,.276-.189A.528.528,0,0,1,177.221,91.565Zm.937.138a.4.4,0,0,1-.276.269c-.087-.015-.254-.044-.225-.174a.268.268,0,0,1,.138-.24A.249.249,0,0,1,178.158,91.7Zm-37.488.2a.294.294,0,0,1-.175.356c-.1.058-.2-.014-.275-.073a.248.248,0,0,1-.073-.29c.029-.131.16-.1.254-.16A.355.355,0,0,1,140.67,91.907Zm.718.138c.044.116-.087.16-.116.247a.241.241,0,0,1-.269.029c-.1-.087-.217-.218-.123-.356C141,91.747,141.316,91.863,141.388,92.044Zm34.97-.08c.014.145-.116.247-.2.341a.253.253,0,0,1-.3-.181.307.307,0,0,1,.167-.276A.32.32,0,0,1,176.358,91.965Zm1.2.24c-.029.131-.014.283-.159.37a.416.416,0,0,1-.349-.058.278.278,0,0,1-.058-.3.343.343,0,0,1,.349-.174C177.446,92.088,177.468,92.161,177.555,92.2Zm-37.444.3c.058.116-.073.145-.116.2a.3.3,0,0,1-.291-.029c-.1-.058-.058-.2-.043-.283C139.791,92.161,140.053,92.335,140.111,92.509Zm36.53.283c.058.015.029.1.014.131a1.118,1.118,0,0,1-1.19-.058,5.641,5.641,0,0,0-.581-.327c.073-.189.334-.182.523-.218C175.828,92.378,176.169,92.777,176.641,92.792Zm-35.826-.131c.029.116-.058.16-.087.247-.058.087-.175.058-.254.029a.258.258,0,0,1-.1-.363A.262.262,0,0,1,140.815,92.661Zm1.292.087a.255.255,0,0,1-.146.319c-.108.058-.188-.029-.275-.044-.08-.1-.2-.218-.08-.341C141.736,92.465,142,92.589,142.107,92.748Zm1.284.53c.044.145-.072.232-.159.3-.131.058-.2-.087-.269-.16-.043-.145.058-.218.153-.3A.306.306,0,0,1,143.391,93.278Zm9.037.145a2.028,2.028,0,0,1-.175,1.648c-.014.116.03.3-.13.29-.392-.544-.1-1.306.058-1.88C152.2,93.336,152.384,93.278,152.428,93.424Zm12.527.283a1.657,1.657,0,0,1,.029,1.365l-.116.116a3.338,3.338,0,0,1-.341-1.045,3.486,3.486,0,0,0,.174-.777C164.912,93.315,164.9,93.583,164.955,93.707Zm-20.424.152c-.087.181-.341.225-.5.341a1.757,1.757,0,0,1-1.3.247,1.585,1.585,0,0,1,1.669-.689C144.429,93.823,144.5,93.786,144.531,93.859Zm-6.017.53a4.1,4.1,0,0,1,1.009,1.444c.036.058.181.073.13.2-.116.087-.239-.094-.4-.065a1.616,1.616,0,0,1-.893-1.51C138.369,94.389,138.456,94.389,138.514,94.389Zm25.875.457c.015.145-.014.3-.138.334a.264.264,0,0,1-.334-.174c-.043-.1.044-.16.08-.232A.26.26,0,0,1,164.389,94.846Zm13.377.2A3.677,3.677,0,0,1,175.98,96.7c-.058,0-.116.029-.152-.044.5-.53.769-1.35,1.539-1.546A.557.557,0,0,1,177.766,95.049Zm-39.971.726c-.072.058-.014.189-.145.211a.235.235,0,0,1-.3-.131.267.267,0,0,1,.189-.327C137.65,95.586,137.774,95.623,137.795,95.775Zm4.225.2c.043.131-.109.131-.175.16a1.6,1.6,0,0,1-1.684-.421c0-.058,0-.123.059-.131C140.815,95.732,141.519,95.615,142.02,95.978ZM138.6,95.79a.337.337,0,0,1,.029.225.314.314,0,0,1-.363.131.473.473,0,0,1-.189-.189.346.346,0,0,1,.247-.276A.4.4,0,0,1,138.6,95.79Zm13.718.073c.029.131-.087.218-.174.276a.279.279,0,0,1-.305-.116.217.217,0,0,1,.1-.283C152.072,95.717,152.275,95.732,152.319,95.862Zm26.006.058c.05.145-.087.218-.189.3a.333.333,0,0,1-.283-.043c-.015-.073-.1-.131-.073-.232a.331.331,0,0,1,.341-.181C178.187,95.833,178.245,95.848,178.325,95.92Zm.965-.058c.087.131.014.24-.058.341a.2.2,0,0,1-.261.087c-.087-.087-.2-.131-.225-.261,0-.116.138-.2.225-.254C179.116,95.717,179.167,95.862,179.29,95.862Zm-42.1.428c.014.109-.073.16-.1.254-.073.022-.145.087-.232.058a.45.45,0,0,1-.225-.24.283.283,0,0,1,.559-.073Zm30.825,0a.419.419,0,0,1,.014.189c-.087.123-.2.218-.355.145-.087-.087-.189-.181-.145-.312A.3.3,0,0,1,168.011,96.29Zm-28.466.218c-.029.1-.073.2-.2.218s-.174-.1-.246-.167c0-.123-.022-.261.108-.334A.277.277,0,0,1,139.545,96.508Zm-1.409.036a.3.3,0,0,1-.145.319.352.352,0,0,1-.4-.2.433.433,0,0,1,.261-.341C137.991,96.32,138.064,96.465,138.136,96.545Zm30.847-.036a.288.288,0,0,1-.159.348.369.369,0,0,1-.4-.2c.072-.116.087-.276.261-.312A.369.369,0,0,1,168.983,96.508Zm-30.157.058c.044.109-.044.152-.073.225-.072,0-.116.087-.2.058-.065-.08-.181-.1-.2-.21a.3.3,0,0,1,.2-.283A.288.288,0,0,1,138.826,96.566Zm38.686.116a.435.435,0,0,1-.247.232c-.116.029-.2-.072-.283-.116s-.044-.189-.015-.261A.3.3,0,0,1,177.512,96.682Zm1.117.065a.375.375,0,0,1-.348.247c-.131-.058-.283-.16-.174-.341.051-.058.087-.116.174-.131A.282.282,0,0,1,178.629,96.748Zm-6.953.1c.073.189-.1.247-.218.334a.811.811,0,0,1-.283-.116.351.351,0,0,1,.211-.385C171.517,96.682,171.582,96.748,171.676,96.849Zm-4.028.174c.073.029.043.131.029.174-.087.058-.2.211-.334.116a.249.249,0,0,1-.145-.283A.275.275,0,0,1,167.648,97.023Zm.82.1a.2.2,0,0,1-.116.232c-.1.1-.218-.014-.319-.044a.244.244,0,0,1-.015-.225.341.341,0,0,1,.2-.116C168.308,97.009,168.425,97.009,168.468,97.125Zm-24.844.015c.087.087-.015.189-.029.283a.287.287,0,0,1-.363.073c-.153-.058-.138-.254-.109-.37.087-.029.087-.131.2-.131A.508.508,0,0,1,143.624,97.14Zm29.613.058c.036.145-.116.2-.218.24-.174.058-.261-.073-.341-.2,0-.087.094-.145.123-.218C173,96.936,173.142,97.082,173.237,97.2Zm-.784,0c.058.145-.1.225-.16.3a.3.3,0,0,1-.319-.058c-.073-.044-.073-.131-.073-.225.087-.073.131-.16.24-.189A.388.388,0,0,1,172.453,97.2Zm6.6.182c.029.2-.232.1-.333.16a2.38,2.38,0,0,1-2-.131c.05-.189.268-.123.384-.189.632-.4,1.27.087,1.9.116ZM138.986,97.2l-.058.109a2.411,2.411,0,0,1-1.888.341l-.058-.087a2.667,2.667,0,0,1,1.967-.4Zm35.753.109a.345.345,0,0,1-.145.283.3.3,0,0,1-.385-.16c-.036-.116.073-.232.189-.276A.3.3,0,0,1,174.739,97.307Zm-33.133.058c-.058.116-.022.24-.174.3a.314.314,0,0,1-.363-.189c-.044-.16.072-.2.145-.276C141.388,97.1,141.519,97.234,141.606,97.365Zm-1.038.073c.043.1-.051.16-.08.239a.267.267,0,0,1-.29.044.328.328,0,0,1-.16-.356.707.707,0,0,1,.232-.16A.312.312,0,0,1,140.568,97.437Zm35.2.341a.3.3,0,0,1-.233.261.343.343,0,0,1-.283-.145.246.246,0,0,1,.058-.283c.029-.043.131-.043.2-.073A.318.318,0,0,1,175.763,97.778Zm-36.284-.167c.044.116-.058.167-.072.247a2.088,2.088,0,0,1-.32.632c-.283.341-.675.341-1.074.443l-.058-.123a3.77,3.77,0,0,1,1.481-1.234C139.436,97.582,139.479,97.611,139.479,97.611Zm35.55.327c.022.174-.123.2-.217.283a.343.343,0,0,1-.3-.182c-.043-.16.1-.218.189-.3A.305.305,0,0,1,175.029,97.938Zm-33.866,0c-.014.029.015.058.044.073-.015.167-.131.211-.218.283a.413.413,0,0,1-.319-.145.248.248,0,0,1,.145-.341C140.945,97.786,141.12,97.8,141.163,97.938Zm36.559.435c.153-.014.174-.189.341-.218a.357.357,0,0,1,.349.16c.058.181-.073.269-.189.341s-.327-.087-.312.1a.474.474,0,0,1,.21.3c-.029.058-.13.043-.181.014a1.823,1.823,0,0,1-1.052-.914c-.059-.131-.334-.232-.175-.356A1.4,1.4,0,0,1,177.722,98.373Zm1.4-.45a.219.219,0,0,1-.014.276c-.08.152-.3.087-.421.073-.08-.073-.153-.145-.124-.268a.445.445,0,0,1,.225-.189A.387.387,0,0,1,179.123,97.924Zm-5.313.791a1.972,1.972,0,0,1,.327.588c-.029.044-.109.029-.138.029-.494-.276-1.14-.588-1.328-1.176-.044-.058-.16-.131-.146-.232a1.325,1.325,0,0,1,1.009.414C173.636,98.482,173.752,98.555,173.81,98.715Zm-33.467-.559c.058.131-.058.24-.138.3a.336.336,0,0,1-.334-.116c-.1-.167.087-.3.211-.356C140.2,97.967,140.27,98.083,140.343,98.156Zm35.3.341c.015.087-.1.145-.145.2-.123.015-.24.058-.334-.044-.029-.073-.109-.189-.014-.261C175.3,98.185,175.538,98.344,175.639,98.5Zm3.651.2a.354.354,0,0,1-.211.37.381.381,0,0,1-.348-.131c-.072-.087-.014-.181,0-.276a.373.373,0,0,1,.385-.1A.828.828,0,0,1,179.29,98.7Zm-10.132,2.025c0,.174-.32.131-.45.261a3.08,3.08,0,0,1-1.539.225v-.087A2.178,2.178,0,0,1,169.158,100.725Zm-21.361.639a.27.27,0,0,1-.225.247.289.289,0,0,1-.247-.146c-.058-.174.087-.246.189-.326A.332.332,0,0,1,147.8,101.364Zm21.114.16a.433.433,0,0,1-.225.341c-.131.029-.218-.044-.319-.1-.073-.058-.03-.16-.044-.239A.315.315,0,0,1,168.911,101.524Zm2.9.058a2.34,2.34,0,0,1-1.256.515l-.791-.022-.08-.058a2.428,2.428,0,0,1,2.12-.53v.1Zm-28.031.355a.262.262,0,0,1-.493.145.26.26,0,0,1,.116-.333C143.566,101.64,143.725,101.821,143.783,101.937Zm.733.145c.044.08-.029.117-.058.2a.239.239,0,0,1-.276,0,.19.19,0,0,1-.087-.254c.044-.087.131-.072.175-.13C144.371,101.937,144.473,101.974,144.516,102.082Zm-5.61,1.481c-.145.174-.378-.043-.545-.131-.515-.29-.493-.863-1.008-1.2.058-.182.188.007.3-.015a3.02,3.02,0,0,0,.305.167C138.456,102.656,138.572,103.128,138.906,103.563Zm35.282-1.205c0,.044.087.058.058.131a3.044,3.044,0,0,1-1.96.617c-.058.014-.116.058-.189.043-.051-.029-.065-.072-.029-.1A2.24,2.24,0,0,1,174.188,102.358Zm-2.352.24c.058.2-.073.326-.232.4a.422.422,0,0,1-.327-.232c-.044-.116.058-.175.1-.254A.275.275,0,0,1,171.836,102.6ZM144,102.627a.3.3,0,0,1-.073.312.294.294,0,0,1-.261.072c-.109-.014-.16-.13-.189-.217,0-.138.073-.2.189-.283C143.783,102.511,143.914,102.489,144,102.627Zm-2.613.951v.1a1.166,1.166,0,0,1-.958-.218,1.892,1.892,0,0,0-.777-.733c0-.05-.087-.108,0-.138C140.386,102.6,140.829,103.186,141.388,103.578Zm35.028-.966c-.341.5-.632,1.111-1.234,1.336-.1,0-.189.145-.276.043a2.7,2.7,0,0,1,1.307-1.4A.67.67,0,0,1,176.416,102.612Zm-31.566.174c.015.16-.1.189-.2.276-.116.015-.174-.072-.254-.159-.058-.146.073-.2.145-.276A.3.3,0,0,1,144.85,102.786Zm33.409.088c-.13.188-.072.471-.2.675-.3.333-.544.718-1.016.791-.073-.145.1-.291.181-.429a2.088,2.088,0,0,1,.966-1.125Zm-41.414.13a.287.287,0,0,1,0,.32.347.347,0,0,1-.342.058.272.272,0,0,1-.116-.356C136.482,102.9,136.743,102.83,136.845,103Zm-.835.182c.014.072.058.13.043.2-.043.072-.116.167-.2.174a.312.312,0,0,1-.341-.189.278.278,0,0,1,.152-.3A.287.287,0,0,1,136.01,103.186Zm1.727.087c.029.116.058.326-.116.355-.2.087-.319-.058-.435-.174a.324.324,0,0,1,.174-.29A.377.377,0,0,1,137.737,103.273Zm2.4.188c-.015.1.014.247-.1.276-.072.08-.2.044-.283.037-.029-.1-.189-.167-.1-.269a.558.558,0,0,1,.2-.16C139.951,103.389,140.082,103.345,140.14,103.461Zm39.527.1c-.043.1-.1.24-.217.24-.131-.022-.269-.029-.334-.16-.058-.167.072-.254.188-.3C179.45,103.345,179.638,103.4,179.667,103.563Zm-2.678.08c.022.116-.116.2-.174.247a.35.35,0,0,1-.457-.218.359.359,0,0,1,.246-.261A.37.37,0,0,1,176.989,103.643Zm1.815-.036a.306.306,0,0,1-.131.254.337.337,0,0,1-.348-.058c-.131-.117-.029-.218.058-.305C178.513,103.418,178.76,103.432,178.8,103.607Zm-42.337.254a.32.32,0,0,1-.174.37.329.329,0,0,1-.319-.211.269.269,0,0,1,.145-.305C136.264,103.665,136.373,103.759,136.467,103.861Zm39.789.159a.333.333,0,0,1-.21.385c-.117.029-.189-.036-.276-.1-.058-.079-.131-.239-.015-.312A.293.293,0,0,1,176.256,104.02Zm-31.914.16c.058.16-.116.189-.16.283a.21.21,0,0,1-.225-.014c-.072-.088-.159-.175-.116-.305.073-.058.1-.116.189-.145C144.2,103.948,144.255,104.093,144.342,104.18Zm35.064.109c.029.1-.058.145-.072.218a.413.413,0,0,1-.342.058c-.13-.073-.13-.2-.13-.327.087-.058.1-.131.2-.16A.337.337,0,0,1,179.406,104.289Zm-.907.043c.058.175-.1.262-.225.305-.058.015-.145-.029-.16.058a3.742,3.742,0,0,1,.907.777v.116a1.985,1.985,0,0,1-1.451-.559c-.1-.072-.283-.072-.392-.174.189-.189.537-.116.806-.138.188-.2-.225-.356.021-.53.1-.014.153-.1.269-.072A.541.541,0,0,1,178.5,104.332Zm-5.988.008c.029.072-.058.167-.073.239a.3.3,0,0,1-.319.058c-.08-.1-.189-.188-.152-.334A.305.305,0,0,1,172.511,104.34Zm-32.741.522c-.044.131-.1.218-.247.233a.3.3,0,0,1-.269-.175c-.007-.1.058-.167.08-.239C139.494,104.55,139.784,104.637,139.77,104.862Zm1.19-.2c0,.2-.225.327-.3.53a1.5,1.5,0,0,1-1.168.973c-.058-.131.188-.3.254-.428a3.015,3.015,0,0,1,1.125-1.075Zm31.195.211c.015.159-.13.276-.247.341-.13.043-.232-.058-.3-.116-.117-.116-.044-.232.014-.356C171.792,104.565,172.039,104.71,172.155,104.877Zm.907.1a.365.365,0,0,1-.261.32c-.029-.044-.1-.015-.152-.029a.319.319,0,0,1-.189-.269c.073-.072.1-.189.2-.2C172.8,104.782,173.019,104.8,173.062,104.978Zm-29.83-.014a.315.315,0,0,1-.218.305.286.286,0,0,1-.276-.174c-.029-.131.1-.218.174-.291C143.079,104.739,143.123,104.877,143.232,104.964Zm1,.051a.353.353,0,0,1-.276.254c-.1-.029-.217-.058-.261-.174-.014-.146.1-.218.2-.291C144.052,104.8,144.212,104.862,144.233,105.015Zm31.98,1.03c.072.058.21.131.174.24-.233.1-.421-.16-.639-.211a2.907,2.907,0,0,1-.762-1.175c.131-.131.276.029.392.072A2.974,2.974,0,0,1,176.213,106.045Zm.537-1.03a.371.371,0,0,1-.029.326c-.088.145-.276.116-.407.087-.072-.087-.2-.2-.116-.333.044-.117.174-.146.276-.189C176.575,104.891,176.655,104.978,176.75,105.015Zm-31.167.384c.015.117.044.3-.109.371a.283.283,0,0,1-.348-.175c-.073-.174.087-.2.174-.3A.3.3,0,0,1,145.583,105.4Zm27.436.958a2.026,2.026,0,0,1,.377,1.046c-.043.1.08.2-.014.275h-.058a3.356,3.356,0,0,1-1.053-1.792.119.119,0,0,1-.058-.145c.145-.138.254.13.392.174C172.612,105.915,173.019,106.357,173.019,106.357Zm-25.527-.5c-.014.014,0,.029.015.029a1.958,1.958,0,0,1-2.076.268.109.109,0,0,1,.072-.13,2.935,2.935,0,0,1,1.285-.276Zm-3.339.079c-.5.313-.95.908-1.56,1.06-.116.044-.2.211-.341.116a2.159,2.159,0,0,1,1.9-1.292Zm28,.654c.044.116,0,.283-.116.312a.2.2,0,0,1-.276,0c-.13-.058-.13-.2-.13-.291.043-.108.145-.123.217-.166C171.981,106.474,172.083,106.474,172.155,106.59Zm-1.212.08a.851.851,0,0,1-.522.384,2.294,2.294,0,0,1-1.394-.181c.015-.116.16-.073.232-.145a3.143,3.143,0,0,1,1.495-.073A.144.144,0,0,1,170.943,106.67Zm-26.79.428c-.043.058-.058.188-.174.232a.3.3,0,0,1-.3-.065c-.029-.087-.131-.16-.058-.262.029-.1.145-.13.232-.159A.316.316,0,0,1,144.153,107.1Zm.864.13a.524.524,0,0,1-.2.276.334.334,0,0,1-.3-.1.355.355,0,0,1-.043-.3c.029-.073.13-.087.2-.131C144.828,106.96,144.959,107.105,145.017,107.228Zm26.862.146a.419.419,0,0,1-.1.283.258.258,0,0,1-.327.058c-.1-.015-.13-.131-.174-.2-.087-.116.058-.188.1-.29A.313.313,0,0,1,171.879,107.374Zm.646-.029c.015.072.058.152.029.2-.087.08-.145.268-.319.188-.087.03-.131-.087-.181-.116a.282.282,0,0,1,.181-.4C172.366,107.185,172.453,107.3,172.525,107.345Zm-28.038.428a.4.4,0,0,1-.145.4c-.16.029-.363.029-.428-.16a.4.4,0,0,1,.174-.428A.338.338,0,0,1,144.487,107.773Zm.835-.066a1.33,1.33,0,0,1-.53,1.147c-.239.051-.464.269-.7.116V108.9C144.4,108.462,144.959,108.121,145.322,107.707Zm24.264.342c.051.087-.051.159-.094.232-.08.1-.247.058-.349.014s-.116-.188-.072-.29a.3.3,0,0,1,.188-.16C169.39,107.831,169.506,107.947,169.586,108.049Zm-22.8.675c.2.333.087.8.2,1.161-.246.029-.348-.254-.508-.4a4.8,4.8,0,0,1-.428-1.546.076.076,0,0,1,.1-.029,4.139,4.139,0,0,1,.559.617C146.687,108.636,146.8,108.636,146.788,108.724Zm23.524-.559c0,.116-.131.145-.2.217a.537.537,0,0,1-.283-.13c-.043-.153.073-.189.153-.269A.25.25,0,0,1,170.312,108.165Zm1.742,1.306c0,.051-.015.131-.087.109h-.059a1.744,1.744,0,0,1-.791-1.394l.087-.014A1.8,1.8,0,0,1,172.054,109.471Zm-1.1-.464a.336.336,0,0,1-.131.275c-.16.044-.406.037-.435-.188-.022-.145.145-.225.217-.3A.3.3,0,0,1,170.958,109.007Zm-.966.312c-.2.544-.762.82-1.139,1.234-.08-.044-.051-.16-.029-.218a2.057,2.057,0,0,1,1.125-1.328C170.181,109.036,169.942,109.195,169.992,109.319Zm1.1.435c0,.138-.13.2-.21.262a.433.433,0,0,1-.32-.16c-.014-.145.1-.2.189-.269A.328.328,0,0,1,171.088,109.754ZM163.6,95.8a.245.245,0,1,1,.276-.247A.262.262,0,0,1,163.6,95.8Zm-12.208.1a.242.242,0,1,1,.276-.24A.271.271,0,0,1,151.4,95.906Zm-14.342,8.354a.268.268,0,0,1-.276-.261v-.008a.273.273,0,0,1,.545,0A.268.268,0,0,1,137.055,104.26Zm18.036-18.189c.479,0,.784.581,1.292.523l-1.19.232-.116.16c-.145-.014-.247-.116-.378-.16-.486,0-1.19-.058-1.662-.058l-.021,1.227-.175.123a.192.192,0,0,0-.072-.109,1.2,1.2,0,0,0-.5.842c-.16.4.552.617.61.944a1.619,1.619,0,0,0,.275.421c.131.392.458.617.363,1.074,0,.385.117.944-.261,1.2-.1.087-.16-.065-.16-.138l-.2-1.227c-.232-.537-.7-.53-1.176-.835a2.192,2.192,0,0,0-.29.762c-.087.218-.16.457-.247.675a6.9,6.9,0,0,0-.457,1.365,2.89,2.89,0,0,1-.087,1,2.492,2.492,0,0,1-.087.675,20.953,20.953,0,0,0-.9,2.838s-.167.842.058,1.1a2.387,2.387,0,0,0,1.626.16c1.1-.015,2.228-.29,3.157.232.044.058.174.029.2.116a.57.57,0,0,1,.356.414c.036.087-.058.1-.087.145a4.388,4.388,0,0,1-.995-.145c-1.879-.138-3.643-.058-5.421-.029-.189-.029-.436-.029-.479-.269-.189-.5.116-.951.2-1.423a6.61,6.61,0,0,0,.254-2.235,1.249,1.249,0,0,0-1.1.9,2.964,2.964,0,0,1-.312.878,4.234,4.234,0,0,1-1.539,1.938,2.432,2.432,0,0,1-1.183.218h-5.77c-.762-.131-1.684.225-2.359-.218,0-.073-.073-.145-.015-.218.45-.3,1.053-.131,1.612-.232a7.212,7.212,0,0,0,1.582,0,31.336,31.336,0,0,0,3.193-.232,5.288,5.288,0,0,0,1.7-.544.807.807,0,0,1-.218-.3.351.351,0,0,1,.261-.29,1.928,1.928,0,0,1,.4.218,1.75,1.75,0,0,0,.319-1.336c-.537.573-1.118,1.147-1.655,1.749a2.185,2.185,0,0,1-1.51.377c-.116-.167.146-.225.218-.327.486-.486,1.321-.211,1.728-.893.087-.116.254-.174.275-.3a.463.463,0,0,1-.319-.211.2.2,0,0,1,0-.218.281.281,0,0,1,.341-.123c.145.094.16.225.2.385a3.654,3.654,0,0,0,.69-.958l-.029-.044c-1.546-.189-2.649.915-4.079,1.118a3.678,3.678,0,0,1-1.125.043c.472-.174,1.023-.16,1.495-.319a12.292,12.292,0,0,1,3.107-1.074,1.85,1.85,0,0,0,.689-.1,10.072,10.072,0,0,0,.073-1.982c-.675-.385-1.278-1.06-2.105-.7a1.192,1.192,0,0,0-.951.769c-.073.573.37,1.19-.109,1.691-.131-.058-.145-.232-.16-.377-.145-.312-.45-.639-.217-1a2,2,0,0,1,.82-.987c.29-.16.631-.247.922-.377v-.058a5.935,5.935,0,0,0-2.4-1c-.2.029-.443-.058-.588.087h-.087c-.348.189-.689.617-1.2.53-.327.014-.632-.073-.959-.073-.029-.131.088-.145.175-.16.537-.617,1.459-.232,2.134-.544a3.66,3.66,0,0,1,.979.131,2.209,2.209,0,0,0,.342.073c-.073-.261-.218-.436-.284-.719-.261-.951.429-1.561.472-2.424.044-.015.058-.087.116-.073a1.714,1.714,0,0,1-.159,1.887c-.16.247-.385.581-.2.922.436.849,1.409.791,2.076,1.263a5.128,5.128,0,0,0,1.365.726c.16-.145.087-.4.138-.6.13-1.292,1.125-2.206,1.959-3.143a10.758,10.758,0,0,0,3.179-4.456,6.64,6.64,0,0,1,.269-1.938l-.044-.218a2.133,2.133,0,0,1-.718-1.444.2.2,0,0,1-.044-.218c.247-.087.45.138.668.16a8.969,8.969,0,0,1,.864.646c.268-.37.472-.675.747-1.06.131-.044.189.073.2.16a2.031,2.031,0,0,1-.044,1.14c.145.3.392.385.632.617v.189c.246.457,1.067.53.791,1.176-.32.748-1.931-.218-1.466,1.06.072.145.029.348.116.494.043.341.159.66.2,1.016.043.029.116.058.16.015.058-.073.029-.174.13-.232C153.727,86.608,154.271,85.752,155.091,86.071Zm13.043,19.357a.823.823,0,0,1-.631.5c.007-.355.341-.6.218-1a.879.879,0,0,0-.922-.3c-.131.087-.073.24-.116.37l-.058.486c-.291,0-.3-.261-.392-.471a.849.849,0,0,1,.45-.762,1.033,1.033,0,0,1,.856.029c.189.043.414.13.479.3A.957.957,0,0,1,168.134,105.428Zm-1.19.146c.16-.16-.044-1.089.406-.487,0,.116.015.3-.1.385C167.176,105.537,167.067,105.653,166.944,105.574Zm.16.377c.014.232-.2.174-.32.261h-.348a.8.8,0,0,1-.044-.413A2.624,2.624,0,0,1,167.1,105.951Zm.413,1.785c-.109.146-.007.385-.159.516,0,.268-.218.4-.407.5-1.742.384-3.455-.2-5.139-.5a17.922,17.922,0,0,0-7.512-.116c-1.132.2-2.228.471-3.309.776a4.788,4.788,0,0,1-2.054-.014c-.53-.254-.313-.929-.472-1.4a7.852,7.852,0,0,0-.116-1.016.973.973,0,0,1-.058-.385,6,6,0,0,1,.667.254,9.1,9.1,0,0,0,3.47-.37,25.858,25.858,0,0,1,3.382-.515,22.053,22.053,0,0,1,3.927.13c.406.015.762.116,1.154.146.82.108,1.582.326,2.417.384a3.639,3.639,0,0,0,.442.073c1.314.21,2.795.573,4.05,0A9.475,9.475,0,0,1,167.517,107.736Zm-7.439,1.075a.979.979,0,0,1,.13.646c-.145.283-.442.283-.7.341a.431.431,0,0,1-.334-.1.167.167,0,0,0-.058-.145c.043-.189-.341-.377-.073-.544C159.272,108.782,159.831,108.288,160.078,108.811Zm.319.058c.182.043.189.239.211.384a.874.874,0,0,1-1.075.777.926.926,0,0,0,.879-.5Zm.385,1.959a.059.059,0,0,0-.029.059,1.648,1.648,0,0,1-1.024-.458l-.014-.072A2.7,2.7,0,0,1,160.782,110.828Zm-.537,1.35c-.015.044-.087.044-.116.015a7.584,7.584,0,0,1-.922-1.764l.058-.014C159.613,110.988,159.889,111.62,160.245,112.178Zm-.733-.355-.073.036c-.073-.058-.051-.225-.029-.312C159.49,111.62,159.57,111.721,159.512,111.823Zm-.414-.878c.014.152.16.2.072.341A.461.461,0,0,1,159.1,110.945Zm-.087-.929h.029v-.044h-.029Zm-.849,2.119c-.276.014-.7.174-.966-.058.015-.124-.116-.174-.094-.3.232-.087.435.189.653-.007a4.794,4.794,0,0,1,1.024.029c.159.044.406-.269.442.044C159.1,112.331,158.517,111.99,158.162,112.135Zm-.646-1.749.072-.124a6.016,6.016,0,0,1-.486,1.06C157.022,110.974,157.385,110.7,157.516,110.386Zm.413-.276c.189-.2.371.116.443.276.218.319.791.617.566,1.059-.276.247-.718.015-1.023.2-.16-.022-.443.029-.53-.131A8.366,8.366,0,0,1,157.929,110.11Zm-.043-.566h-.058l.087-.087C157.958,109.493,157.893,109.522,157.886,109.544Zm.334.036c.065-.087.138-.225.239-.225,0,.015.015.029.029.044A.835.835,0,0,1,158.22,109.58Zm.2.218a.109.109,0,0,1,.131,0Zm.4.457c-.014.029.015.073-.029.109l-.334-.269A.343.343,0,0,1,158.822,110.255Zm-.043-.856h.014v-.044h-.014Zm.624-.951c-.174.058-.3.268-.487.305A.614.614,0,0,1,159.4,108.448Zm-.733-.2c-.029-.131.138-.029.188-.087l.458.029C159.083,108.172,158.793,108.709,158.67,108.252Zm-1.067.414a1.454,1.454,0,0,1,.225-.545.86.86,0,0,1,.392.058c.029.291.4.69,0,.937-.124.058-.32.195-.465.058A.4.4,0,0,1,157.6,108.666Zm-.218.914c-.015-.058.029-.131.044-.2.072-.073.145.058.174.1A.216.216,0,0,1,157.385,109.58Zm-.029-.675h.014v-.16h-.014Zm-.16-.443c-.188-.043-.29-.261-.5-.261a1.2,1.2,0,0,1,.559-.015C157.327,108.288,157.211,108.375,157.2,108.462Zm-.159,1.191a2.426,2.426,0,0,1,.239-.617A1.337,1.337,0,0,1,157.037,109.653Zm-.32,0a3.9,3.9,0,0,1-.7-.175c-.138-.145,0-.3,0-.471a.749.749,0,0,1,1.074-.189A1.624,1.624,0,0,1,156.717,109.653Zm.131.4v.058h-.029v-.073h.065a.116.116,0,0,0-.065.015Zm-.37.849a10.031,10.031,0,0,1-.719,1.379c-.029.073-.145.087-.232.1,0-.2.2-.363.29-.545a13.845,13.845,0,0,1,.748-1.2C156.652,110.727,156.478,110.785,156.478,110.9Zm-1.387-.145c.349-.145.719-.45,1.111-.319A2.1,2.1,0,0,1,155.091,110.756Zm.53-1.016a1.573,1.573,0,0,1,.472-1.329.842.842,0,0,1,.624.03c-.377.1-.863.188-.951.675.015.195-.043.3.044.457.16.276.53.159.733.384a.188.188,0,0,1-.131.175A5.438,5.438,0,0,1,155.621,109.74Zm-6.873-4.718c.043-.116,0-.29.16-.319.1-.029.268-.029.275.087a3.024,3.024,0,0,1-.072.522A.366.366,0,0,1,148.748,105.022Zm.051.494c.21.159.522.087.784.13a.562.562,0,0,1-.073.5c-.247-.058-.566-.029-.7-.261C148.835,105.777,148.762,105.632,148.8,105.516Zm-.69-.421a1.1,1.1,0,0,1,.348-.741,1.227,1.227,0,0,1,1.155.051.556.556,0,0,1,.232.276.651.651,0,0,1-.218.66h-.152a1.606,1.606,0,0,1,.087-.66c-.015-.174-.16-.189-.276-.269a.868.868,0,0,0-.661.145.667.667,0,0,0-.188.646c.1.16.014.385.072.559l-.043.058A.876.876,0,0,1,148.109,105.1Zm13.732,6.249a6.437,6.437,0,0,0,1.561.37c-.051.2-.407.007-.363.3a3.449,3.449,0,0,1-1.314-.617C161.754,111.373,161.783,111.329,161.841,111.344Zm-9.138.232-.21-.189c.1-.138.319-.065.486-.152a2.567,2.567,0,0,1,1.241-.174A3.467,3.467,0,0,1,152.7,111.576Zm15.816-6.7a1.552,1.552,0,0,0-1-.915,1.279,1.279,0,0,0-1.27.327c-.522.421-.16,1.132-.145,1.706,0,.116.014.2-.1.268-2.119-.189-4.1-.718-6.205-.943-.487-.08-.973-.066-1.43-.153l-.588-.065a24.64,24.64,0,0,0-5.371.6c-.37.116-.777.145-1.14.283-.261-.043-.486.145-.733.073l-.479.116a.406.406,0,0,1-.159-.007c-.24-.6.464-.973.246-1.561a1.072,1.072,0,0,0-1.008-.6,1.213,1.213,0,0,0-1.169.6c-.334.733.087,1.5.225,2.221-.029.24.232.5,0,.69a2,2,0,0,0-1.655-.334c-.174.087-.5-.029-.588.174a4.171,4.171,0,0,0,2.134.269c.087-.029.152-.044.225.021.058.378-.072.893.16,1.227a1.493,1.493,0,0,0,1.125.486,17.613,17.613,0,0,0,3.774-.747c.189-.015.341-.116.537-.116a9.814,9.814,0,0,1,2.083-.276,3.618,3.618,0,0,0-.617,1.321c-.174.392.3.45.45.675a12.3,12.3,0,0,0-1.2.617,16.77,16.77,0,0,0-2.606.428c-.015.189.3.138.334.327-.044.13-.182.145-.276.217-.014.087,0,.1.087.124.087-.1.283-.029.363-.131.3,0,.544-.087.82-.1a2.836,2.836,0,0,0,.748-.29c.305-.087.493-.3.805-.385.436,0,.842-.145,1.242-.174v.087c-.334.545-.69,1.1-1.038,1.619a.162.162,0,0,0,.1.232.777.777,0,0,0,.574-.087c.3-.508.58-1.031.834-1.568a2.087,2.087,0,0,1,.835-1.1c.058-.029.145-.116.2-.029a6.867,6.867,0,0,0-.7,1.031,1.233,1.233,0,0,0,.218,1.277,1.1,1.1,0,0,0,.675.116c.573-.29,1.3.174,1.742-.384.261-.044.305.261.45.413.254.073.515.327.769.145-.014-.159-.2-.3-.283-.45-.174-.312-.392-.558-.559-.842a2.74,2.74,0,0,1-.232-.544,4.716,4.716,0,0,0,.791.312,5.215,5.215,0,0,1,.791.232,2.469,2.469,0,0,0,.733.559c.363.175.777.211,1.162.356.145.015.363.131.464,0a.53.53,0,0,0-.218-.16c-.043-.2.262-.094.371-.239a.206.206,0,0,0-.167-.109c-.2-.109-.733-.152-.871-.225a4.51,4.51,0,0,1-.508-.16c-.879,0-1.365-.8-2.069-1.088.16-.146.407-.269.515-.487a.83.83,0,0,0,.044-.784c-.131-.457-.719-.4-1.052-.646l.043-.05a6.2,6.2,0,0,1,1.582.21,35.769,35.769,0,0,0,4.174.748c.8,0,1.814.043,2.206-.733.08-.458.16-.915.24-1.365A8.346,8.346,0,0,0,168.519,104.877Zm-15.293,1.473c-.152.058-.218.1-.174.261l.181.77a.729.729,0,0,1-.05.508.892.892,0,0,1-.53.312,1.139,1.139,0,0,1-.625-.007c-.145-.058-.239-.124-.3-.385l-.2-.813c-.051-.2-.131-.189-.29-.167l-.015-.058.98-.239.014.065c-.188.051-.283.073-.232.29l.2.813c.036.138.116.472.53.378a.472.472,0,0,0,.392-.654l-.174-.74c-.029-.145-.087-.225-.341-.174l-.015-.065.639-.153Zm1.459.16a.633.633,0,0,0-.675-.327c-.152.037-.3.145-.254.305.029.131.094.174.363.225l.472.08a.532.532,0,0,1,.421.377c.05.211-.073.552-.6.668a3.238,3.238,0,0,1-.515.029c-.058.015-.065.058-.065.1l-.088.022-.13-.6.08-.022a.635.635,0,0,0,.718.392c.349-.08.312-.326.305-.355-.036-.16-.189-.2-.392-.225l-.21-.037c-.545-.087-.588-.3-.617-.406-.029-.153-.015-.5.537-.624a3.26,3.26,0,0,1,.479-.022.1.1,0,0,0,.072-.109l.087-.022.117.53C154.765,106.5,154.685,106.51,154.685,106.51Zm1.931.965-1.06.1-.007-.058c.21-.037.283-.051.261-.262l-.123-1.306c-.211.029-.516.073-.538.472l-.087.007-.036-.5,1.786-.174.058.5-.087.007c-.1-.392-.4-.37-.617-.363l.123,1.314c.022.21.094.21.312.2Zm1.19-.885c.392.007.544-.044.552-.37.007-.254-.109-.363-.356-.371-.16,0-.167.022-.189.1Zm1.292.885-.61-.014-.6-.8H157.8l-.008.487c-.007.2.058.21.254.232l-.007.065-1.009-.022v-.065c.2-.014.262-.022.269-.225l.022-1.1c.007-.211-.087-.225-.254-.24v-.058l.958.022c.21.007.842.036.834.465-.007.3-.312.377-.479.413l.581.726a.162.162,0,0,0,.123.051C159.1,107.417,159.1,107.475,159.1,107.475Zm1.125-.45-.225-.639-.356.567Zm.835.7-.966-.123.008-.058c.181.007.239.014.246-.066a1.443,1.443,0,0,0-.094-.348l-.668-.087a1.358,1.358,0,0,0-.167.305c-.007.094.131.116.233.137l-.008.066-.6-.073.007-.065c.16,0,.211-.08.327-.254l.82-1.278.08.008.5,1.386c.1.283.137.37.283.385Zm1.742.356-1.7-.312.015-.059c.159.015.254.022.283-.123l.217-1.19c.029-.16-.094-.189-.217-.225l.007-.058,1.023.188-.007.066c-.218-.037-.3-.058-.341.159l-.211,1.162c-.021.116.044.145.24.181a.728.728,0,0,0,.827-.348l.088.014C163.017,107.541,162.8,108.078,162.8,108.078Zm1.125.254-1.024-.211.015-.065c.159.022.275.036.3-.116l.246-1.183c.029-.16-.1-.2-.232-.225l.007-.058,1.024.21-.008.058c-.137-.022-.275-.051-.312.116l-.246,1.183c-.037.16.079.189.239.233C163.939,108.266,163.925,108.332,163.925,108.332Zm1.226-.414-.239-.632-.341.574Zm.849.682-.965-.1.007-.058c.182.007.24.007.247-.073a1.434,1.434,0,0,0-.1-.348l-.667-.066a1.179,1.179,0,0,0-.16.305c-.007.094.131.116.232.131l-.007.065-.6-.065.007-.058c.16-.008.21-.087.319-.262l.8-1.292.079.008.53,1.371c.1.284.145.371.291.378Zm-15.358-.566-.363-.566-.217.639Zm.973.479-.966.116-.007-.065c.189-.029.232-.036.225-.123a1.222,1.222,0,0,0-.174-.313l-.668.08a1.26,1.26,0,0,0-.094.334c.007.094.152.087.254.08l.007.058-.6.073-.007-.058c.159-.044.188-.131.254-.32l.5-1.444.08-.007.813,1.226c.167.247.225.327.363.305Zm10.691-21.6.131.254a.138.138,0,0,1-.131.145.134.134,0,0,1-.131-.145A1.628,1.628,0,0,1,162.306,86.913Zm-8.848,0,.131.254a.131.131,0,1,1-.261,0A2.613,2.613,0,0,1,153.458,86.913Zm2.214,0,.131.254a.132.132,0,1,1-.262,0A1.628,1.628,0,0,1,155.672,86.913Zm2.214,0,.13.254a.143.143,0,0,1-.13.145.138.138,0,0,1-.131-.145A1.628,1.628,0,0,1,157.886,86.913Zm2.206,0,.131.254a.131.131,0,1,1-.261,0A2.61,2.61,0,0,1,160.092,86.913Zm-6.626,3.027a1.632,1.632,0,0,1,.13.254.131.131,0,1,1-.261,0Zm0,2.939a1.454,1.454,0,0,1,.13.261.131.131,0,1,1-.261,0C153.335,93.133,153.466,92.879,153.466,92.879Zm.355,2.323a1.45,1.45,0,0,1,.131.261.143.143,0,0,1-.131.145.134.134,0,0,1-.13-.145Zm1.851,1.241a1.628,1.628,0,0,1,.131.254.132.132,0,0,1-.131.138.143.143,0,0,1-.138-.138C155.541,96.7,155.672,96.443,155.672,96.443Zm6.743-6.5.138.254a.132.132,0,1,1-.262,0A1.663,1.663,0,0,1,162.415,89.94Zm0,2.939s.138.254.138.261a.132.132,0,1,1-.262,0A1.483,1.483,0,0,1,162.415,92.879Zm-.349,2.323s.131.254.131.261a.138.138,0,0,1-.131.145.134.134,0,0,1-.13-.145A1.455,1.455,0,0,1,162.066,95.2Zm-1.858,1.241s.131.247.131.254a.132.132,0,0,1-.131.138.136.136,0,0,1-.13-.138A1.632,1.632,0,0,1,160.208,96.443Zm-2.257,1.314.131.254a.138.138,0,0,1-.131.145.135.135,0,0,1-.131-.145A2.832,2.832,0,0,1,157.951,97.757Zm1.4-5.669h2.555V87.6h-2.555Zm2.548,2.134a1.44,1.44,0,0,1-.538,1.11l-2.01,1.2V92.313h2.555v1.909Zm-5.139-2.134h2.366V87.6h-2.366Zm2.366,4.58-.929.552h-.022a.359.359,0,0,1-.239.087.4.4,0,0,1-.254-.087l-.922-.544V92.32h2.366Zm-3.317-4.58h.726v-1.64h-.726Zm.726,4.442-2.011-1.2a1.42,1.42,0,0,1-.544-1.11v-1.9h2.555Zm-2.555-7.2h.885V87.6h-.885Zm1.1-1.074.1-.109-.066-.116.138.014.08-.145.08.145.138-.014-.065.116.1.109-.138.022v.145l-.123-.094-.123.094v-.145C155.215,88.277,155.084,88.256,155.084,88.256Zm.624,1.807c-.007-.051-.065-.058-.087-.058-.08,0-.116.131-.181.138-.044,0-.08,0-.08-.051s.1-.08.138-.116c-.544,0-.552.247-.639.247-.138,0,.124-.261.2-.341-.109-.015-.174-.145-.3-.218.058-.08.094-.044.159.014,0-.058.044-.123.167-.123.247,0,.174.232.211.232s0-.232.159-.232c.24,0,.545.617.269.617C155.614,90.165,155.708,90.077,155.708,90.063Zm-.588,1.321.138.014.08-.138.08.138.138-.014-.065.116.1.109-.138.022v.145l-.123-.094-.123.094v-.145l-.131-.022.1-.109Zm-.994-1.677.138.015.08-.138.08.138.138-.015-.058.116.1.109-.131.022V90.1L154.351,90l-.131.094v-.145l-.13-.022.1-.109Zm-.145,2.381h.885v-1.64h-.885Zm2.025-2.156.1-.109-.066-.116.131.015.08-.138.08.138.137-.015-.05.123.1.109-.138.022v.145l-.123-.094-.123.094v-.145Zm-.2-.6h.726V87.6h-.726Zm6.329-1.952-8.39-.007v.007l.007,6.757a1.529,1.529,0,0,0,.653,1.393l3.23,1.923a.4.4,0,0,0,.552.036l.007-.007,3.281-1.952a1.523,1.523,0,0,0,.653-1.393Zm.61,7.062a1.743,1.743,0,0,1-.661,1.357l-3.847,2.439h-.021a.492.492,0,0,1-.3.1.476.476,0,0,1-.3-.109l-3.839-2.439a1.743,1.743,0,0,1-.661-1.357V86.84h9.632Zm.29-7.875-10.205-.007v.007l.007,7.773a1.874,1.874,0,0,0,.8,1.7l3.926,2.482a.472.472,0,0,0,.668.044l.007-.007,3.978-2.519a1.846,1.846,0,0,0,.806-1.7Zm-2.816,3.215c0,.189.254.065.45.065s.443.131.443-.065c0-.269-.254-.174-.443-.174S160.223,89.5,160.223,89.78Zm.82.45c.182,0,.2-.254.2-.479,0-.5-.4,0-.6-.472-.145.4-.559.029-.559.457,0,.29,0,.486.3.486Zm-1.227-2.2.828.319.813-.319-.32,1.219.646-.138-.217.74.217.7-.573-.145.247,1.314-.813-.312-.828.312.342-1.314-.661.181.174-.74-.174-.711.639.1C160.129,89.25,159.816,88.031,159.816,88.031Zm-1.937,1.793v-.153l-.138-.022.108-.116-.072-.123.145.015.087-.153.08.153.145-.015-.065.123.109.116-.138.022v.153l-.131-.094C158,89.729,157.879,89.824,157.879,89.824Zm-.646.827V90.5l-.138-.029.109-.109-.066-.123.138.015.087-.145.08.145.145-.015-.065.123.109.109-.145.029v.152l-.131-.094C157.363,90.549,157.233,90.651,157.233,90.651Zm1.088-.1V90.4l-.138-.029.109-.116-.065-.123.145.014.08-.152.087.145.138-.015-.065.123.108.116-.137.029v.152l-.131-.094Zm.131.617v-.087l-.08-.015.065-.065-.036-.073.08.007.051-.08.043.087.087-.007-.043.065.058.065-.08.015v.087l-.073-.058Zm-1.016.7V91.6l-.24-.044.189-.2-.116-.21.239.022.146-.254.145.254.246-.022-.116.21.189.2-.239.044v.269l-.233-.167Zm.406-3.317c-.181,0-.413.116-.413-.087,0-.29.2-.225.377-.225s.45-.065.45.225C158.256,88.669,158.016,88.553,157.842,88.553Zm.523-.116a.4.4,0,0,1-.131.312v.189a.082.082,0,0,1-.08.087h-.638a.082.082,0,0,1-.08-.087v-.182c-.087-.051-.138-.152-.138-.334,0-.465.406-.1.544-.53C158.024,88.4,158.365,87.835,158.365,88.437Zm.668,4.936c-.029.29-.516-.044-.45.348a2.281,2.281,0,0,0,.3.827c.138.2.065.508.058.74a1.27,1.27,0,0,1-.559.472c-.413-.036-1.03.211-1.226-.3a2.2,2.2,0,0,1-.24-.7c.044-.022.1-.022.145-.073,0-.094-.116-.152-.1-.247.472-.087-.2-.508.21-.537.334.348.878.24,1.169.61a1.24,1.24,0,0,0,.21.182c-.051-.348-.225-.7-.276-1.074a.48.48,0,0,1,.167-.486C158.677,92.937,158.887,93.213,159.033,93.373Zm2.518,0a.3.3,0,0,0-.29,0c.065.2.334.2.414.428.014.225-.2.3-.2.515.262.211-.167.319-.072.559-.087.167-.247.123-.378.145-.2-.138.116-.182.08-.319-.2.087-.3.363-.544.515-.08.015-.232.058-.291-.044,0-.044-.014-.08.015-.116a.555.555,0,0,0,.377-.421.287.287,0,0,0-.319-.152,1.124,1.124,0,0,0-.261.363c.022.3-.327.334-.5.436l-.073-.058a.245.245,0,0,1,.08-.225c.291-.138.291-.486.421-.74a2.424,2.424,0,0,0-.522-.508.924.924,0,0,1-.058-.254.384.384,0,0,1,.058-.232.574.574,0,0,1,.123-.044c.152.029.138.225.138.334.036.073.138.211.232.174-.022-.058-.022-.116-.058-.152l.138-.087c-.015-.051-.044-.065-.1-.051a.341.341,0,0,1-.1-.2.537.537,0,0,1,.5-.247c.13,0,.333-.153.4.044.043.044-.029.087-.044.123.182.2.073.436.015.639.123.21.421-.015.588.152a.1.1,0,0,0,.094-.123c-.051-.044-.065-.123-.152-.1a.464.464,0,0,1-.225-.363c.137-.225.384-.254.624-.312.065-.014.167.08.159.1l-.079.232C161.645,93.424,161.573,93.409,161.551,93.373Zm-5.153.493c.022.044-.015.791-.363.566s-.051.2-.065.181c.036.116.072.073.116.145s-.291.051-.291.2c0,.174.109.065.109.312,0,.087-.29-.094-.261-.1-.058.015-.08.218-.16.225-.123.007-.123-.2-.188-.218.021.029-.262.189-.262.123a2.718,2.718,0,0,0,.029-.348c0-.211-.268-.015-.268-.2,0-.145.174-.065.174-.24s-.087-.022-.094-.116c-.022.058.007.181-.167.181-.247,0-.581-.247-.581-.784,0-.16.022-.211.044-.24-.051-.029-.087-.073-.073-.109s.08-.051.152-.029c-.021-.1-.123-.08-.123-.181s.182.029.182-.073-.16-.131-.16-.247.152.073.254.073c0-.24-.247-.29-.247-.472.182,0,.624.377.624.646,0,.167.008.138.008.254s.137.348.246.348.051-.189.051-.254-.1-.239-.167-.239c.073-.123.32-.116.428-.116.327,0,.24.639.356.5a1.16,1.16,0,0,0,.167-.6c0-.283.211-.24.45-.544.036.065-.022.3-.261.493.312-.145.421-.152,0,.3.261-.044.566-.327.087.356.145-.073.283-.174.3-.065-.072.065-.246.254-.254.348C156.079,93.968,156.383,93.837,156.4,93.866Zm3.818-10.677h-.16c-.428,0-.065.508.167.508C160.5,83.7,160.52,83.19,160.216,83.19ZM158.9,83.7c.428,0,.022-.508-.2-.508h-.421c-.429,0-.029.508.2.508Zm-1.778,0c.421,0,.021-.508-.2-.508H156.5c-.42,0-.021.508.2.508Zm3.07-.631a.363.363,0,1,1,0,.726h-4.348a.363.363,0,1,1,0-.726ZM157.951,78l.515,1.263,1.3-.385-.661,1.19,1.111.791-1.343.225.08,1.365-1.009-.915-1.016.915.087-1.365-1.343-.225,1.111-.791-.654-1.183,1.307.385Z" transform="translate(102 1014)" fill="#fff" fill-rule="evenodd"/>
    <path id="Path_3621" data-name="Path 3621" d="M11.247,19.639A4.06,4.06,0,0,1,9.716,22.99a6.65,6.65,0,0,1-4.259,1.225A10,10,0,0,1,1.01,23.27V20.176a18.327,18.327,0,0,0,2.691,1,7.963,7.963,0,0,0,2.014.29A2.864,2.864,0,0,0,7.4,21.046,1.433,1.433,0,0,0,7.981,19.8a1.376,1.376,0,0,0-.258-.822,2.885,2.885,0,0,0-.757-.693,19.477,19.477,0,0,0-2.036-1.063,9.649,9.649,0,0,1-2.159-1.3,4.88,4.88,0,0,1-1.149-1.45,4.138,4.138,0,0,1-.43-1.934A4.059,4.059,0,0,1,2.6,9.262a5.87,5.87,0,0,1,3.9-1.192,9.221,9.221,0,0,1,2.336.29,16.06,16.06,0,0,1,2.326.816L10.1,11.765a15.717,15.717,0,0,0-2.079-.72,6.691,6.691,0,0,0-1.617-.2,2.141,2.141,0,0,0-1.45.44,1.453,1.453,0,0,0-.5,1.149,1.423,1.423,0,0,0,.2.768,2.244,2.244,0,0,0,.65.634,20.1,20.1,0,0,0,2.111,1.1,8.4,8.4,0,0,1,3.019,2.111A4.12,4.12,0,0,1,11.247,19.639ZM13.894,8.886q0-1.6,1.783-1.6t1.783,1.6a1.56,1.56,0,0,1-.446,1.187,1.874,1.874,0,0,1-1.337.424Q13.894,10.5,13.894,8.886ZM17.31,24H14.034V11.99H17.31Zm12.014-3.566a3.307,3.307,0,0,1-1.284,2.814,6.343,6.343,0,0,1-3.84.967,12.062,12.062,0,0,1-2.234-.177,8.452,8.452,0,0,1-1.729-.521V20.81a11.421,11.421,0,0,0,2.057.72,8.33,8.33,0,0,0,2.014.29q1.783,0,1.783-1.031a.861.861,0,0,0-.236-.628,3.426,3.426,0,0,0-.816-.548q-.58-.306-1.547-.714a9.717,9.717,0,0,1-2.036-1.074,3.024,3.024,0,0,1-.945-1.133,3.741,3.741,0,0,1-.3-1.574,2.853,2.853,0,0,1,1.241-2.476,6.044,6.044,0,0,1,3.518-.875,9.986,9.986,0,0,1,4.222.945l-.988,2.363q-.9-.387-1.687-.634a5.3,5.3,0,0,0-1.6-.247q-1.45,0-1.45.784a.922.922,0,0,0,.467.763,12.708,12.708,0,0,0,2.046.956,9.507,9.507,0,0,1,2.063,1.063,3.145,3.145,0,0,1,.967,1.139A3.5,3.5,0,0,1,29.325,20.434ZM37.139,21.6a7.1,7.1,0,0,0,2.063-.376v2.438a7.354,7.354,0,0,1-3.008.548,3.681,3.681,0,0,1-2.863-.994,4.325,4.325,0,0,1-.9-2.981V14.45H30.865V13.064l1.8-1.1.945-2.535H35.71V11.99h3.362v2.46H35.71v5.79a1.279,1.279,0,0,0,.392,1.031A1.547,1.547,0,0,0,37.139,21.6ZM46.8,14.1a2.078,2.078,0,0,0-1.633.661,3.058,3.058,0,0,0-.677,1.875h4.6a2.731,2.731,0,0,0-.634-1.875A2.146,2.146,0,0,0,46.8,14.1Zm.462,10.119a6.2,6.2,0,0,1-4.533-1.6A6.06,6.06,0,0,1,41.1,18.081a6.666,6.666,0,0,1,1.509-4.667,5.374,5.374,0,0,1,4.173-1.649,5.29,5.29,0,0,1,3.964,1.45,5.486,5.486,0,0,1,1.418,4.007v1.59H44.416a3.154,3.154,0,0,0,.827,2.181,2.91,2.91,0,0,0,2.17.784,9.008,9.008,0,0,0,2.052-.226,10.266,10.266,0,0,0,2.02-.72v2.535a7.693,7.693,0,0,1-1.837.639A11.582,11.582,0,0,1,47.263,24.215Zm14.464-12.45a5.284,5.284,0,0,1,1.106.1l-.247,3.072a3.753,3.753,0,0,0-.967-.107,3.474,3.474,0,0,0-2.444.806,2.912,2.912,0,0,0-.875,2.256V24H55.023V11.99H57.5l.483,2.02h.161a4.515,4.515,0,0,1,1.509-1.627A3.722,3.722,0,0,1,61.726,11.765Zm18.926,7.874a4.06,4.06,0,0,1-1.531,3.352,6.65,6.65,0,0,1-4.259,1.225,10,10,0,0,1-4.447-.945V20.176a18.327,18.327,0,0,0,2.691,1,7.963,7.963,0,0,0,2.014.29,2.864,2.864,0,0,0,1.681-.419,1.433,1.433,0,0,0,.585-1.246,1.376,1.376,0,0,0-.258-.822,2.885,2.885,0,0,0-.757-.693,19.478,19.478,0,0,0-2.036-1.063,9.649,9.649,0,0,1-2.159-1.3,4.88,4.88,0,0,1-1.149-1.45,4.138,4.138,0,0,1-.43-1.934,4.059,4.059,0,0,1,1.413-3.276,5.87,5.87,0,0,1,3.9-1.192,9.221,9.221,0,0,1,2.336.29,16.06,16.06,0,0,1,2.326.816L79.5,11.765a15.717,15.717,0,0,0-2.079-.72,6.691,6.691,0,0,0-1.617-.2,2.141,2.141,0,0,0-1.45.44,1.453,1.453,0,0,0-.5,1.149,1.422,1.422,0,0,0,.2.768,2.244,2.244,0,0,0,.65.634,20.1,20.1,0,0,0,2.111,1.1,8.4,8.4,0,0,1,3.019,2.111A4.12,4.12,0,0,1,80.653,19.639ZM83.3,8.886q0-1.6,1.783-1.6t1.783,1.6a1.56,1.56,0,0,1-.446,1.187,1.874,1.874,0,0,1-1.337.424Q83.3,10.5,83.3,8.886ZM86.716,24H83.439V11.99h3.276Zm8.7-2.4a7.1,7.1,0,0,0,2.063-.376v2.438a7.354,7.354,0,0,1-3.008.548,3.681,3.681,0,0,1-2.863-.994,4.325,4.325,0,0,1-.9-2.981V14.45H89.137V13.064l1.8-1.1.945-2.535h2.095V11.99h3.362v2.46H93.982v5.79a1.279,1.279,0,0,0,.392,1.031A1.547,1.547,0,0,0,95.411,21.6Zm9.662-7.509a2.078,2.078,0,0,0-1.633.661,3.058,3.058,0,0,0-.677,1.875h4.6a2.731,2.731,0,0,0-.634-1.875A2.146,2.146,0,0,0,105.073,14.1Zm.462,10.119a6.2,6.2,0,0,1-4.533-1.6,6.06,6.06,0,0,1-1.633-4.533,6.666,6.666,0,0,1,1.509-4.667,5.374,5.374,0,0,1,4.173-1.649,5.29,5.29,0,0,1,3.964,1.45,5.486,5.486,0,0,1,1.418,4.007v1.59h-7.745a3.154,3.154,0,0,0,.827,2.181,2.91,2.91,0,0,0,2.17.784,9.008,9.008,0,0,0,2.052-.226,10.266,10.266,0,0,0,2.02-.72v2.535a7.693,7.693,0,0,1-1.837.639A11.582,11.582,0,0,1,105.535,24.215ZM15.909,48H11.677L4.845,36.119h-.1q.2,3.147.2,4.49V48H1.977V32.295h4.2L13,44.058h.075q-.161-3.062-.161-4.329V32.295h3Zm11.52,0L26.8,46.367H26.71a4.839,4.839,0,0,1-1.7,1.445,5.5,5.5,0,0,1-2.283.4A3.691,3.691,0,0,1,20,47.227a3.8,3.8,0,0,1-.994-2.814,3.169,3.169,0,0,1,1.337-2.82,7.749,7.749,0,0,1,4.034-1l2.084-.064V40a1.633,1.633,0,0,0-1.869-1.826,8.518,8.518,0,0,0-3.384.87l-1.085-2.213a9.763,9.763,0,0,1,4.6-1.085A5.727,5.727,0,0,1,28.428,36.8,3.891,3.891,0,0,1,29.718,40v8Zm-.967-5.564-1.268.043a4.059,4.059,0,0,0-2.127.516,1.619,1.619,0,0,0-.7,1.439q0,1.386,1.59,1.386a2.518,2.518,0,0,0,1.821-.655,2.3,2.3,0,0,0,.682-1.74ZM44.042,48H40.765V40.985a3.533,3.533,0,0,0-.435-1.95,1.53,1.53,0,0,0-1.37-.65,1.984,1.984,0,0,0-1.826.924,6.06,6.06,0,0,0-.569,3.04V48H33.289V35.99h2.5l.44,1.536h.183a3.329,3.329,0,0,1,1.4-1.294,4.534,4.534,0,0,1,2.095-.467q2.7,0,3.652,1.762h.29a3.245,3.245,0,0,1,1.423-1.3,4.747,4.747,0,0,1,2.122-.462,4.188,4.188,0,0,1,3.088,1.047,4.6,4.6,0,0,1,1.047,3.357V48H48.242V40.985a3.533,3.533,0,0,0-.435-1.95,1.53,1.53,0,0,0-1.37-.65,2.043,2.043,0,0,0-1.8.859,4.876,4.876,0,0,0-.6,2.729Zm16.021-9.9a2.078,2.078,0,0,0-1.633.661,3.058,3.058,0,0,0-.677,1.875h4.6a2.731,2.731,0,0,0-.634-1.875A2.146,2.146,0,0,0,60.063,38.1Zm.462,10.119a6.2,6.2,0,0,1-4.533-1.6,6.06,6.06,0,0,1-1.633-4.533,6.666,6.666,0,0,1,1.509-4.667,5.374,5.374,0,0,1,4.173-1.649,5.29,5.29,0,0,1,3.964,1.45,5.486,5.486,0,0,1,1.418,4.007v1.59H57.678a3.154,3.154,0,0,0,.827,2.181,2.91,2.91,0,0,0,2.17.784,9.008,9.008,0,0,0,2.052-.226,10.266,10.266,0,0,0,2.02-.72v2.535a7.693,7.693,0,0,1-1.837.639A11.582,11.582,0,0,1,60.525,48.215Z" transform="translate(332 1087)" fill="#fff"/>
  </g>
</svg>
