<svg id="Icon_twitter" data-name="Icon / twitter" xmlns="http://www.w3.org/2000/svg" width="24.598" height="20.327" viewBox="0 0 24.598 20.327">
  <path id="Mask" d="M11.943,5.407,12,6.287l-.889-.108a14.455,14.455,0,0,1-8.46-4.163L1.475.85l-.3.861a5.178,5.178,0,0,0,1.1,5.311c.711.754.551.861-.675.413a2.1,2.1,0,0,0-.835-.2,6.429,6.429,0,0,0,.64,2.4,5.739,5.739,0,0,0,2.435,2.3l.871.413-1.031.018c-1,0-1.031.018-.924.395a5.373,5.373,0,0,0,3.324,2.943l1.1.377-.96.574a10.006,10.006,0,0,1-4.763,1.328A5.263,5.263,0,0,0,0,18.129a13.521,13.521,0,0,0,3.43,1.579A15.013,15.013,0,0,0,15.089,18.38a15.6,15.6,0,0,0,5.918-6.962,18.508,18.508,0,0,0,1.209-5.383c0-.825.053-.933,1.049-1.92a11.717,11.717,0,0,0,1.244-1.382c.178-.341.16-.341-.746-.036-1.511.538-1.724.467-.978-.341A5.22,5.22,0,0,0,23.994.437c0-.054-.267.036-.569.2a9.915,9.915,0,0,1-1.564.61l-.96.305L20.03.957A7.234,7.234,0,0,0,18.52.168a6.072,6.072,0,0,0-3.11.072A5.137,5.137,0,0,0,11.943,5.407Z" transform="translate(0 0)" fill="#4569a0"/>
</svg>
