<svg id="Icon_linkedIn" data-name="Icon / linkedIn" xmlns="http://www.w3.org/2000/svg" width="22.627" height="21.598" viewBox="0 0 22.627 21.598">
  <path id="Mask" d="M7.822,21.6s.064-13.2,0-14.572h4.85V9.089a4.815,4.815,0,0,1,4.372-2.407c3.191,0,5.584,2.083,5.584,6.559V21.6h-4.85V13.8c0-1.958-.7-3.295-2.456-3.295a2.655,2.655,0,0,0-2.49,1.771,3.332,3.332,0,0,0-.159,1.182V21.6Zm-7.535,0V7.024h4.85V21.6ZM2.681,5.036A2.525,2.525,0,1,1,2.744,0a2.526,2.526,0,1,1-.032,5.036Z" fill="#4569a0"/>
</svg>
