<svg id="Icon_question" data-name="Icon / question" xmlns="http://www.w3.org/2000/svg" width="16.568" height="25.06" viewBox="0 0 16.568 25.06">
  <path id="Question" d="M7.694,25.06a3.771,3.771,0,0,1-2.575-.823,2.985,2.985,0,0,1-.93-2.351,3.083,3.083,0,0,1,.889-2.36,3.715,3.715,0,0,1,2.616-.83,3.6,3.6,0,0,1,2.551.839,3.093,3.093,0,0,1,.889,2.351,3,3,0,0,1-.923,2.343A3.637,3.637,0,0,1,7.694,25.06ZM10,16.069H4.9V14.64a5.341,5.341,0,0,1,.664-2.75,7.027,7.027,0,0,1,2.36-2.185A8.912,8.912,0,0,0,9.863,8.176a2.326,2.326,0,0,0,.589-1.562,1.261,1.261,0,0,0-.631-1.105A3,3,0,0,0,8.176,5.1,13,13,0,0,0,2.31,6.88L0,2.36A17.279,17.279,0,0,1,8.641,0a9.349,9.349,0,0,1,5.816,1.628,5.327,5.327,0,0,1,2.112,4.437,6.363,6.363,0,0,1-.939,3.482,9.624,9.624,0,0,1-3,2.783,11.747,11.747,0,0,0-2.186,1.653A1.875,1.875,0,0,0,10,15.222v.847Z" transform="translate(0 0)" fill="#4569a0"/>
</svg>
