<svg id="Icon_event_type" data-name="Icon / event type" xmlns="http://www.w3.org/2000/svg" xmlns:xlink="http://www.w3.org/1999/xlink" width="22.077" height="25.231" viewBox="0 0 22.077 25.231">
  <defs>
    <clipPath id="clip-path">
      <path id="Path_3" data-name="Path 3" d="M20.624-13.477a2.5,2.5,0,0,1,2.453,2.523V6.708a2.5,2.5,0,0,1-2.453,2.523H3.453A2.488,2.488,0,0,1,1,6.708l.012-17.662a2.478,2.478,0,0,1,2.441-2.523H4.679V-16H7.132v2.523h9.812V-16H19.4v2.523Zm-.7,19.554V-8.115H4.154V6.077ZM12.038-1.808h6.308V4.5H12.038Z" transform="translate(-1 16)" fill="none" clip-rule="evenodd"/>
    </clipPath>
    <clipPath id="clip-path-2">
      <path id="Path_2" data-name="Path 2" d="M0,9.231H25.231V-16H0Z" transform="translate(0 16)" fill="none"/>
    </clipPath>
  </defs>
  <g id="Group_122" data-name="Group 122" clip-path="url(#clip-path)">
    <g id="Group_121" data-name="Group 121" transform="translate(-1.577)" clip-path="url(#clip-path-2)">
      <path id="Path_1" data-name="Path 1" d="M-4-21H33.846V20H-4Z" transform="translate(-2.308 13.115)" fill="#4468a0"/>
    </g>
  </g>
</svg>
