<svg id="Icon_mobile_advisor" data-name="Icon / mobile advisor" xmlns="http://www.w3.org/2000/svg" width="25.01" height="22.231" viewBox="0 0 25.01 22.231">
  <path id="Shape" d="M23.62,22.231h-1.39a1.39,1.39,0,0,1-1.389-1.389v-1.39H4.168v1.39a1.391,1.391,0,0,1-1.39,1.389H1.39A1.391,1.391,0,0,1,0,20.842V9.727L2.89,1.4A2.092,2.092,0,0,1,4.863,0H20.147a2.089,2.089,0,0,1,1.972,1.4L25.01,9.727V20.842A1.391,1.391,0,0,1,23.62,22.231ZM20.147,11.115A2.084,2.084,0,1,0,22.231,13.2,2.087,2.087,0,0,0,20.147,11.115Zm-15.284,0A2.084,2.084,0,1,0,6.947,13.2,2.087,2.087,0,0,0,4.863,11.115Zm0-9.032L2.778,8.337H22.231L20.147,2.083Z" transform="translate(0 0)" fill="#4569a0"/>
</svg>
