<svg id="Icon_bookmark" data-name="Icon / bookmark" xmlns="http://www.w3.org/2000/svg" width="17.92" height="23.814" viewBox="0 0 17.92 23.814">
  <path id="Bookmark" d="M1.494,23.814A1.494,1.494,0,0,1,0,22.32V1.493A1.5,1.5,0,0,1,1.493,0H16.427A1.5,1.5,0,0,1,17.92,1.493V22.32A1.493,1.493,0,0,1,15.5,23.5L9.883,19.08a1.492,1.492,0,0,0-1.845,0L2.415,23.5A1.476,1.476,0,0,1,1.494,23.814Zm7.466-8.04a4.5,4.5,0,0,1,2.768.957l3.206,2.519V2.986H2.986V19.249l3.207-2.519A4.5,4.5,0,0,1,8.96,15.774Z" transform="translate(0 0)" fill="#4569a0"/>
</svg>
