<svg id="Icon_online_services" data-name="Icon / online services" xmlns="http://www.w3.org/2000/svg" width="25.01" height="19" viewBox="0 0 25.01 19">
  <path id="Path" d="M4.689,3.126H25.01V0H4.168A2.822,2.822,0,0,0,1.563,2.345V15.631H0v3.126H12.505V15.631H4.689Z" fill="#4569a0"/>
  <path id="Combined_Shape" data-name="Combined Shape" d="M7.874,13H1.124A1.106,1.106,0,0,1,0,11.916V1.084A1.106,1.106,0,0,1,1.124,0h6.75A1.107,1.107,0,0,1,9,1.084V11.916A1.107,1.107,0,0,1,7.874,13ZM1.5,1.625V9.75h6V1.625Z" transform="translate(16 6)" fill="#4569a0"/>
</svg>
