<svg id="Icon_shape" data-name="Icon / shape" xmlns="http://www.w3.org/2000/svg" width="25" height="19" viewBox="0 0 25 19">
  <path id="Shape" d="M12.5,19h0a10.607,10.607,0,0,0-6.25-1.675,14.075,14.075,0,0,0-5.4,1.23.432.432,0,0,0-.142.028.43.43,0,0,1-.142.028A.61.61,0,0,1,0,18.051V1.676A10.6,10.6,0,0,1,6.249,0,10.606,10.606,0,0,1,12.5,1.676,10.6,10.6,0,0,1,18.749,0a13.66,13.66,0,0,1,3.978.559A7.755,7.755,0,0,1,25,1.676V17.994a.6.6,0,0,1-.568.56.512.512,0,0,1-.284-.057,11.677,11.677,0,0,0-5.4-1.173A13.983,13.983,0,0,0,12.5,19ZM18.749,2.236A13.965,13.965,0,0,0,12.5,3.912V16.766a13.968,13.968,0,0,1,6.249-1.677,13.368,13.368,0,0,1,3.978.559V2.794A13.33,13.33,0,0,0,18.749,2.236Z" fill="#4569a0"/>
</svg>
