<?xml version="1.0" encoding="utf-8"?>
<!-- Generator: Adobe Illustrator 23.0.4, SVG Export Plug-In . SVG Version: 6.00 Build 0)  -->
<svg version="1.1" id="Layer_1" xmlns="http://www.w3.org/2000/svg" xmlns:xlink="http://www.w3.org/1999/xlink" x="0px" y="0px"
	 viewBox="0 0 334 66" style="enable-background:new 0 0 334 66;" xml:space="preserve">
<style type="text/css">
	.st0{fill-rule:evenodd;clip-rule:evenodd;fill:#FFFFFF;}
</style>
<g>
	<path class="st0" d="M165.6,56.2c0-1.6-0.8-2.6-2.2-2.6c-1.9,0-3.4,2.3-3.4,4.1c0,1.4,0.9,2.4,2.4,2.4
		C164.3,60.2,165.6,58.2,165.6,56.2z M161.3,47.8h-1.5L160,47h2.5l-1.8,7.5c0.6-0.9,1.6-1.7,2.9-1.7c1.7,0,3.1,1.3,3.1,3.4
		c0,2.8-2.1,4.9-4.3,4.9c-1.4,0-2.4-0.8-2.7-2l-0.5,1.9h-1C158.2,60.9,161.3,47.8,161.3,47.8z M171.4,52.9l-1.4,5.2
		c-0.1,0.3-0.1,0.6-0.1,1c0,0.6,0.5,1.1,1.3,1.1c1.2,0,2.7-1.3,3.3-3.5l1-3.8h1l-1.5,6c-0.1,0.3-0.1,0.6-0.1,0.8
		c0,0.4,0.2,0.6,0.6,0.6c0.4,0,0.7-0.4,1.1-1.3l0.6,0.2c-0.4,1.1-1,1.8-1.8,1.8c-0.8,0-1.4-0.5-1.4-1.4c0-0.2,0-0.4,0.1-0.7
		c-0.7,1.2-1.7,2.1-2.9,2.1c-1.3,0-2.2-0.8-2.2-2c0-0.4,0.1-0.8,0.2-1.1l1.1-4.2h-1.5l0.2-0.9C168.9,52.9,171.4,52.9,171.4,52.9z
		 M178.7,60c-0.3-0.3-0.4-0.6-0.4-0.9c0-0.5,0.3-0.9,0.8-0.9c0.5,0,0.7,0.3,0.7,0.7c0,0.3-0.1,0.4-0.3,0.7c0.1,0.1,0.2,0.2,0.3,0.3
		c0.4,0.2,1,0.4,1.7,0.4c1,0,1.7-0.5,1.7-1.3s-0.8-1.2-1.6-1.6c-1.2-0.6-2.3-1.1-2.3-2.3c0-1.3,1.1-2.2,2.8-2.2c1,0,1.9,0.3,2.4,0.8
		c0.3,0.3,0.4,0.6,0.4,0.9c0,0.5-0.4,0.9-0.8,0.9c-0.4,0-0.7-0.3-0.7-0.7c0-0.2,0.1-0.4,0.2-0.7c0,0-0.1-0.1-0.3-0.2
		c-0.3-0.1-0.8-0.2-1.3-0.2c-1.1,0-1.7,0.6-1.7,1.2c0,0.7,0.7,1.1,1.7,1.6c1.2,0.6,2.2,1.2,2.2,2.4c0,1.5-1.3,2.3-2.8,2.3
		C180.4,61.1,179.3,60.6,178.7,60z M188.6,50.3c0-0.5,0.4-0.8,0.8-0.8c0.4,0,0.8,0.4,0.8,0.8c0,0.5-0.4,0.8-0.8,0.8
		C188.9,51.2,188.6,50.8,188.6,50.3C188.6,50.3,188.6,50.3,188.6,50.3 M186.8,59.7c0-0.2,0.1-0.6,0.1-0.9l1.4-5h-1.6l0.2-0.9h2.6
		l-1.7,6c-0.1,0.3-0.1,0.6-0.1,0.8c0,0.4,0.2,0.6,0.6,0.6c0.4,0,0.7-0.4,1.1-1.3l0.6,0.2c-0.4,1.1-1,1.8-1.8,1.8
		C187.4,61,186.8,60.5,186.8,59.7L186.8,59.7z M197.3,59.7c0-0.2,0.1-0.6,0.2-0.9l0.8-2.8c0.1-0.4,0.2-0.7,0.2-1.1
		c0-0.7-0.6-1.3-1.4-1.3c-1.2,0-2.7,1.2-3.3,3.5l-1,3.8h-1l1.8-7.1h-1.5l0.2-0.9h2.5l-0.5,1.9c0.8-1.3,1.8-2.1,2.9-2.1
		c1.3,0,2.3,0.9,2.3,2.1c0,0.4-0.1,0.8-0.2,1.3l-0.8,2.8c-0.1,0.3-0.1,0.6-0.1,0.8c0,0.4,0.2,0.6,0.6,0.6c0.4,0,0.7-0.4,1.1-1.3
		l0.6,0.2c-0.4,1.1-1,1.8-1.8,1.8C197.9,61,197.3,60.5,197.3,59.7L197.3,59.7z M203.1,56.3h5.1c0.1-0.3,0.1-0.6,0.1-0.9
		c0-0.9-0.6-1.8-2.1-1.8C204.9,53.7,203.6,54.8,203.1,56.3L203.1,56.3z M202.9,57.2c0,0.2,0,0.3,0,0.5c0,1.7,1.4,2.5,2.7,2.5
		c0.9,0,1.6-0.2,2.6-0.7l-0.2,1c-0.8,0.4-1.5,0.6-2.6,0.6c-1.9,0-3.5-1.2-3.5-3.4c0-2.7,2.1-5,4.5-5c1.8,0,2.9,1.1,2.9,2.8
		c0,0.5-0.1,1-0.3,1.6L202.9,57.2L202.9,57.2z M211.1,60c-0.3-0.3-0.4-0.6-0.4-0.9c0-0.5,0.3-0.9,0.8-0.9s0.7,0.3,0.7,0.7
		c0,0.3-0.1,0.4-0.3,0.7c0.1,0.1,0.2,0.2,0.3,0.3c0.4,0.2,1,0.4,1.7,0.4c1,0,1.7-0.5,1.7-1.3s-0.8-1.2-1.6-1.6
		c-1.2-0.6-2.3-1.1-2.3-2.3c0-1.3,1.1-2.2,2.8-2.2c1,0,1.9,0.3,2.4,0.8c0.3,0.3,0.4,0.6,0.4,0.9c0,0.5-0.4,0.9-0.8,0.9
		c-0.4,0-0.7-0.3-0.7-0.7c0-0.2,0.1-0.4,0.2-0.7c0,0-0.1-0.1-0.3-0.2c-0.3-0.1-0.8-0.2-1.3-0.2c-1.1,0-1.7,0.6-1.7,1.2
		c0,0.7,0.7,1.1,1.7,1.6c1.2,0.6,2.2,1.2,2.2,2.4c0,1.5-1.3,2.3-2.8,2.3C212.8,61.1,211.7,60.6,211.1,60L211.1,60z M218.9,60
		c-0.3-0.3-0.4-0.6-0.4-0.9c0-0.5,0.3-0.9,0.8-0.9c0.5,0,0.7,0.3,0.7,0.7c0,0.3-0.1,0.4-0.3,0.7c0.1,0.1,0.2,0.2,0.3,0.3
		c0.4,0.2,1,0.4,1.7,0.4c1,0,1.7-0.5,1.7-1.3s-0.8-1.2-1.6-1.6c-1.2-0.6-2.3-1.1-2.3-2.3c0-1.3,1.1-2.2,2.8-2.2c1,0,1.9,0.3,2.4,0.8
		c0.3,0.3,0.4,0.6,0.4,0.9c0,0.5-0.4,0.9-0.8,0.9c-0.4,0-0.7-0.3-0.7-0.7c0-0.2,0.1-0.4,0.2-0.7c0,0-0.1-0.1-0.3-0.2
		c-0.3-0.1-0.8-0.2-1.3-0.2c-1.1,0-1.7,0.6-1.7,1.2c0,0.7,0.7,1.1,1.7,1.6c1.2,0.6,2.2,1.2,2.2,2.4c0,1.5-1.3,2.3-2.8,2.3
		C220.6,61.1,219.5,60.6,218.9,60L218.9,60z M226.1,60c0-0.6,0.4-1,1-1c0.6,0,1,0.5,1,1c0,0.6-0.4,1-1,1
		C226.5,61.1,226.1,60.6,226.1,60z M236.8,56c0-1.5-0.8-2.4-2.3-2.4c-1.9,0-3.3,1.8-3.3,3.9c0,1.5,0.9,2.4,2.3,2.4
		C235.5,60,236.8,57.9,236.8,56 M230,63.8c-0.3-0.3-0.4-0.6-0.4-0.8c0-0.5,0.3-0.9,0.8-0.9c0.5,0,0.8,0.4,0.8,0.8
		c0,0.2-0.1,0.4-0.2,0.5c0.4,0.2,0.9,0.4,1.7,0.4c0.9,0,1.5-0.2,2-0.8c0.5-0.5,0.8-1.2,1.1-2.2l0.4-1.7c-0.7,1.1-1.8,1.7-2.9,1.7
		c-1.7,0-3.1-1.3-3.1-3.3c0-2.7,2-4.8,4.3-4.8c1.5,0,2.4,0.9,2.7,2.1l0.5-2h1l-1.9,8.3c-0.3,1.1-0.6,2-1.3,2.6c-0.7,0.7-1.6,1-2.8,1
		C231.6,64.7,230.4,64.3,230,63.8 M246.8,56.2c0-1.5-1-2.5-2.4-2.5c-1.9,0-3.5,1.9-3.5,4c0,1.5,1,2.5,2.4,2.5
		C245.3,60.2,246.8,58.3,246.8,56.2 M239.9,57.6c0-2.5,2-4.9,4.5-4.9c2.1,0,3.4,1.6,3.4,3.4c0,2.5-2,4.9-4.6,4.9
		C241.2,61.1,239.9,59.5,239.9,57.6L239.9,57.6z M250.2,53.8h-1.5l0.2-0.9h2.2l1,6.9c1.6-1.8,2.9-4,3.3-5.3
		c-0.4-0.1-0.8-0.4-0.8-0.9c0-0.5,0.4-0.9,0.9-0.9c0.5,0,0.9,0.4,0.9,1.1c0,1.4-2.2,4.9-4.6,7.4h-0.4L250.2,53.8L250.2,53.8z
		 M256.6,60c0-0.6,0.4-1,1-1c0.6,0,1,0.5,1,1c0,0.6-0.4,1-1,1C257,61.1,256.6,60.6,256.6,60L256.6,60z M267.2,56.1
		c0-1.4-0.8-2.4-2.2-2.4c-1.9,0-3.3,2-3.3,4.1c0,1.5,0.7,2.4,2.1,2.4C265.9,60.2,267.2,57.8,267.2,56.1 M260.6,57.7c0-2.7,2-5,4.3-5
		c1.5,0,2.4,0.8,2.6,2.1l0.5-2h1l-1.5,6.1c-0.1,0.3-0.1,0.6-0.1,0.8c0,0.4,0.2,0.6,0.6,0.6c0.4,0,0.7-0.4,1.1-1.3l0.6,0.2
		c-0.4,1.1-1,1.8-1.8,1.8c-0.8,0-1.4-0.5-1.4-1.3v-0.3c-0.7,0.9-1.7,1.6-2.9,1.6C261.9,61.1,260.6,59.8,260.6,57.7L260.6,57.7z
		 M274.2,52.9l-1.4,5.2c-0.1,0.3-0.1,0.6-0.1,1c0,0.6,0.5,1.1,1.3,1.1c1.2,0,2.7-1.3,3.3-3.5l1-3.8h1l-1.5,6
		c-0.1,0.3-0.1,0.6-0.1,0.8c0,0.4,0.2,0.6,0.6,0.6c0.4,0,0.7-0.4,1.1-1.3l0.6,0.2c-0.4,1.1-1,1.8-1.8,1.8c-0.8,0-1.4-0.5-1.4-1.4
		c0-0.2,0-0.4,0.1-0.7c-0.7,1.2-1.7,2.1-2.9,2.1c-1.3,0-2.2-0.8-2.2-2c0-0.4,0.1-0.8,0.2-1.1l1.1-4.2h-1.5l0.2-0.9L274.2,52.9
		L274.2,52.9z M172.2,26.9h-8.5v8.4h8.9c3.7,0,5.9-1.4,5.9-4.2V31C178.5,28.5,176.5,26.9,172.2,26.9L172.2,26.9z M176.8,18.2
		c0-2.4-1.9-3.9-5.4-3.9h-7.7v8.1h7.3C174.5,22.4,176.8,21.1,176.8,18.2L176.8,18.2z M158.4,9.6h13.7c3.5,0,6.2,1,8,2.7
		c1.4,1.4,2.1,3,2.1,5v0.1c0,3.7-2.1,5.6-4.4,6.8c3.6,1.2,6.1,3.3,6.1,7.4v0.1c0,5.4-4.5,8.4-11.3,8.4h-14.1L158.4,9.6L158.4,9.6z
		 M187.8,31.7V17h5.3v13.1c0,3.6,1.8,5.6,4.9,5.6c3.1,0,5.2-2.1,5.2-5.7V17h5.3v23h-5.3v-3.6c-1.5,2.2-3.6,4-7.2,4
		C190.8,40.5,187.8,37,187.8,31.7L187.8,31.7z M211.9,37l2.4-3.6c2.5,1.9,5.2,2.8,7.6,2.8c2.3,0,3.6-1,3.6-2.5v-0.1
		c0-1.8-2.4-2.4-5.2-3.2c-3.4-1-7.2-2.4-7.2-6.8v-0.1c0-4.4,3.6-7,8.2-7c2.9,0,6,1,8.5,2.6l-2.1,3.7c-2.2-1.3-4.6-2.2-6.5-2.2
		c-2.1,0-3.2,1-3.2,2.3v0.1c0,1.7,2.5,2.4,5.2,3.3c3.4,1,7.2,2.6,7.2,6.7v0.1c0,4.8-3.8,7.2-8.6,7.2C218.4,40.5,214.8,39.3,211.9,37
		L211.9,37z M234.7,40h5.3V17h-5.3C234.7,17,234.7,40,234.7,40z M234.5,13.5v-5h5.7v5C240.1,13.5,234.5,13.5,234.5,13.5z
		 M245.6,17.1h5.3v3.5c1.5-2.1,3.6-4,7.2-4c5.2,0,8.2,3.5,8.2,8.8V40H261V27c0-3.6-1.8-5.6-4.9-5.6c-3.1,0-5.2,2.1-5.2,5.7v13h-5.3
		L245.6,17.1L245.6,17.1z M287.1,26.9c-0.4-3.4-2.4-6.1-5.9-6.1c-3.2,0-5.5,2.5-6,6.1H287.1z M270.1,28.6L270.1,28.6
		c0-6.7,4.7-12.1,11.3-12.1c7.3,0,11,5.7,11,12.4c0,0.5,0,1-0.1,1.5h-16.9c0.6,3.7,3.2,5.8,6.6,5.8c2.6,0,4.4-1,6.2-2.7l3.1,2.7
		c-2.2,2.6-5.2,4.3-9.4,4.3C275.2,40.6,270.1,35.7,270.1,28.6L270.1,28.6z M294.5,37l2.4-3.6c2.5,1.9,5.2,2.8,7.6,2.8
		c2.3,0,3.6-1,3.6-2.5v-0.1c0-1.8-2.4-2.4-5.2-3.2c-3.4-1-7.2-2.4-7.2-6.8v-0.1c0-4.4,3.6-7,8.2-7c2.9,0,6,1,8.5,2.6l-2.1,3.7
		c-2.2-1.3-4.6-2.2-6.5-2.2c-2.1,0-3.2,1-3.2,2.3v0.1c0,1.7,2.5,2.4,5.2,3.3c3.4,1,7.2,2.6,7.2,6.7v0.1c0,4.8-3.8,7.2-8.6,7.2
		C301,40.5,297.4,39.3,294.5,37L294.5,37z M315.1,37l2.4-3.6c2.5,1.9,5.2,2.8,7.6,2.8c2.3,0,3.6-1,3.6-2.5v-0.1
		c0-1.8-2.4-2.4-5.1-3.2c-3.4-1-7.2-2.4-7.2-6.8v-0.1c0-4.4,3.6-7,8.2-7c2.9,0,6,1,8.5,2.6l-2.1,3.7c-2.2-1.3-4.6-2.2-6.5-2.2
		c-2.1,0-3.2,1-3.2,2.3v0.1c0,1.7,2.5,2.4,5.2,3.3c3.4,1,7.2,2.6,7.2,6.7v0.1c0,4.8-3.8,7.2-8.6,7.2C321.6,40.5,318,39.3,315.1,37
		L315.1,37z M141.7,61.5h0.6V0.3h-0.6V61.5z M5.3,58.3l-1.3-3l-1.4,3H5.3z M5.5,58.8H2.3L2,59.6c-0.1,0.3-0.2,0.5-0.2,0.7
		c0,0.3,0.1,0.4,0.3,0.6C2.2,60.9,2.5,61,3,61v0.2H0V61c0.3,0,0.6-0.2,0.8-0.4C1,60.4,1.2,60,1.5,59.3l3.2-7.1h0.1l3.2,7.3
		c0.3,0.7,0.6,1.1,0.8,1.3C9,60.9,9.2,61,9.4,61v0.2H5.1V61h0.2c0.3,0,0.6,0,0.7-0.1c0.1-0.1,0.2-0.2,0.1-0.3c0-0.1,0-0.2,0-0.2
		C6.1,60.2,6,60,6,59.9C6,59.9,5.5,58.8,5.5,58.8z M14.9,55.2V60c0,0.5,0,0.8,0.1,0.9c0.1,0.1,0.3,0.2,0.5,0.2v0.2h-2.5v-0.8
		c-0.3,0.4-0.6,0.6-0.9,0.8c-0.3,0.2-0.6,0.2-1,0.2c-0.3,0-0.7-0.1-0.9-0.3C10,61,9.8,60.7,9.7,60.4c-0.1-0.3-0.1-0.8-0.1-1.5v-2.4
		c0-0.5,0-0.7-0.1-0.9c-0.1-0.1-0.3-0.2-0.5-0.2v-0.2h2.5v4.2c0,0.4,0,0.7,0.1,0.8c0,0.1,0.1,0.2,0.2,0.3c0.1,0.1,0.2,0.1,0.3,0.1
		c0.2,0,0.3,0,0.4-0.1c0.2-0.1,0.4-0.3,0.6-0.7v-3.3c0-0.5,0-0.7-0.1-0.9c-0.1-0.1-0.3-0.2-0.5-0.2v-0.2
		C12.4,55.2,14.9,55.2,14.9,55.2z M19.8,55l0.1,2.1h-0.2c-0.3-0.6-0.5-1-0.8-1.3c-0.3-0.2-0.6-0.3-0.9-0.3c-0.2,0-0.3,0.1-0.5,0.2
		c-0.1,0.1-0.2,0.3-0.2,0.4c0,0.1,0,0.2,0.1,0.3c0.1,0.2,0.5,0.5,1.2,0.9c0.6,0.4,1.1,0.8,1.3,1.1c0.2,0.3,0.3,0.6,0.3,1
		c0,0.3-0.1,0.7-0.3,1c-0.2,0.3-0.4,0.6-0.7,0.8c-0.3,0.2-0.7,0.3-1,0.3c-0.3,0-0.7-0.1-1.2-0.3c-0.1,0-0.2-0.1-0.3-0.1
		c-0.1,0-0.3,0.1-0.4,0.3h-0.2l-0.1-2.2h0.2c0.2,0.6,0.5,1,0.8,1.3c0.3,0.3,0.7,0.4,1,0.4c0.2,0,0.4-0.1,0.5-0.2
		c0.1-0.1,0.2-0.3,0.2-0.5c0-0.2-0.1-0.4-0.2-0.5c-0.1-0.2-0.4-0.4-0.9-0.7c-0.7-0.5-1.1-0.8-1.3-1.1c-0.3-0.3-0.4-0.7-0.4-1.2
		c0-0.5,0.2-0.9,0.5-1.3c0.3-0.4,0.8-0.6,1.4-0.6c0.3,0,0.6,0.1,1,0.2c0.1,0.1,0.2,0.1,0.3,0.1c0.1,0,0.1,0,0.2,0
		c0,0,0.1-0.1,0.2-0.3C19.6,55,19.8,55,19.8,55z M23.1,52.9v2.2h1.5v0.6h-1.5v3.8c0,0.4,0,0.6,0,0.7c0,0.1,0.1,0.2,0.2,0.3
		c0.1,0.1,0.1,0.1,0.2,0.1c0.3,0,0.6-0.2,0.8-0.7l0.2,0.1c-0.4,0.8-0.9,1.3-1.7,1.3c-0.4,0-0.7-0.1-1-0.3c-0.3-0.2-0.4-0.5-0.5-0.7
		c0-0.1-0.1-0.5-0.1-1.2v-3.3h-0.8v-0.2c0.5-0.4,1-0.8,1.4-1.2c0.4-0.4,0.7-0.9,1-1.4C22.9,52.9,23.1,52.9,23.1,52.9z M27.5,55.2
		v1.4c0.4-0.6,0.8-1,1.1-1.3c0.3-0.2,0.6-0.3,0.9-0.3c0.2,0,0.4,0.1,0.6,0.2c0.1,0.1,0.2,0.4,0.2,0.6c0,0.3-0.1,0.5-0.2,0.7
		c-0.1,0.2-0.3,0.2-0.5,0.2c-0.2,0-0.4-0.1-0.6-0.2c-0.1-0.1-0.2-0.2-0.3-0.2c0,0-0.1,0-0.2,0c-0.1,0-0.3,0.1-0.4,0.1
		c-0.2,0.1-0.3,0.4-0.4,0.6c-0.1,0.4-0.2,0.9-0.2,1.4v1.4l0,0.4c0,0.2,0,0.4,0,0.5c0,0.1,0.1,0.2,0.2,0.3c0.1,0.1,0.3,0.1,0.5,0.1
		v0.2H25V61c0.3,0,0.4-0.1,0.5-0.2c0.1-0.1,0.1-0.5,0.1-1v-3.4c0-0.3,0-0.6-0.1-0.7c0-0.1-0.1-0.2-0.2-0.3c-0.1-0.1-0.2-0.1-0.4-0.1
		v-0.2C25,55.2,27.5,55.2,27.5,55.2z M33.7,59.9v-2c-0.5,0.3-0.9,0.6-1.2,1c-0.2,0.2-0.2,0.5-0.3,0.7c0,0.2,0.1,0.4,0.2,0.5
		c0.1,0.1,0.3,0.2,0.5,0.2C33.1,60.3,33.4,60.1,33.7,59.9 M33.7,60.4c-0.7,0.7-1.4,1-2,1c-0.4,0-0.6-0.1-0.9-0.3
		c-0.2-0.2-0.4-0.5-0.3-0.9c0-0.5,0.2-0.9,0.6-1.3c0.4-0.4,1.3-0.9,2.6-1.5v-0.6c0-0.5,0-0.8-0.1-0.9c-0.1-0.1-0.2-0.2-0.3-0.3
		c-0.1-0.1-0.3-0.1-0.5-0.1c-0.3,0-0.5,0.1-0.7,0.2C32,55.8,32,55.8,32,55.9c0,0.1,0.1,0.2,0.2,0.3c0.2,0.2,0.2,0.4,0.2,0.5
		c0,0.2-0.1,0.4-0.2,0.5c-0.2,0.1-0.4,0.2-0.6,0.2c-0.3,0-0.5-0.1-0.7-0.2c-0.2-0.1-0.3-0.4-0.3-0.6c0-0.3,0.1-0.6,0.4-0.9
		c0.3-0.3,0.6-0.5,1-0.7c0.4-0.2,0.9-0.2,1.4-0.2c0.6,0,1,0.1,1.4,0.4c0.3,0.2,0.6,0.5,0.7,0.8c0.1,0.2,0.1,0.6,0.1,1.3v2.4
		c0,0.3,0,0.5,0,0.5c0,0.1,0.1,0.1,0.1,0.2c0,0,0.1,0,0.2,0c0.1,0,0.2-0.1,0.3-0.2l0.2,0.2c-0.2,0.3-0.4,0.6-0.7,0.7
		c-0.2,0.1-0.5,0.2-0.8,0.2c-0.4,0-0.6-0.1-0.8-0.2C33.8,61,33.7,60.7,33.7,60.4z M39,52.4V60c0,0.4,0.1,0.7,0.2,0.8
		c0.1,0.1,0.3,0.2,0.6,0.2v0.2h-3.3V61c0.3,0,0.5-0.1,0.6-0.2c0.1-0.1,0.1-0.4,0.1-0.8v-6.3c0-0.4,0-0.7-0.1-0.8
		c-0.1-0.1-0.3-0.2-0.6-0.2v-0.2C36.4,52.4,39,52.4,39,52.4z M42.7,55.2V60c0,0.4,0.1,0.7,0.2,0.8C43,61,43.2,61,43.5,61v0.2h-3.3
		V61c0.3,0,0.5-0.1,0.6-0.2c0.1-0.1,0.1-0.4,0.1-0.8v-3.6c0-0.4,0-0.7-0.2-0.8c-0.1-0.1-0.3-0.2-0.6-0.2v-0.2
		C40.1,55.2,42.7,55.2,42.7,55.2z M41.8,52.2c0.3,0,0.5,0.1,0.7,0.3c0.2,0.2,0.3,0.4,0.3,0.7c0,0.3-0.1,0.5-0.3,0.7
		c-0.2,0.2-0.4,0.3-0.7,0.3c-0.3,0-0.5-0.1-0.7-0.3c-0.2-0.2-0.3-0.4-0.3-0.7c0-0.3,0.1-0.5,0.3-0.7C41.3,52.3,41.5,52.2,41.8,52.2z
		 M47,59.9v-2c-0.5,0.3-0.9,0.6-1.2,1c-0.2,0.2-0.3,0.5-0.3,0.7c0,0.2,0.1,0.4,0.2,0.5c0.1,0.1,0.3,0.2,0.5,0.2
		C46.5,60.3,46.7,60.1,47,59.9 M47,60.4c-0.7,0.7-1.4,1-2,1c-0.4,0-0.6-0.1-0.9-0.3c-0.2-0.2-0.4-0.5-0.3-0.9c0-0.5,0.2-0.9,0.6-1.3
		c0.4-0.4,1.3-0.9,2.6-1.5v-0.6c0-0.5,0-0.8-0.1-0.9c-0.1-0.1-0.2-0.2-0.3-0.3c-0.1-0.1-0.3-0.1-0.5-0.1c-0.3,0-0.5,0.1-0.7,0.2
		c-0.1,0.1-0.2,0.2-0.2,0.3c0,0.1,0.1,0.2,0.2,0.3c0.2,0.2,0.2,0.4,0.2,0.5c0,0.2-0.1,0.4-0.2,0.5c-0.2,0.1-0.4,0.2-0.6,0.2
		c-0.3,0-0.5-0.1-0.7-0.2c-0.2-0.1-0.3-0.4-0.3-0.6c0-0.3,0.1-0.6,0.4-0.9c0.2-0.3,0.6-0.5,1-0.7c0.4-0.2,0.9-0.2,1.4-0.2
		c0.6,0,1,0.1,1.4,0.4c0.3,0.2,0.6,0.5,0.7,0.8c0.1,0.2,0.1,0.6,0.1,1.3v2.4c0,0.3,0,0.5,0,0.5c0,0.1,0.1,0.1,0.1,0.2
		c0,0,0.1,0.1,0.1,0c0.1,0,0.2-0.1,0.3-0.2l0.2,0.2c-0.2,0.3-0.4,0.6-0.7,0.7c-0.2,0.1-0.5,0.2-0.8,0.2c-0.3,0-0.6-0.1-0.8-0.2
		C47.2,61,47.1,60.7,47,60.4z M52.3,55.2V56c0.3-0.3,0.6-0.6,0.9-0.7c0.3-0.2,0.6-0.2,0.9-0.2c0.4,0,0.7,0.1,1,0.3
		c0.3,0.2,0.4,0.5,0.5,0.8c0.1,0.2,0.1,0.7,0.1,1.4v2.4c0,0.5,0,0.8,0.1,0.9c0.1,0.1,0.3,0.2,0.5,0.2v0.2h-3.1V61
		c0.2,0,0.4-0.1,0.5-0.3c0.1-0.1,0.1-0.4,0.1-0.8v-2.7c0-0.5,0-0.8-0.1-0.9c0-0.1-0.1-0.2-0.2-0.3c-0.1-0.1-0.2-0.1-0.3-0.1
		c-0.4,0-0.7,0.3-1,0.8v3.3c0,0.5,0,0.7,0.1,0.9c0.1,0.1,0.2,0.2,0.5,0.2v0.2h-3.1V61c0.3,0,0.4-0.1,0.5-0.2
		c0.1-0.1,0.1-0.4,0.1-0.8v-3.5c0-0.5,0-0.7-0.1-0.9c-0.1-0.1-0.3-0.2-0.5-0.2v-0.2C49.8,55.2,52.3,55.2,52.3,55.2z M68.5,52.2v3.1
		h-0.2c-0.3-0.9-0.7-1.5-1.3-1.9c-0.5-0.4-1.2-0.7-1.9-0.7c-0.7,0-1.2,0.2-1.7,0.6c-0.4,0.4-0.8,0.9-0.9,1.6
		c-0.2,0.7-0.3,1.4-0.3,2.1c0,0.8,0.1,1.6,0.3,2.2c0.2,0.6,0.5,1.1,1,1.4c0.5,0.3,1,0.5,1.6,0.5c0.2,0,0.4,0,0.7-0.1
		c0.2,0,0.5-0.1,0.7-0.2v-1.8c0-0.3,0-0.6-0.1-0.7c-0.1-0.1-0.1-0.2-0.3-0.3c-0.2-0.1-0.4-0.1-0.5-0.1h-0.2v-0.2h4.3v0.2
		c-0.3,0-0.6,0.1-0.7,0.1c-0.1,0.1-0.2,0.2-0.3,0.3c0,0.1-0.1,0.3-0.1,0.6v1.8c-0.6,0.3-1.2,0.4-1.8,0.6c-0.6,0.1-1.2,0.2-1.9,0.2
		c-0.8,0-1.5-0.1-2.1-0.3c-0.5-0.2-1-0.5-1.5-0.9c-0.4-0.4-0.7-0.8-1-1.3c-0.3-0.6-0.5-1.3-0.5-2c0-1.3,0.5-2.5,1.4-3.4
		c0.9-0.9,2.1-1.4,3.5-1.4c0.4,0,0.8,0,1.2,0.1c0.2,0,0.5,0.1,0.9,0.3c0.4,0.2,0.7,0.2,0.8,0.2c0.1,0,0.2,0,0.3-0.1
		c0.1-0.1,0.2-0.3,0.3-0.5C68.3,52.2,68.5,52.2,68.5,52.2z M72.8,55.4c-0.2,0-0.4,0.1-0.6,0.3c-0.2,0.2-0.3,0.5-0.3,1
		c0,0.5-0.1,1.2-0.1,2.1c0,0.5,0,0.9,0.1,1.3c0,0.3,0.2,0.5,0.3,0.7c0.1,0.2,0.3,0.2,0.5,0.2c0.2,0,0.4-0.1,0.5-0.2
		c0.2-0.2,0.3-0.4,0.3-0.6c0.1-0.4,0.1-1.2,0.1-2.5c0-0.7,0-1.2-0.1-1.5c-0.1-0.3-0.2-0.5-0.4-0.6C73.1,55.5,73,55.4,72.8,55.4
		 M72.8,55c0.5,0,1,0.1,1.5,0.4c0.5,0.3,0.8,0.7,1,1.2c0.2,0.5,0.4,1.1,0.4,1.7c0,0.9-0.2,1.6-0.7,2.2c-0.5,0.7-1.3,1.1-2.2,1.1
		c-0.9,0-1.6-0.3-2.1-1c-0.5-0.6-0.8-1.4-0.7-2.2c0-0.9,0.3-1.6,0.8-2.3C71.2,55.3,71.9,55,72.8,55L72.8,55z M78.6,61.5l-2.1-4.7
		c-0.2-0.6-0.4-0.9-0.6-1.1c-0.1-0.1-0.3-0.2-0.4-0.2v-0.2h3.3v0.2c-0.2,0-0.3,0-0.4,0.1c-0.1,0.1-0.2,0.2-0.2,0.3
		c0,0.2,0.1,0.5,0.3,0.9l1,2.3l0.8-2c0.2-0.6,0.3-1,0.3-1.2c0-0.1-0.1-0.2-0.1-0.3c-0.1-0.1-0.3-0.1-0.5-0.1v-0.2h2v0.2
		c-0.2,0-0.3,0.1-0.5,0.2c-0.1,0.1-0.3,0.5-0.5,1l-2,4.8C78.9,61.5,78.6,61.5,78.6,61.5z M85.1,57.6c0-0.7,0-1.2-0.1-1.4
		c-0.1-0.3-0.2-0.5-0.4-0.6c-0.1-0.1-0.2-0.1-0.4-0.1c-0.2,0-0.4,0.1-0.6,0.3c-0.3,0.4-0.4,0.9-0.4,1.6v0.2L85.1,57.6L85.1,57.6z
		 M86.7,58h-3.4c0,0.8,0.2,1.5,0.6,1.9c0.3,0.4,0.7,0.5,1.1,0.5c0.3,0,0.5-0.1,0.7-0.2c0.2-0.2,0.4-0.4,0.7-0.8l0.2,0.1
		c-0.3,0.7-0.7,1.2-1.1,1.4c-0.4,0.3-0.9,0.4-1.4,0.4c-0.9,0-1.6-0.3-2.1-1c-0.4-0.6-0.6-1.3-0.6-2.1c0-1,0.3-1.8,0.8-2.4
		c0.6-0.6,1.2-0.9,1.9-0.9c0.6,0,1.2,0.3,1.6,0.8C86.5,56.3,86.7,57,86.7,58z M89.7,55.2v1.4c0.4-0.6,0.8-1,1.1-1.3
		c0.3-0.2,0.6-0.3,0.9-0.3c0.2,0,0.4,0.1,0.6,0.2c0.1,0.1,0.2,0.4,0.2,0.6c0,0.3-0.1,0.5-0.2,0.7c-0.1,0.2-0.3,0.2-0.5,0.2
		c-0.2,0-0.4-0.1-0.6-0.2c-0.2-0.1-0.3-0.2-0.3-0.2c0,0-0.1,0-0.2,0c-0.1,0-0.3,0.1-0.4,0.1c-0.2,0.1-0.3,0.4-0.4,0.6
		c-0.1,0.4-0.2,0.9-0.2,1.4v1.4l0,0.4c0,0.2,0,0.4,0,0.5c0.1,0.1,0.1,0.2,0.2,0.3C90,61,90.2,61,90.5,61v0.2h-3.3V61
		c0.3,0,0.4-0.1,0.5-0.2c0.1-0.1,0.2-0.5,0.2-1v-3.4c0-0.3,0-0.6-0.1-0.7c0-0.1-0.1-0.2-0.2-0.3c-0.1-0.1-0.2-0.1-0.4-0.1v-0.2
		C87.2,55.2,89.7,55.2,89.7,55.2z M95.3,55.2V56c0.3-0.3,0.6-0.5,0.9-0.7c0.3-0.2,0.6-0.2,0.9-0.2c0.4,0,0.7,0.1,1,0.3
		c0.3,0.2,0.4,0.5,0.5,0.8c0.1,0.2,0.1,0.7,0.1,1.4v2.4c0,0.5,0,0.8,0.1,0.9c0.1,0.1,0.3,0.2,0.5,0.2v0.2h-3.1V61
		c0.2,0,0.4-0.1,0.5-0.3c0.1-0.1,0.1-0.4,0.1-0.8v-2.7c0-0.5,0-0.8-0.1-0.9c0-0.1-0.1-0.2-0.2-0.3c-0.1-0.1-0.2-0.1-0.3-0.1
		c-0.4,0-0.7,0.3-1,0.8v3.3c0,0.5,0,0.7,0.1,0.9c0.1,0.1,0.3,0.2,0.5,0.2v0.2h-3.1V61c0.3,0,0.4-0.1,0.6-0.2
		c0.1-0.1,0.1-0.4,0.1-0.8v-3.5c0-0.5,0-0.7-0.1-0.9c-0.1-0.1-0.3-0.2-0.5-0.2v-0.2H95.3L95.3,55.2z M102.4,55.2V56
		c0.3-0.4,0.7-0.6,0.9-0.8c0.3-0.1,0.6-0.2,0.9-0.2c0.4,0,0.7,0.1,1,0.3c0.3,0.2,0.5,0.5,0.6,0.8c0.4-0.4,0.7-0.7,1-0.8
		c0.3-0.2,0.7-0.3,1-0.3c0.4,0,0.8,0.1,1,0.3c0.3,0.2,0.4,0.4,0.5,0.7c0.1,0.3,0.1,0.8,0.1,1.4v2.5c0,0.5,0,0.8,0.1,0.9
		c0.1,0.1,0.3,0.2,0.5,0.2v0.2h-3.2V61c0.2,0,0.4-0.1,0.5-0.3c0.1-0.1,0.1-0.4,0.1-0.8v-2.6c0-0.5,0-0.9-0.1-1
		c0-0.1-0.1-0.2-0.2-0.3c-0.1-0.1-0.2-0.1-0.3-0.1c-0.2,0-0.4,0.1-0.6,0.2c-0.2,0.2-0.4,0.4-0.6,0.6v3.3c0,0.4,0,0.7,0.1,0.8
		c0.1,0.2,0.3,0.2,0.6,0.3v0.2h-3.2V61c0.2,0,0.3,0,0.4-0.1c0.1-0.1,0.2-0.2,0.2-0.3c0-0.1,0.1-0.3,0.1-0.7v-2.6c0-0.6,0-0.9-0.1-1
		c0-0.1-0.1-0.2-0.2-0.3c-0.1-0.1-0.2-0.1-0.3-0.1c-0.2,0-0.3,0-0.5,0.1c-0.2,0.1-0.4,0.4-0.7,0.7v3.3c0,0.4,0,0.7,0.1,0.9
		c0.1,0.1,0.3,0.2,0.5,0.2v0.2h-3.2V61c0.3,0,0.4-0.1,0.5-0.2c0.1-0.1,0.1-0.4,0.1-0.8v-3.5c0-0.5,0-0.7-0.1-0.9
		c-0.1-0.1-0.3-0.2-0.5-0.2v-0.2L102.4,55.2L102.4,55.2z M114.1,57.6c0-0.7,0-1.2-0.1-1.4c-0.1-0.3-0.2-0.5-0.3-0.6
		c-0.1-0.1-0.2-0.1-0.4-0.1c-0.2,0-0.4,0.1-0.6,0.3c-0.3,0.4-0.4,0.9-0.4,1.6v0.2L114.1,57.6L114.1,57.6z M115.7,58h-3.4
		c0,0.8,0.3,1.5,0.7,1.9c0.3,0.4,0.7,0.5,1.1,0.5c0.3,0,0.5-0.1,0.7-0.2c0.2-0.2,0.4-0.4,0.7-0.8l0.2,0.1c-0.3,0.7-0.7,1.2-1.1,1.4
		c-0.4,0.3-0.9,0.4-1.4,0.4c-0.9,0-1.6-0.3-2.1-1c-0.4-0.6-0.6-1.3-0.6-2.1c0-1,0.3-1.8,0.8-2.4c0.6-0.6,1.2-0.9,1.9-0.9
		c0.6,0,1.2,0.3,1.6,0.8C115.4,56.3,115.7,57,115.7,58z M118.4,55.2V56c0.3-0.3,0.6-0.6,0.9-0.7c0.3-0.2,0.6-0.2,0.9-0.2
		c0.4,0,0.7,0.1,1,0.3c0.3,0.2,0.4,0.5,0.5,0.8c0.1,0.2,0.1,0.7,0.1,1.4v2.4c0,0.5,0,0.8,0.1,0.9c0.1,0.1,0.3,0.2,0.5,0.2v0.2h-3.1
		V61c0.2,0,0.4-0.1,0.5-0.3c0.1-0.1,0.1-0.4,0.1-0.8v-2.7c0-0.5,0-0.8-0.1-0.9c0-0.1-0.1-0.2-0.2-0.3c-0.1-0.1-0.2-0.1-0.3-0.1
		c-0.4,0-0.7,0.3-1,0.8v3.3c0,0.5,0,0.7,0.1,0.9c0.1,0.1,0.2,0.2,0.5,0.2v0.2h-3.1V61c0.3,0,0.4-0.1,0.6-0.2
		c0.1-0.1,0.1-0.4,0.1-0.8v-3.5c0-0.5,0-0.7-0.1-0.9c-0.1-0.1-0.3-0.2-0.5-0.2v-0.2H118.4L118.4,55.2z M125.2,52.9v2.2h1.5v0.6h-1.5
		v3.8c0,0.4,0,0.6,0,0.7c0,0.1,0.1,0.2,0.2,0.3c0.1,0.1,0.1,0.1,0.2,0.1c0.3,0,0.6-0.2,0.8-0.7l0.2,0.1c-0.3,0.8-0.9,1.3-1.7,1.3
		c-0.4,0-0.7-0.1-1-0.3c-0.3-0.2-0.4-0.5-0.5-0.7c0-0.1-0.1-0.5-0.1-1.2v-3.3h-0.8v-0.2c0.5-0.4,1-0.8,1.4-1.2
		c0.4-0.4,0.7-0.9,1-1.4C124.9,52.9,125.2,52.9,125.2,52.9z M63.8,34.8c-0.1,0.2-0.2,0.4-0.2,0.7l-0.1,0c0.1-0.3-0.2-0.5-0.2-0.8
		c-0.2-0.2-0.2-0.5-0.3-0.8c-0.2-0.3,0.2-0.5,0.3-0.7c0.3,0.1,0.4,0.4,0.6,0.6C64,34.3,63.8,34.5,63.8,34.8 M95.9,27.4
		c-0.3-0.6-0.9-0.8-1.5-0.8c-0.5,0-0.9,0.4-1.1,0.8c-0.1,0.4,0,0.8,0.4,1.1c0.1,0.1,0.3,0,0.4-0.1c0.1-0.3-0.2-0.3-0.2-0.5
		c-0.1-0.3,0-0.5,0.2-0.7c0.2-0.2,0.5-0.1,0.8-0.1c0.2,0.2,0.5,0.3,0.6,0.6c0.1,0.3,0.1,0.7,0,1.1c-0.2,0.5-0.7,0.9-1.2,1
		c-1.7,0.2-20,0.2-20,0.2c-2.2,0.2-4.6-0.4-6.5,0.7c-0.8,0.4-1.3,1.3-1.5,2.2c-0.5,0.5-1.1,1.1-1.6,1.6l-0.1-0.1
		c0.1-0.5,0.3-0.9,0.4-1.4c0.3-0.4,0.3-1,0.5-1.4c0.8-1.2,1.5-2.5,2.7-3.4c0.5-0.7,1.4-0.5,2.2-0.5c0.8,0.4,1.8,0.5,2.8,0.4
		c0,0,0.1-0.1,0.1-0.1c-0.3-0.3-0.8-0.4-1.1-0.6c-0.8-0.4-1.6,0.1-2.4,0.1c0,0-0.1-0.1-0.1-0.1c0.8-0.6,1.6-1,2.5-1.3
		c0.7-0.4,1.5-0.6,2.2-0.9c0.3,0,0.6-0.3,0.9-0.1l1.1-0.3c0,0,0.1,0.1,0.2,0.1c0.9-0.3,2.1,0,3.1,0l0.1,0.1l1,0.2
		c0.4,0,0.5,0.5,0.9,0.5c0.2-0.3-0.2-0.4-0.3-0.6c0.4-0.1,0.9,0,1.4,0.2l-0.2,0.2c-0.1,0.2,0.1,0.4,0.2,0.5c0.1,0,0.2-0.1,0.3-0.1
		c0.3-0.2,0-0.4,0.1-0.5c1.5,0.3,2.9,0.6,4.3,1.2c0.4,0.1,0.7,0.4,1.2,0.4c-0.4-0.4-1-0.6-1.5-0.8c-0.3-0.2-0.8-0.2-1.1-0.5
		c0.1-0.1,0.2-0.1,0.3-0.1c0.7-0.1,1.3-0.6,1.8-1.1c0-0.1,0.3-0.1,0.2-0.2c-0.2-0.2-0.5,0.1-0.7,0c-0.9,0.2-1.2,1.2-2.1,1.3
		c-1-0.2-2.1-0.5-3.1-0.8c-0.5-0.1-1.1-0.1-1.5-0.3l-1.1-0.1h-2.1c0,0-0.1-0.1-0.1-0.1c0.7-0.2,1.4-0.6,2.1-0.8l5.4-2.5
		c0.6-0.5,1.1-1.1,1.5-1.7c0-0.2-0.1-0.3-0.2-0.4c-0.1-0.1-0.3,0-0.4,0.1c-0.2,0.2,0,0.4,0,0.6c-0.2,0.3-0.6,0.6-0.9,0.8
		c-0.1,0-5.6,2.5-5.6,2.5c-0.8,0.3-1.6,0.7-2.5,0.9l-1.2,0.2c-0.1,0.2-0.3,0.4-0.5,0.5c-0.3,0.1-0.6,0.3-0.9,0.3
		c-2.6,1-5.3,2.1-7.4,4.2c0.1-0.2,0.2-0.5,0.2-0.8c0-0.3,0-0.6-0.2-0.9c-0.1-0.1-0.2-0.4-0.2-0.6l-0.3,0.2c-0.2,0.4-0.3,1.3-0.2,1.7
		c0.1,0.4,0.4,0.8,0.1,1.1c-1,1.2-1.5,2.6-2.2,3.9c-0.2,0-0.4-0.3-0.5-0.5c0.7-0.9,1.2-1.8,1.4-3c0.1-0.1,0-0.4,0.2-0.5
		c0-0.3,0.2-0.6,0-0.9c0.1-0.4-0.6-0.9-0.1-1.1l-0.4,0.2c-0.9,1.1,0.5,2.8-0.5,3.9v0.1c-0.3,0.4-0.4,0.7-0.8,1
		c-0.5-0.2-0.7-0.8-0.9-1.2c-0.4-0.4-0.4-1.3-0.2-1.9c0.2-0.6-0.1-1.1-0.2-1.6l-0.2-0.1c-0.5,0.6-0.7,1.6-0.3,2.4
		c0.2,0.4,0.2,0.9,0.5,1.2c0.2,0.6,0.5,1,0.9,1.5c0.1,0.2-0.1,0.2-0.2,0.3c-0.2-0.1-0.2-0.5-0.4-0.6c-0.7-1.4-1.5-2.6-2.6-3.7
		c0-0.2-0.2-0.3-0.1-0.5c0.4-0.4,0.5-1.1,0.3-1.5c0-0.1-0.2-0.2-0.1-0.3l-0.3-0.2c0,0.7-0.4,1.3-0.2,2.1v0c-2.1-1.6-4.3-2.9-6.7-4
		l-0.2,0.5c0.6,0.1,2.2,1.1,2.2,1.1c0.7,0.3,1.4,0.7,2,1.1c2.7,1.5,4.6,4,5.8,6.8c0,0.2,0.2,0.5,0.1,0.7c-0.4-0.6-1-1-1.5-1.5
		c-0.1-0.9-0.7-1.9-1.5-2.2c-0.3-0.4-0.9-0.5-1.4-0.6l-7.3,0c-6-0.1-11.4,0.2-17.3,0.1c-0.8-0.1-1.8-0.4-2.1-1.2
		c-0.2-0.3-0.2-0.8,0-1.1c0.2-0.4,0.6-0.5,1-0.5c0.3,0,0.5,0.3,0.7,0.6c0,0.3-0.2,0.5-0.3,0.7c0,0.1,0.1,0.2,0.2,0.2
		c0.3-0.1,0.5-0.4,0.5-0.6c0-0.1,0.1-0.3-0.1-0.4c-0.1-0.4-0.6-0.7-0.9-0.8c-0.5,0-1,0.1-1.4,0.5c-0.5,0.4-0.5,1.1-0.3,1.7
		c0.3,0.9,1.3,1.5,2.2,1.6l19.6,0.1c1.9,0.1,4.1-0.2,6,0.2c0.7,0.2,1.5,0.7,1.6,1.5c0,0-0.1,0-0.1,0c-1.6-1-3.7-1.4-5.7-1.2
		c-0.8,0-1.5,0.3-2.3,0.5c-0.4,0.1-0.8-0.1-1-0.3c-0.7-0.6-2-0.6-2.9-0.4c0,0.1,0,0.1,0,0.1c1-0.1,1.6,0.8,2.5,0.9
		c0.2,0,0.4-0.2,0.5,0c-0.9,0.4-1.8,1-2.8,1.3c-0.3-0.1-0.5-0.3-0.7-0.5c-0.4-0.4-1.1-0.2-1.6-0.3c-0.2,0-0.3-0.1-0.5,0
		c0.2,0.3,0.5,0.5,0.9,0.7c0.5,0.2,1.1,0,1.6,0.3c-0.1,0.1-0.3,0.2-0.4,0.3c-1,0.4-1.7,1.2-2.8,1.2c-1.1,0.1-2.2-0.2-3-1
		c-0.3-0.8-1.2-1.2-2-1.2c-0.1,0-0.1,0-0.1,0.1c0.4,0.3,0.8,0.8,1.2,1.1c0.3,0.3,0.8,0,1.1,0.4c0.4,0.3,0.9,0.5,1.3,0.6
		c0.3,0.1,0.7,0.2,1,0.3l-0.1,0.1c-1.8,0.6-4,0.7-6,0.6c-0.6,0-1.2-0.2-1.8-0.2c0.1,0.1,0.3,0.2,0.5,0.3c-0.2,0.1-0.3,0.1-0.5,0.2
		c-0.2,0.1-0.5,0.1-0.8,0.2c-0.3,0-0.6,0.1-0.9,0.2c-0.3,0.4-0.7,0.7-1.2,0.9c0,0.1,0,0.2,0.1,0.2c0.4-0.2,0.9,0,1.2-0.2
		c0.7-0.1,1-0.8,1.6-1.1c0.6-0.4,1.4-0.3,2.1-0.2c0.4,0.1,0,0.3,0.1,0.5c0.2,0.1,0.3,0.3,0.5,0.2c0,0,0.1-0.1,0.1-0.1
		c0.1-0.2,0.1-0.3,0-0.5c0.3-0.2,0.7,0,1-0.1c0.8,0,1.5-0.2,2.3-0.2c0.1,0,0.3-0.1,0.4,0c-0.1,0.2-0.3,0.2-0.2,0.4
		c0,0.2,0.2,0.3,0.4,0.3c0.2-0.1,0.4-0.2,0.3-0.5c0-0.1-0.2-0.2-0.3-0.2c0.4-0.2,0.9-0.3,1.3-0.5c0.3-0.1,0.6-0.2,0.8-0.3
		c0.3,0,0.5-0.3,0.7-0.2c-0.1,0.3-0.2,0.7-0.4,1c-0.3,1.1-0.6,2.5,0,3.5c0.1,0,0.1,0,0.1,0c-0.4-1.1-0.2-2.3,0.2-3.3
		c0.3-1.7,2.1-2.2,3.3-2.9l0.1,0.1c-0.3,0.9-0.8,1.7-0.8,2.8c0,0.2-0.1,0.4,0,0.5c0.3-0.2,0.6-0.6,0.7-0.9c0.1-0.9-0.4-2,0.5-2.7
		c1.7-0.6,3.2-1.5,5.1-1.5c0.1,0.1,0.2,0,0.2,0.1c-0.4,0.5-1,0.9-1.2,1.4c-0.6,0.9-0.6,2.4-0.3,3.5c0.2,0.6-0.4,1-0.6,1.5
		c-0.1,0.2-0.2,0.5-0.3,0.7l0.4,0c0.3-0.4,0.7-0.8,0.7-1.3c0,0.2,0.2,0.4,0.4,0.4c0.1-0.2-0.1-0.4-0.1-0.6c0.3-0.2,0.5,0.2,0.7,0.3
		c0.4,0.1,0.8,0.3,1.2,0.3l0.1-0.1c-0.4-0.7-1.3-0.8-2.1-0.9c-0.4-0.7-0.4-1.5-0.4-2.3c0.1-0.4,0.2-0.9,0.4-1.3
		c0.1-0.3,0.4-0.5,0.6-0.8c0.4-0.3,0.8-0.6,1.3-0.7h0.1c0,0,0,0.1,0,0.1c-0.5,0.4-0.6,1-0.9,1.5c-0.3,0.5-0.5,1.2-0.2,1.8
		c0.1,0.3,0.1,0.7,0.3,0.8c0.3-0.4,0.3-0.8,0.4-1.2c-0.1-0.7-0.5-1.3-0.1-1.9c0.2-0.5,0.6-0.7,1.1-0.9c1.1-0.1,2.1,0.5,3,0.9
		c0.2,0.1,0.5,0.3,0.6,0.5c0,0.5-0.3,1.1-0.7,1.4c-0.5,0.3-1.3,0.4-1.8,0c-0.3-0.3-0.4-0.8-0.3-1.2c0.2-0.2,0.5-0.4,0.9-0.3
		c0.2,0.1,0.4,0.3,0.6,0.2C59,33.2,59,33,59,32.9c-0.2-0.1-0.3-0.4-0.6-0.5c-0.4-0.1-0.8,0-1.1,0.2c-0.4,0.4-0.6,0.9-0.5,1.4
		c0.1,0.6,0.6,1.1,1.3,1.3c0.9,0.2,1.9-0.1,2.5-0.8c0.2-0.3,0.3-0.5,0.4-0.9c1,0.6,1.7,1.6,2.1,2.7c0,0.3,0.1,0.7,0,1l0.7,0.1
		c-0.1-0.2,0-0.3,0.1-0.5c0.3-1.3,1.1-2.4,2.1-3.3c0.3-0.2,0.3,0.3,0.3,0.4c0.3,0.8,1,1.3,1.8,1.5c0.8,0.1,1.7-0.1,2.2-0.7
		c0.3-0.5,0.6-1.2,0.1-1.7c-0.3-0.3-0.7-0.5-1.1-0.5c-0.5,0-0.8,0.4-1.1,0.7c0,0.2,0,0.3,0.1,0.4c0.1,0,0.2,0,0.3-0.1
		c0-0.3,0.3-0.4,0.5-0.6c0.2-0.1,0.5,0,0.6,0.1c0.2,0.2,0.3,0.5,0.3,0.8c0,0.4-0.3,0.8-0.7,0.9c-0.6,0.3-1.4,0.2-1.9-0.2
		c-0.2-0.3-0.4-0.6-0.6-0.9c0-0.3-0.2-0.6,0-0.9c0.9-0.5,1.8-0.9,2.9-1c0.4,0.1,0.8,0.4,1.1,0.7c0.9,0.9-0.2,2.3,0.4,3.4
		c0.2,0,0.2-0.4,0.3-0.6c0.3-0.7-0.1-1.5-0.3-2.2c-0.2-0.5-0.4-0.8-0.8-1.2c0.1,0,0.1,0,0.2,0c0.4,0.3,0.9,0.6,1.2,1.1
		c0.6,1,0.9,2.1,0.8,3.3c-0.2,0.6-0.8,0.9-1.3,1.1c-0.2,0.2-0.4,0.4-0.5,0.6c0.2,0.1,0.6,0,0.8-0.1c0.4-0.1,0.6-0.6,0.9-0.8
		c0,0,0,0.1,0,0.1c0,0.2-0.1,0.5,0.1,0.6c0.1-0.3,0.1-0.7,0.2-1c0.3,0.3,0.3,0.6,0.4,1c0.2,0.4,0.5,0.8,1,0.9c0.1-0.2,0-0.4-0.1-0.5
		c-0.1-0.5-0.5-0.8-0.8-1.1c-0.7-1-0.4-2.5-0.9-3.6c-0.2-0.6-0.6-1-1.1-1.5l0.1-0.1c1,0,1.8,0.3,2.7,0.5c1.1,0.5,2.7,0.4,3.2,1.9
		c0.2,0.8,0.6,1.6,1.2,2.2l0.1,0c0.1-0.2,0.1-0.5,0-0.8c-0.1-1-1-1.3-1.5-2.1l0.1-0.1c0.5,0.1,1,0.3,1.5,0.5c1.6,0.4,2.7,2,2.9,3.7
		c0,1.3-0.2,2.4-0.7,3.5c-0.1,0.2-0.3,0.3-0.2,0.5c0.2-0.2,0.3-0.4,0.4-0.6c0.7-1.1,1-2.7,0.7-4.1c0-0.3-0.3-0.5-0.2-0.7
		c0.1,0.1,0.2,0.1,0.3,0.2c0.1-0.1,0.3-0.1,0.4-0.2c0-0.1,0.1-0.3,0-0.4c-0.1-0.2-0.4-0.2-0.6-0.1c-0.1,0.1-0.2,0.3-0.2,0.4
		c-0.2-0.3-0.4-0.8-0.7-1.1l0-0.1c0.9,0.3,1.7,0.7,2.7,1c0.2,0.1,0.4,0.2,0.7,0.2c0.8,0.3,1.7,0.4,2.5,0.6c0.6-0.1,1.1,0.2,1.7,0.1
		v0l0,0c-0.2-0.3-0.7,0-1-0.2c-1.4-0.1-2.7-0.5-4-1c0-0.1,0.1,0,0.2,0c0.2-0.1,0.3-0.3,0.3-0.5c-0.1-0.1-0.3-0.2-0.5-0.2
		c-0.1,0.1-0.3,0.2-0.3,0.3c0,0.2,0.1,0.3,0.3,0.4c0,0-0.1,0-0.2,0c-0.6-0.3-1.2-0.5-1.8-0.8c-0.2,0-0.4-0.2-0.6-0.3
		c-0.5-0.2-0.9-0.4-1.4-0.6c-1.3-0.7-2.7-1-4.1-1.5L74.5,32c-0.5-0.1-1-0.3-1.5-0.4c-1.7-0.4-4-0.5-5.5,0.5
		c-0.2-0.1-0.4,0.3-0.5,0.1c0.4-1.1,1.7-1.5,2.8-1.5c8.1-0.1,15.7-0.1,23.6-0.3c0.9,0,1.8-0.3,2.3-1.2
		C96.1,28.7,96.1,27.9,95.9,27.4 M70.4,17.7l-0.1-4.9l0.1,0.1c0.4-1.1,1.2-2.1,1.8-3.2c0.4-0.6,0.9-1.3,0.8-2.1
		c-0.4-0.3-0.9-0.1-1.3-0.2c-0.1-0.1-0.6,0.1-0.5-0.2c0.5-0.3,1.1-0.6,1.3-1.2c0.3-0.3,0.7-0.3,1.1-0.2c0.6,0.3,1.1,0.8,1.1,1.6
		c-0.1,1.2-0.5,2.4-0.8,3.5c-0.1,0.5-0.5,0.9-0.6,1.4c-0.3,0.7-0.5,1.4-0.4,2.1c0.1,0.4,0.3,0.7,0.8,0.8c1.4-0.5,3-1.2,4.6-0.7
		c1.6,0.5,3.2,1.3,4.3,2.6c0.6,0.7,1.2,1.2,1.6,2.1c0.1,0.1,0.2,0.4,0.3,0.5c0,0.1,0.1,0.3,0.2,0.4l0.2,0.6c0,0.6,0.4,1.3-0.3,1.7
		c-0.2,0-0.4,0-0.5,0.1c-0.3-0.1-0.7-0.1-1-0.2c-0.8-0.1-1.8-0.3-2.2,0.4c0,0.1,0,0.3-0.1,0.4c0,0.4-0.1,0.7-0.1,1.1l-0.1,0.8
		c-0.1,0.6-0.1,1.3-0.2,1.9c0,0.1,0,0.3,0,0.4c0.1,0.4-0.1,0.8,0.1,1.1c0.1,0.3-0.2,0.5-0.2,0.8c-0.1,0.2-0.1,0.4-0.3,0.4
		c-1.3,0-2.6,0.2-3.8-0.1c0-0.4,0.5-0.3,0.7-0.5c1-0.3,2.3-0.1,2.7-1.3c0.1-1,0.3-2,0.2-2.9l-0.1-0.6l0-0.7l-0.1-0.2l-0.2-0.5
		c-0.1-0.6-0.6-1-1.1-1.3c-0.2,0-0.4,0-0.5,0.1c0.1,0.1,0.2,0.2,0.2,0.4c-0.1,0.2-0.2,0.4-0.4,0.5c-0.2,0.4-0.5,0.7-0.6,1.1l-0.6,1
		c-0.5,0.8-0.9,1.6-1.4,2.5c-0.1,0.5-0.5,0.8-0.6,1.3c-0.2,0.3-0.4,0.6-0.2,0.9c0,0.2-0.2,0.3-0.3,0.4c-1.3,0.1-2.7,0-3.9,0
		c-0.1,0-0.1,0-0.2-0.1c0.4-0.6,1.3-0.4,1.9-0.7c0.2-0.1,0.5,0.1,0.7-0.1c0.3,0,0.5-0.3,0.8-0.3c0.9-1,1.5-2.2,2.1-3.4l0.5-1.1
		c0-0.7,0.6-1.2,0.3-2c-0.2-0.3-0.3-0.9-0.7-0.8c-0.9,0.5-1.7-0.2-2.3-0.7C71.8,20,71,18.8,70.4,17.7L70.4,17.7L70.4,17.7
		C70.3,17.7,70.3,17.7,70.4,17.7L70.4,17.7z M54.2,26.4c-0.2,0-0.3-0.1-0.3-0.3c0,0,0,0,0,0c0-0.2,0.1-0.3,0.3-0.3c0,0,0,0,0,0
		c0.2,0,0.3,0.1,0.3,0.3C54.5,26.3,54.4,26.4,54.2,26.4C54.2,26.4,54.2,26.4,54.2,26.4L54.2,26.4z M73.5,24.3
		c-0.2,0-0.4-0.1-0.4-0.3c0-0.2,0.2-0.3,0.4-0.3c0.2,0,0.4,0.1,0.4,0.3C73.9,24.1,73.7,24.3,73.5,24.3L73.5,24.3z M72,25.2
		c-0.2,0-0.4-0.2-0.4-0.3c0-0.2,0.2-0.3,0.4-0.3c0.2,0,0.4,0.2,0.4,0.3C72.4,25.1,72.2,25.2,72,25.2z M53.7,27.3
		c-0.2,0-0.4-0.1-0.4-0.3c0-0.2,0.2-0.3,0.4-0.3c0.2,0,0.4,0.1,0.4,0.3C54.1,27.2,53.9,27.3,53.7,27.3L53.7,27.3z M54.9,27.4
		c-0.2,0-0.4-0.1-0.4-0.3c0-0.2,0.2-0.3,0.4-0.3c0.2,0,0.4,0.1,0.4,0.3C55.3,27.3,55.1,27.4,54.9,27.4z M87.8,11.5
		c0.6,0.7,0.7,1.7,0.3,2.5c-0.2,0-0.2-0.3-0.2-0.5c-0.4-0.8-0.7-1.7-0.4-2.5C87.7,11,87.6,11.4,87.8,11.5L87.8,11.5z M39.5,12.4
		c-0.1,0.5-0.1,1.2,0,1.6c-0.1,0.1-0.1-0.1-0.2-0.1c-0.8-0.6-0.4-1.7-0.6-2.5c0-0.1,0.1-0.1,0.2,0C39.3,11.7,39.4,12,39.5,12.4z
		 M89.5,12.5c0.1,0.2-0.1,0.4-0.3,0.5c-0.2,0-0.4-0.1-0.5-0.2c-0.1-0.2,0.1-0.4,0.2-0.5C89.2,12.3,89.4,12.3,89.5,12.5z M38.3,13.4
		c0,0.2-0.1,0.4-0.3,0.4c-0.1,0-0.3,0-0.4-0.1c-0.1-0.1-0.1-0.3-0.1-0.4c0.1-0.1,0.2-0.2,0.4-0.2C38.1,13.2,38.2,13.2,38.3,13.4z
		 M90.3,13.7c0,0.1,0,0.2,0,0.3c-0.1,0.2-0.3,0.3-0.5,0.2c-0.1-0.1-0.2-0.2-0.2-0.4c0-0.2,0.2-0.3,0.3-0.4
		C90.1,13.5,90.2,13.6,90.3,13.7z M89.2,13.7c0.2,0.1,0,0.3,0,0.4c-0.1,0.1-0.2,0.3-0.4,0.2c-0.1-0.1-0.2-0.1-0.3-0.2
		c0-0.2,0.1-0.4,0.3-0.5C88.9,13.6,89,13.7,89.2,13.7z M87.7,14c0,0.2,0,0.5-0.2,0.5c-0.2,0.1-0.4-0.1-0.5-0.3
		c0-0.2,0.1-0.4,0.3-0.5C87.4,13.8,87.6,13.9,87.7,14z M40.5,14.1c0.1,0.2-0.1,0.3-0.3,0.4c-0.1,0-0.3-0.1-0.4-0.2
		c-0.1-0.1,0-0.3,0.1-0.4C40.1,13.8,40.4,13.9,40.5,14.1L40.5,14.1z M39.3,14.2c0,0.2-0.1,0.3-0.2,0.4c-0.2,0.1-0.3-0.1-0.4-0.2
		c-0.1-0.2,0-0.4,0.2-0.5C39,13.9,39.2,14.1,39.3,14.2z M82.8,14.3c0.2,0.4,0.4,0.9,0.4,1.5c-0.1,0.4,0.1,0.9-0.2,1.2
		c-0.3-0.1-0.3-0.4-0.5-0.6c-0.4-0.7,0-1.5,0.1-2.2C82.7,14,82.7,14.2,82.8,14.3z M38.3,14.5c0.1,0.2-0.1,0.4-0.3,0.5
		c-0.2,0.1-0.4-0.1-0.5-0.3c0-0.2,0.1-0.4,0.3-0.5C38,14.2,38.2,14.3,38.3,14.5z M86,15.1c0.3,0.6,0.3,1.3,0.1,1.9L86,17.2
		c-0.3-0.5-0.7-1.1-0.8-1.6c0-0.4,0.1-0.8,0.2-1.2c0.1-0.1,0.2,0,0.3,0.1C85.7,14.7,85.8,15,86,15.1z M88.5,14.7
		c0,0.2-0.1,0.4-0.3,0.5c-0.2,0-0.4,0-0.5-0.2c-0.1-0.2,0.1-0.4,0.2-0.5C88.2,14.4,88.4,14.6,88.5,14.7z M39.3,15.4
		c0,0.2-0.1,0.3-0.3,0.4c-0.2,0.1-0.3-0.1-0.4-0.1c-0.1-0.2-0.1-0.3,0-0.5c0.1-0.1,0.2-0.1,0.3-0.2C39.1,15.1,39.2,15.2,39.3,15.4z
		 M40.2,15.3c0.1,0.2-0.1,0.3-0.2,0.4c-0.2,0.1-0.4-0.1-0.5-0.2c0-0.2,0.1-0.3,0.2-0.4C39.9,14.9,40.1,15.1,40.2,15.3z M89.1,15.2
		c0,0.3-0.4,0.5-0.5,0.8c-0.2,0.5-0.7,1-1.2,1.1c-0.1,0.1-0.3,0.2-0.5,0.3c0-0.4,0.3-0.8,0.5-1.1C87.9,15.7,88.5,15.4,89.1,15.2z
		 M38.9,16.1c0.3,0.3,0.5,0.7,0.8,1c0,0.1,0,0.2-0.1,0.2c-1-0.1-1.6-1.1-2.1-1.8c0.1-0.2,0.3,0,0.5-0.1
		C38.2,15.6,38.6,15.7,38.9,16.1L38.9,16.1z M89.4,16.3c0,0.9-0.5,1.8-1.2,2.2c-0.2,0.1-0.5,0.3-0.7,0.2c0.4-0.9,1.1-1.6,1.8-2.3
		H89.4z M85.5,16.9c0.1,0.3-0.1,0.5-0.3,0.6c-0.2,0-0.4-0.2-0.5-0.3c0-0.2,0.1-0.4,0.3-0.4c0.1-0.1,0.2-0.1,0.2-0.1
		C85.3,16.7,85.4,16.8,85.5,16.9z M37.8,17.1c0.4,0.3,0.7,0.6,1.1,1c-0.3,0.2-0.6,0-0.9,0c-0.7-0.2-1.2-0.8-1.9-1
		c0-0.2,0.3-0.1,0.4-0.2C37,16.8,37.3,17,37.8,17.1z M61.1,11.8c0,0,0.1,0,0.2,0L61.1,11.8z M43.6,17.5c0,0.2-0.1,0.4-0.3,0.5
		c-0.2-0.1-0.3-0.1-0.4-0.2c-0.1-0.2,0.1-0.4,0.3-0.5C43.3,17.3,43.5,17.3,43.6,17.5z M42.3,17.5c0.1,0.1,0.1,0.3,0.1,0.5
		c-0.1,0.1-0.4,0.2-0.5,0.1c-0.1-0.1-0.2-0.3-0.1-0.4C41.9,17.4,42.1,17.3,42.3,17.5z M85.7,18c0.1,0.2-0.1,0.4-0.3,0.5
		c-0.2-0.1-0.5-0.1-0.5-0.4c0-0.2,0.2-0.3,0.3-0.3C85.5,17.8,85.6,17.9,85.7,18z M86.8,18c0.1,0.1,0.2,0.3,0,0.4
		c-0.1,0.1-0.1,0.1-0.2,0.2c-0.2,0-0.4,0-0.5-0.2c0-0.2,0.1-0.3,0.3-0.4C86.6,17.8,86.7,17.9,86.8,18L86.8,18z M37.2,18.3
		c-0.1,0.2-0.3,0.3-0.5,0.3c-0.1-0.1-0.1-0.2-0.2-0.3c0-0.1,0.1-0.3,0.2-0.3C37,17.9,37.1,18,37.2,18.3z M44,18.6
		c0,0.2-0.2,0.3-0.3,0.4c-0.2,0-0.3-0.1-0.4-0.3c0-0.2,0.1-0.4,0.2-0.4C43.7,18.2,43.9,18.4,44,18.6z M42.8,18.5
		c0.1,0.1,0.1,0.2,0.1,0.3c-0.1,0.1-0.3,0.3-0.5,0.2c-0.1-0.1-0.3-0.2-0.2-0.4c0.1-0.1,0.2-0.2,0.3-0.2
		C42.6,18.3,42.7,18.4,42.8,18.5L42.8,18.5z M89.9,18.7c0,0.2-0.2,0.3-0.3,0.4c-0.2,0.1-0.3,0-0.4-0.1c-0.1,0-0.1-0.2-0.1-0.3
		c0.1-0.1,0.2-0.2,0.4-0.3C89.6,18.5,89.8,18.6,89.9,18.7z M91.2,18.9c-0.1,0.2-0.2,0.3-0.4,0.4c-0.1,0-0.3-0.1-0.3-0.2
		c0-0.1,0.1-0.3,0.2-0.3C90.8,18.6,91.1,18.7,91.2,18.9z M39.5,19.2c0,0.2,0,0.4-0.2,0.5c-0.1,0.1-0.3,0-0.4-0.1
		c-0.1-0.1-0.2-0.3-0.1-0.4c0-0.2,0.2-0.1,0.3-0.2C39.3,18.9,39.4,19,39.5,19.2z M40.5,19.3c0.1,0.2-0.1,0.2-0.2,0.3
		c-0.1,0.1-0.2,0.1-0.4,0c-0.1-0.1-0.3-0.3-0.2-0.5C40,18.9,40.4,19.1,40.5,19.3z M88.7,19.2c0,0.2-0.2,0.3-0.3,0.5
		c-0.2,0-0.4-0.1-0.4-0.2c0-0.2,0.1-0.3,0.2-0.4C88.4,19.1,88.6,19.1,88.7,19.2z M90.3,19.6c0,0.2,0,0.4-0.2,0.5
		c-0.2,0-0.4,0-0.5-0.1c-0.1-0.1-0.1-0.3-0.1-0.4c0.1-0.2,0.3-0.3,0.5-0.2C90.2,19.4,90.2,19.5,90.3,19.6z M38.7,20
		c0.1,0.2-0.1,0.2-0.2,0.3c-0.1,0.1-0.3,0-0.4,0c-0.1-0.1-0.1-0.3-0.1-0.4C38.3,19.5,38.7,19.8,38.7,20z M89.1,20.4
		c0.1,0,0,0.1,0,0.2c-0.5,0.2-1.2,0.3-1.6-0.1c-0.2-0.2-0.5-0.3-0.8-0.4c0.1-0.3,0.5-0.2,0.7-0.3C87.9,19.8,88.4,20.4,89.1,20.4
		L89.1,20.4z M39.7,20.2c0,0.2-0.1,0.2-0.1,0.3c-0.1,0.1-0.2,0.1-0.3,0c-0.2-0.1-0.3-0.3-0.1-0.5C39.3,19.9,39.6,20,39.7,20.2
		L39.7,20.2z M41.5,20.3c0.1,0.2,0,0.3-0.2,0.4c-0.1,0.1-0.3,0-0.4-0.1c-0.1-0.1-0.3-0.3-0.1-0.5C41,19.9,41.3,20.1,41.5,20.3
		L41.5,20.3z M43.2,21c0.1,0.2-0.1,0.3-0.2,0.4c-0.2,0.1-0.3-0.1-0.4-0.2c-0.1-0.2,0.1-0.3,0.2-0.4C43,20.8,43.2,20.9,43.2,21z
		 M55.7,21.2c0.2,0.8,0.2,1.6-0.2,2.3c0,0.2,0,0.4-0.2,0.4c-0.5-0.7-0.1-1.8,0.1-2.6C55.4,21.1,55.6,21,55.7,21.2z M73,21.6
		c0.3,0.6,0.3,1.3,0,1.9l-0.2,0.2c-0.2-0.5-0.4-0.9-0.5-1.4c0.1-0.4,0.2-0.7,0.2-1.1C72.9,21.1,72.9,21.5,73,21.6L73,21.6z
		 M44.8,21.9c-0.1,0.2-0.5,0.3-0.7,0.5c-0.5,0.4-1.2,0.4-1.8,0.3c0.5-0.7,1.3-1.2,2.3-1C44.7,21.8,44.8,21.8,44.8,21.9z M36.5,22.6
		c0.7,0.5,0.9,1.3,1.4,2c0.1,0.1,0.3,0.1,0.2,0.3c-0.2,0.1-0.3-0.1-0.5-0.1c-0.8-0.3-1.2-1.2-1.2-2.1C36.3,22.6,36.5,22.6,36.5,22.6
		z M72.2,23.2c0,0.2,0,0.4-0.2,0.5c-0.2,0.1-0.4,0-0.5-0.2c0,0,0,0,0,0c-0.1-0.1,0.1-0.2,0.1-0.3C71.8,22.9,72.1,23,72.2,23.2
		L72.2,23.2z M90.6,23.5c-0.6,0.9-1.3,1.9-2.5,2.3c-0.1,0-0.2,0-0.2-0.1c0.7-0.7,1.1-1.9,2.1-2.1C90.2,23.5,90.4,23.4,90.6,23.5
		L90.6,23.5z M35.5,24.5c-0.1,0.1,0,0.3-0.2,0.3c-0.2,0.1-0.3,0-0.4-0.2c-0.1-0.2,0.1-0.4,0.3-0.4C35.3,24.2,35.5,24.3,35.5,24.5z
		 M41.4,24.8c0.1,0.2-0.1,0.2-0.2,0.2c-0.8,0.3-1.7,0-2.3-0.6c0-0.1,0-0.2,0.1-0.2C39.7,24.4,40.7,24.3,41.4,24.8z M36.7,24.5
		c0,0.1,0.1,0.2,0,0.3C36.6,25,36.4,25,36.2,25c-0.1-0.1-0.2-0.1-0.3-0.3c0-0.2,0.2-0.3,0.3-0.4C36.4,24.4,36.6,24.4,36.7,24.5
		L36.7,24.5z M55.6,24.6c0,0.2-0.1,0.3-0.2,0.4c-0.2,0-0.3,0-0.4-0.2c-0.1-0.1,0-0.3,0.1-0.4C55.2,24.4,55.5,24.4,55.6,24.6z
		 M91.4,24.7c0.1,0.2-0.1,0.3-0.3,0.4c-0.1,0.1-0.3,0-0.4-0.1c0-0.1-0.1-0.2-0.1-0.3c0.1-0.2,0.3-0.3,0.5-0.2
		C91.2,24.6,91.3,24.6,91.4,24.7z M92.7,24.6c0.1,0.2,0,0.3-0.1,0.5c-0.1,0.1-0.2,0.2-0.4,0.1C92.1,25.1,92,25,92,24.8
		c0-0.2,0.2-0.3,0.3-0.3C92.5,24.4,92.5,24.6,92.7,24.6z M34.7,25.2c0,0.1-0.1,0.2-0.1,0.3c-0.1,0-0.2,0.1-0.3,0.1
		c-0.1-0.1-0.2-0.2-0.3-0.3c0-0.2,0.2-0.3,0.4-0.4C34.5,24.9,34.6,25,34.7,25.2z M77.2,25.2c0,0.1,0,0.2,0,0.3
		c-0.1,0.2-0.3,0.3-0.5,0.2c-0.1-0.1-0.3-0.2-0.2-0.4C76.7,25,77,24.9,77.2,25.2z M37.9,25.5c0,0.1-0.1,0.3-0.3,0.3
		c-0.2,0-0.2-0.1-0.3-0.2c0-0.2,0-0.4,0.2-0.5C37.7,25,37.9,25.2,37.9,25.5z M36,25.5c0.1,0.2-0.1,0.3-0.2,0.4
		c-0.2,0.1-0.4-0.1-0.5-0.3c0-0.2,0.2-0.4,0.4-0.5C35.8,25.2,35.9,25.4,36,25.5z M78.5,25.5c0,0.2,0,0.4-0.2,0.5
		c-0.2,0.1-0.4-0.1-0.5-0.3c0.1-0.2,0.1-0.4,0.4-0.4C78.3,25.3,78.4,25.4,78.5,25.5L78.5,25.5z M37,25.6c0.1,0.1-0.1,0.2-0.1,0.3
		c-0.1,0-0.2,0.1-0.3,0.1c-0.1-0.1-0.2-0.1-0.3-0.3c0-0.2,0.1-0.3,0.3-0.4C36.8,25.3,36.9,25.4,37,25.6L37,25.6z M90.3,25.7
		c-0.1,0.2-0.2,0.2-0.3,0.3c-0.2,0-0.3-0.1-0.4-0.2c-0.1-0.1-0.1-0.3,0-0.4C89.7,25.2,90.3,25.4,90.3,25.7z M91.8,25.8
		c-0.1,0.2-0.3,0.3-0.5,0.3c-0.2-0.1-0.4-0.2-0.2-0.5c0.1-0.1,0.1-0.2,0.2-0.2C91.6,25.4,91.7,25.6,91.8,25.8z M82.2,26
		c0.1,0.3-0.1,0.3-0.3,0.5c-0.1,0-0.3-0.1-0.4-0.2c0-0.2,0.1-0.4,0.3-0.5C82,25.7,82.1,25.8,82.2,26z M76.7,26.2
		c0.1,0,0.1,0.2,0,0.2c-0.1,0.1-0.3,0.3-0.5,0.2c-0.1-0.1-0.2-0.2-0.2-0.4C76.1,26,76.6,26,76.7,26.2z M77.8,26.4
		c0,0.2,0,0.2-0.2,0.3c-0.1,0.1-0.3,0-0.4-0.1c0-0.1-0.1-0.2,0-0.3c0.1-0.1,0.2-0.1,0.3-0.2C77.6,26.2,77.7,26.2,77.8,26.4z
		 M43.6,26.4c0.1,0.1,0,0.3,0,0.4c-0.1,0.1-0.3,0.2-0.5,0.1c-0.2-0.1-0.2-0.3-0.1-0.5c0.1,0,0.1-0.2,0.3-0.2
		C43.4,26.2,43.5,26.3,43.6,26.4L43.6,26.4z M84.4,26.5c0,0.2-0.2,0.3-0.3,0.3c-0.2,0.1-0.4-0.1-0.5-0.3c0-0.1,0.1-0.2,0.2-0.3
		C84.1,26.1,84.2,26.3,84.4,26.5z M83.3,26.5c0.1,0.2-0.1,0.3-0.2,0.4c-0.2,0.1-0.3,0-0.4-0.1c-0.1-0.1-0.1-0.2-0.1-0.3
		c0.1-0.1,0.2-0.2,0.3-0.3C83,26.2,83.2,26.3,83.3,26.5z M92.4,26.7c0,0.3-0.3,0.1-0.5,0.2c-0.8,0.5-1.9,0.1-2.7-0.2
		c0.1-0.3,0.4-0.2,0.5-0.3C90.6,25.9,91.5,26.6,92.4,26.7L92.4,26.7z M37.2,26.5l-0.1,0.1c-0.8,0.4-1.7,0.7-2.6,0.5l-0.1-0.1
		C35.2,26.4,36.1,26.2,37.2,26.5C37.1,26.4,37.2,26.5,37.2,26.5z M86.4,26.6c0,0.2-0.1,0.3-0.2,0.4c-0.2,0.1-0.5,0-0.5-0.2
		c-0.1-0.2,0.1-0.3,0.3-0.4C86.1,26.4,86.4,26.4,86.4,26.6z M40.8,26.7c-0.1,0.2,0,0.3-0.2,0.4c-0.2,0.1-0.4-0.1-0.5-0.3
		c-0.1-0.2,0.1-0.3,0.2-0.4C40.5,26.3,40.7,26.5,40.8,26.7L40.8,26.7z M39.4,26.8c0.1,0.1-0.1,0.2-0.1,0.3c-0.1,0.1-0.3,0.1-0.4,0.1
		c-0.1-0.1-0.3-0.3-0.2-0.5c0.1-0.1,0.2-0.2,0.3-0.2C39.1,26.5,39.3,26.6,39.4,26.8z M87.8,27.2c0,0.2-0.2,0.3-0.3,0.4
		c-0.2,0-0.3-0.1-0.4-0.2c-0.1-0.1,0-0.3,0.1-0.4c0-0.1,0.2-0.1,0.3-0.1C87.7,26.9,87.8,27.1,87.8,27.2L87.8,27.2z M37.9,27
		c0.1,0.2-0.1,0.2-0.1,0.3c-0.1,0.3-0.3,0.6-0.4,0.9c-0.4,0.5-0.9,0.5-1.5,0.6l-0.1-0.2C36.3,27.9,37,27.3,37.9,27
		C37.8,27,37.9,27,37.9,27z M86.8,27.5c0,0.2-0.2,0.3-0.3,0.4c-0.2,0-0.3-0.1-0.4-0.2c-0.1-0.2,0.1-0.3,0.3-0.4
		C86.6,27.2,86.8,27.3,86.8,27.5L86.8,27.5z M40.2,27.5C40.2,27.5,40.2,27.5,40.2,27.5c0,0.3-0.1,0.4-0.2,0.5
		c-0.2,0-0.3-0.1-0.4-0.2c-0.1-0.2,0-0.4,0.2-0.5C39.9,27.3,40.1,27.3,40.2,27.5z M90.5,28.1c0.2,0,0.2-0.3,0.5-0.3
		c0.2,0,0.4,0.1,0.5,0.2c0.1,0.2-0.1,0.4-0.3,0.5c-0.1,0.1-0.4-0.1-0.4,0.1c0.1,0.1,0.3,0.2,0.3,0.4c0,0.1-0.2,0.1-0.2,0
		c-0.6-0.2-1.2-0.6-1.5-1.3c-0.1-0.2-0.5-0.3-0.2-0.5C89.7,27.2,90.2,27.7,90.5,28.1z M92.5,27.4c0.1,0.1,0.1,0.3,0,0.4
		c-0.1,0.2-0.4,0.1-0.6,0.1c-0.1-0.1-0.2-0.2-0.2-0.4c0.1-0.1,0.2-0.2,0.3-0.3C92.2,27.3,92.3,27.3,92.5,27.4z M85.2,28.5
		c0.2,0.2,0.4,0.6,0.4,0.8c0,0.1-0.1,0-0.2,0c-0.7-0.4-1.6-0.8-1.8-1.6c-0.1-0.1-0.2-0.2-0.2-0.3c0.5-0.1,1,0.3,1.4,0.6
		C84.9,28.2,85.1,28.3,85.2,28.5z M39.1,27.8c0.1,0.2-0.1,0.3-0.2,0.4c-0.2,0-0.3,0-0.5-0.2c-0.1-0.2,0.1-0.4,0.3-0.5
		C38.9,27.5,39,27.7,39.1,27.8z M87.7,28.2c0,0.1-0.1,0.2-0.2,0.3c-0.2,0-0.3,0.1-0.5-0.1c0-0.1-0.1-0.3,0-0.4
		C87.2,27.8,87.5,28,87.7,28.2L87.7,28.2z M92.7,28.5c0.1,0.2-0.1,0.4-0.3,0.5c-0.2,0.1-0.4-0.1-0.5-0.2c-0.1-0.1,0-0.2,0-0.4
		c0.1-0.1,0.3-0.2,0.5-0.1C92.5,28.4,92.6,28.4,92.7,28.5z M78.7,31.3c0,0.2-0.4,0.2-0.6,0.4C77.5,32,76.8,32,76,32v-0.1
		C76.7,31.3,77.8,31,78.7,31.3z M49.3,32.2c0,0.2-0.1,0.3-0.3,0.3c-0.1,0-0.3-0.1-0.3-0.2c-0.1-0.2,0.1-0.3,0.3-0.4
		C49.1,31.9,49.3,32,49.3,32.2z M78.4,32.4c0,0.2-0.1,0.4-0.3,0.5c-0.2,0-0.3-0.1-0.4-0.1c-0.1-0.1,0-0.2-0.1-0.3
		C77.7,32,78.3,32,78.4,32.4L78.4,32.4z M82.4,32.5c-0.5,0.3-1.1,0.7-1.7,0.7l-1.1,0l-0.1-0.1c0.7-0.8,1.9-0.8,2.9-0.7V32.5z
		 M43.8,33c0,0.2-0.1,0.3-0.3,0.4c-0.2,0-0.3,0-0.4-0.2c-0.1-0.2,0-0.4,0.2-0.5C43.5,32.6,43.7,32.8,43.8,33z M44.8,33.2
		c0.1,0.1,0,0.2-0.1,0.3c-0.1,0.1-0.3,0.1-0.4,0c-0.1-0.1-0.2-0.2-0.1-0.3c0.1-0.1,0.2-0.1,0.2-0.2C44.6,33,44.7,33,44.8,33.2z
		 M37.1,35.2c-0.2,0.2-0.5-0.1-0.7-0.2c-0.7-0.4-0.7-1.2-1.4-1.7c0.1-0.2,0.3,0,0.4,0c0.1,0.1,0.3,0.2,0.4,0.2
		C36.5,34,36.6,34.6,37.1,35.2z M85.7,33.6c0,0.1,0.1,0.1,0.1,0.2c-0.7,0.6-1.7,0.8-2.7,0.8c-0.1,0-0.2,0.1-0.3,0.1
		c-0.1,0-0.1-0.1,0-0.1C83.5,33.7,84.6,33.3,85.7,33.6L85.7,33.6z M82.4,33.9c0.1,0.3-0.1,0.4-0.3,0.5c-0.2,0-0.3-0.2-0.4-0.3
		c-0.1-0.2,0.1-0.2,0.1-0.3C82,33.6,82.4,33.6,82.4,33.9z M44.1,33.9c0,0.1,0,0.3-0.1,0.4c-0.1,0.1-0.3,0.1-0.4,0.1
		c-0.1,0-0.2-0.2-0.3-0.3c0-0.2,0.1-0.3,0.3-0.4C43.8,33.8,44,33.7,44.1,33.9z M40.5,35.2v0.1c-0.5,0.1-0.9,0-1.3-0.3
		c-0.3-0.4-0.6-0.8-1.1-1c0-0.1-0.1-0.1,0-0.2C39.1,33.9,39.7,34.7,40.5,35.2z M88.8,33.9c-0.5,0.7-0.9,1.5-1.7,1.8
		c-0.1,0-0.3,0.2-0.4,0.1c0.3-0.8,1-1.6,1.8-1.9C88.5,33.9,88.7,33.9,88.8,33.9z M45.3,34.2c0,0.2-0.1,0.3-0.3,0.4
		c-0.2,0-0.2-0.1-0.3-0.2c-0.1-0.2,0.1-0.3,0.2-0.4C45,33.9,45.2,34,45.3,34.2z M91.3,34.3c-0.2,0.3-0.1,0.6-0.3,0.9
		c-0.4,0.5-0.8,1-1.4,1.1c-0.1-0.2,0.1-0.4,0.2-0.6c0.3-0.6,0.7-1.3,1.3-1.6L91.3,34.3L91.3,34.3z M34.2,34.5c0.1,0.1,0.1,0.3,0,0.4
		C34.1,35,33.9,35,33.8,35c-0.2-0.1-0.2-0.3-0.2-0.5C33.7,34.3,34.1,34.2,34.2,34.5z M33.1,34.7c0,0.1,0.1,0.2,0.1,0.3
		c-0.1,0.1-0.2,0.2-0.3,0.2c-0.2,0-0.4-0.1-0.5-0.3c0-0.2,0-0.3,0.2-0.4C32.8,34.5,33,34.6,33.1,34.7z M35.5,34.8
		c0,0.2,0.1,0.5-0.2,0.5c-0.3,0.1-0.4-0.1-0.6-0.2c0-0.2,0.1-0.3,0.2-0.4C35.1,34.6,35.3,34.7,35.5,34.8z M38.8,35.1
		c0,0.1,0,0.3-0.1,0.4c-0.1,0.1-0.3,0.1-0.4,0c0-0.1-0.3-0.2-0.1-0.4c0.1-0.1,0.2-0.2,0.3-0.2C38.5,35,38.7,34.9,38.8,35.1
		L38.8,35.1z M93.2,35.2c-0.1,0.1-0.1,0.3-0.3,0.3c-0.2,0-0.4,0-0.5-0.2c-0.1-0.2,0.1-0.3,0.3-0.4C92.9,34.9,93.2,35,93.2,35.2
		L93.2,35.2z M89.5,35.3c0,0.2-0.2,0.3-0.2,0.3c-0.3,0.1-0.5-0.1-0.6-0.3c0-0.2,0.2-0.3,0.3-0.4C89.3,35,89.4,35.1,89.5,35.3z
		 M92,35.3c0,0.1-0.1,0.3-0.2,0.3c-0.2,0.1-0.4,0-0.5-0.1c-0.2-0.2,0-0.3,0.1-0.4C91.6,35,92,35,92,35.3z M33.7,35.6
		c0,0.2,0,0.4-0.2,0.5c-0.2,0-0.4-0.1-0.4-0.3c0-0.2,0-0.4,0.2-0.4C33.4,35.4,33.6,35.5,33.7,35.6z M88.5,35.8
		c0.1,0.2-0.1,0.4-0.3,0.5c-0.2,0-0.3,0-0.4-0.1c-0.1-0.1-0.2-0.3,0-0.4C88,35.5,88.4,35.6,88.5,35.8z M44.6,36.1
		c0.1,0.2-0.2,0.3-0.2,0.4c-0.1,0-0.2,0.1-0.3,0c-0.1-0.1-0.2-0.2-0.2-0.4c0.1-0.1,0.1-0.2,0.3-0.2C44.4,35.7,44.4,35.9,44.6,36.1z
		 M92.9,36.2c0,0.1-0.1,0.2-0.1,0.3c-0.1,0.1-0.3,0.1-0.5,0.1c-0.2-0.1-0.2-0.3-0.2-0.4c0.1-0.1,0.1-0.2,0.3-0.2
		C92.6,35.9,92.8,36,92.9,36.2z M91.6,36.3c0.1,0.2-0.1,0.4-0.3,0.4c-0.1,0-0.2,0-0.2,0.1c0.5,0.3,0.8,0.7,1.3,1.1V38
		c-0.7,0-1.5-0.2-2-0.8c-0.1-0.1-0.4-0.1-0.5-0.2c0.3-0.3,0.7-0.2,1.1-0.2c0.3-0.3-0.3-0.5,0-0.7c0.1,0,0.2-0.1,0.4-0.1
		C91.5,36.1,91.5,36.2,91.6,36.3z M83.4,36.3c0,0.1-0.1,0.2-0.1,0.3c-0.1,0.1-0.3,0.1-0.4,0.1c-0.1-0.1-0.3-0.3-0.2-0.5
		C82.8,35.9,83.3,36,83.4,36.3z M38.3,37c-0.1,0.2-0.1,0.3-0.3,0.3c-0.2,0-0.3-0.1-0.4-0.2c0-0.1,0.1-0.2,0.1-0.3
		C37.9,36.6,38.3,36.7,38.3,37z M39.9,36.7c0,0.3-0.3,0.4-0.4,0.7c-0.3,0.7-0.8,1.3-1.6,1.3c-0.1-0.2,0.3-0.4,0.3-0.6
		c0.3-0.7,1-1.1,1.5-1.5C39.8,36.7,39.9,36.7,39.9,36.7z M82.9,37c0,0.2-0.2,0.4-0.3,0.5c-0.2,0.1-0.3-0.1-0.4-0.2
		c-0.2-0.2-0.1-0.3,0-0.5C82.4,36.6,82.7,36.8,82.9,37z M84.1,37.2c0,0.2-0.2,0.4-0.4,0.4c0-0.1-0.1,0-0.2,0
		c-0.1-0.1-0.3-0.2-0.3-0.4c0.1-0.1,0.1-0.3,0.3-0.3C83.8,36.9,84.1,36.9,84.1,37.2z M43,37.1c0,0.2-0.1,0.3-0.3,0.4
		c-0.2,0-0.3-0.1-0.4-0.2c0-0.2,0.1-0.3,0.2-0.4C42.8,36.8,42.9,37,43,37.1L43,37.1z M44.4,37.2c0,0.2-0.2,0.3-0.4,0.3
		c-0.1,0-0.3-0.1-0.4-0.2c0-0.2,0.1-0.3,0.3-0.4C44.2,36.9,44.4,37,44.4,37.2L44.4,37.2z M88.5,38.6c0.1,0.1,0.3,0.2,0.2,0.3
		c-0.3,0.1-0.6-0.2-0.9-0.3c-0.5-0.5-0.8-1-1.1-1.6c0.2-0.2,0.4,0,0.5,0.1C87.8,37.5,88.2,38.1,88.5,38.6z M89.2,37.2
		c0.1,0.1,0,0.3,0,0.4c-0.1,0.2-0.4,0.2-0.6,0.1c-0.1-0.1-0.3-0.3-0.2-0.5c0.1-0.2,0.2-0.2,0.4-0.3C89,37,89.1,37.2,89.2,37.2
		L89.2,37.2z M46.3,37.8c0,0.2,0.1,0.4-0.1,0.5c-0.2,0-0.4,0-0.5-0.2c-0.1-0.2,0.1-0.3,0.2-0.4C46,37.6,46.2,37.7,46.3,37.8
		L46.3,37.8z M84.1,39.1c0.3,0.4,0.5,0.9,0.5,1.4c-0.1,0.1,0.1,0.3,0,0.4h-0.1c-0.9-0.6-1.1-1.6-1.5-2.5c-0.1,0-0.1-0.1-0.1-0.2
		c0.2-0.2,0.3,0.2,0.5,0.2C83.5,38.5,84.1,39.1,84.1,39.1z M48.9,38.4C48.9,38.4,48.9,38.4,48.9,38.4c-0.8,0.6-1.9,0.9-2.8,0.4
		c0-0.1,0-0.2,0.1-0.2c0.6-0.2,1.1-0.5,1.8-0.4L48.9,38.4z M44.3,38.5c-0.7,0.4-1.3,1.3-2.2,1.5c-0.2,0.1-0.3,0.3-0.5,0.2
		c0.4-1.1,1.6-1.7,2.6-1.8C44.3,38.3,44.3,38.5,44.3,38.5z M82.9,39.4c0.1,0.2,0,0.4-0.2,0.4c-0.1,0.1-0.3,0.1-0.4,0
		c-0.2-0.1-0.2-0.3-0.2-0.4c0.1-0.1,0.2-0.2,0.3-0.2C82.6,39.2,82.8,39.2,82.9,39.4z M81.2,39.5c-0.1,0.3-0.5,0.4-0.7,0.5
		c-0.7,0.2-1.3-0.1-1.9-0.2c0-0.2,0.2-0.1,0.3-0.2c0.7-0.1,1.3-0.3,2.1-0.1C81,39.4,81.2,39.4,81.2,39.5z M44.3,40.1
		c-0.1,0.1-0.1,0.3-0.2,0.3c-0.1,0.1-0.3,0-0.4-0.1c0-0.1-0.2-0.2-0.1-0.4c0-0.1,0.2-0.2,0.3-0.2C44.1,39.7,44.3,39.9,44.3,40.1z
		 M45.5,40.3c-0.1,0.1-0.1,0.3-0.3,0.4c-0.2,0-0.3,0-0.4-0.1c-0.1-0.1-0.1-0.3-0.1-0.4c0-0.1,0.2-0.1,0.3-0.2
		C45.2,39.9,45.4,40.1,45.5,40.3z M82.5,40.5c0,0.2-0.1,0.3-0.1,0.4c-0.1,0.1-0.3,0.2-0.4,0.1c-0.1,0-0.2-0.2-0.2-0.3
		c-0.1-0.2,0.1-0.3,0.1-0.4C82,40.1,82.4,40.2,82.5,40.5z M83.4,40.4c0,0.1,0.1,0.2,0,0.3c-0.1,0.1-0.2,0.4-0.4,0.3
		c-0.1,0-0.2-0.1-0.2-0.2c-0.1-0.2,0-0.5,0.2-0.6C83.2,40.2,83.3,40.4,83.4,40.4L83.4,40.4z M44.8,41c0,0.2,0,0.4-0.2,0.5
		c-0.2,0-0.5,0-0.6-0.2c0-0.2,0-0.5,0.2-0.6C44.4,40.7,44.7,40.8,44.8,41z M45.9,40.9c0,0.6-0.2,1.3-0.7,1.6c-0.3,0.1-0.6,0.4-1,0.2
		v-0.1C44.6,42,45.4,41.5,45.9,40.9z M79.3,41.4c0.1,0.1-0.1,0.2-0.1,0.3c-0.1,0.1-0.3,0.1-0.5,0c-0.1-0.1-0.2-0.3-0.1-0.4
		c0-0.1,0.2-0.2,0.3-0.2C79.1,41.1,79.2,41.3,79.3,41.4z M47.9,42.3c0.3,0.5,0.1,1.1,0.3,1.6c-0.3,0-0.5-0.3-0.7-0.5
		c-0.4-0.6-0.4-1.4-0.6-2.1c0-0.1,0.1-0.1,0.1,0c0.3,0.2,0.5,0.6,0.8,0.9C47.8,42.2,47.9,42.2,47.9,42.3z M80.3,41.6
		c0,0.2-0.2,0.2-0.3,0.3c-0.1,0-0.3-0.1-0.4-0.2c-0.1-0.2,0.1-0.3,0.2-0.4C80.1,41.2,80.3,41.3,80.3,41.6z M82.7,43.4
		c0,0.1,0,0.2-0.1,0.1h-0.1c-0.6-0.5-1.2-1.1-1.1-1.9l0.1,0C82.1,42,82.7,42.5,82.7,43.4z M81.2,42.7c0,0.2-0.1,0.3-0.2,0.4
		c-0.2,0.1-0.6,0-0.6-0.3c0-0.2,0.2-0.3,0.3-0.4C81,42.4,81.2,42.5,81.2,42.7z M79.9,43.1c-0.3,0.7-1,1.1-1.6,1.7
		c-0.1-0.1-0.1-0.2,0-0.3c0.2-0.8,0.8-1.5,1.5-1.8C80.2,42.8,79.8,43,79.9,43.1z M81.4,43.7c0,0.2-0.2,0.3-0.3,0.4
		c-0.2,0-0.3-0.1-0.4-0.2c0-0.2,0.1-0.3,0.3-0.4C81.1,43.5,81.3,43.6,81.4,43.7L81.4,43.7z M71.1,24.5c-0.2,0-0.4-0.1-0.4-0.3
		c0-0.2,0.2-0.3,0.4-0.3c0.2,0,0.4,0.1,0.4,0.3C71.5,24.4,71.3,24.5,71.1,24.5L71.1,24.5z M54.3,24.7c-0.2,0-0.4-0.1-0.4-0.3
		c0-0.2,0.2-0.3,0.4-0.3c0.2,0,0.4,0.1,0.4,0.3C54.7,24.5,54.5,24.7,54.3,24.7z M34.5,36.2c-0.2,0-0.4-0.2-0.4-0.4c0,0,0,0,0,0
		c0-0.2,0.2-0.4,0.4-0.4c0.2,0,0.4,0.2,0.4,0.4C34.9,36,34.7,36.2,34.5,36.2z M59.4,11.1c0.7,0,1.1,0.8,1.8,0.7l-1.6,0.3l-0.2,0.2
		c-0.2,0-0.3-0.2-0.5-0.2c-0.7,0-1.6-0.1-2.3-0.1l0,1.7l-0.2,0.2c0-0.1,0-0.1-0.1-0.1c-0.4,0.3-0.6,0.7-0.7,1.2
		c-0.2,0.5,0.8,0.9,0.8,1.3c0,0,0.2,0.5,0.4,0.6c0.2,0.5,0.6,0.8,0.5,1.5c0,0.5,0.2,1.3-0.4,1.6c-0.1,0.1-0.2-0.1-0.2-0.2l-0.3-1.7
		c-0.3-0.7-1-0.7-1.6-1.1c-0.2,0.3-0.3,0.7-0.4,1.1c-0.1,0.3-0.2,0.6-0.3,0.9c-0.2,0.6-0.5,1.2-0.6,1.9c0,0.4,0,1-0.1,1.4
		c0,0.3-0.1,0.6-0.1,0.9c-0.1,0.3-1.2,3.5-1.2,3.9c0,0-0.2,1.2,0.1,1.5c0.7,0.4,1.5,0.3,2.2,0.2c1.5,0,3.1-0.4,4.4,0.3
		c0.1,0.1,0.2,0,0.3,0.2c0.3,0.1,0.4,0.3,0.5,0.6c0.1,0.1-0.1,0.1-0.1,0.2c-0.5,0-0.9-0.1-1.4-0.2c-2.6-0.2-5-0.1-7.5,0
		c-0.3,0-0.6,0-0.7-0.4c-0.3-0.7,0.2-1.3,0.3-2c0.2-1,0.5-2,0.3-3.1c-0.7,0.1-1.3,0.6-1.5,1.2c-0.1,0.4-0.2,0.8-0.4,1.2
		c-0.5,1-1.1,2.1-2.1,2.7c-0.5,0.3-1,0.3-1.6,0.3h-8c-1-0.2-2.3,0.3-3.2-0.3c0-0.1-0.1-0.2,0-0.3c0.6-0.4,1.5-0.2,2.2-0.3
		c0.7,0.2,1.5,0,2.2,0c1.5,0,2.9-0.1,4.4-0.3c0.8-0.2,1.7-0.3,2.3-0.8c-0.1-0.1-0.2-0.3-0.3-0.4c0-0.2,0.2-0.4,0.4-0.4
		c0.2,0.1,0.4,0.2,0.5,0.3c0.4-0.5,0.6-1.2,0.4-1.8c-0.7,0.8-1.5,1.6-2.3,2.4c-0.6,0.4-1.3,0.6-2.1,0.5c-0.2-0.2,0.2-0.3,0.3-0.4
		c0.7-0.7,1.8-0.3,2.4-1.2c0.1-0.2,0.3-0.2,0.4-0.4c-0.2-0.1-0.3-0.1-0.4-0.3c-0.1-0.1-0.1-0.2,0-0.3c0.1-0.2,0.3-0.2,0.5-0.2
		c0.2,0.1,0.2,0.3,0.3,0.5c0.4-0.4,0.7-0.8,0.9-1.3l0-0.1c-2.1-0.3-3.6,1.3-5.6,1.5c-0.5,0-1.1,0.2-1.6,0.1c0.7-0.2,1.4-0.2,2.1-0.4
		c1.4-0.5,2.7-1.4,4.3-1.5c0.3,0,0.7,0,0.9-0.1c0.2-0.9,0.1-1.8,0.1-2.7c-0.9-0.5-1.8-1.5-2.9-1c-0.6,0.2-1.2,0.4-1.3,1.1
		c-0.1,0.8,0.5,1.6-0.1,2.3c-0.2-0.1-0.2-0.3-0.2-0.5c-0.2-0.4-0.6-0.9-0.3-1.4c0.1-0.6,0.7-1,1.1-1.4c0.4-0.2,0.9-0.3,1.3-0.5V20
		c-1-0.6-2-1.2-3.3-1.4c-0.3,0-0.6-0.1-0.8,0.1H39c-0.5,0.3-1,0.9-1.6,0.7c-0.4,0-0.9-0.1-1.3-0.1c0-0.2,0.1-0.2,0.2-0.2
		c0.7-0.9,2-0.3,2.9-0.8c0.5-0.1,0.9,0.1,1.4,0.2c0.1,0.1,0.3,0.1,0.5,0.1c-0.1-0.4-0.3-0.6-0.4-1c-0.4-1.3,0.6-2.1,0.6-3.3
		c0.1,0,0.1-0.1,0.2-0.1c0.4,0.8,0.5,1.9-0.2,2.6c-0.2,0.3-0.5,0.8-0.3,1.3c0.6,1.2,1.9,1.1,2.9,1.7c0.5,0.4,1.2,0.8,1.9,1
		c0.2-0.2,0.1-0.5,0.2-0.8c0.2-1.8,1.6-3,2.7-4.3c2-1.6,3.5-3.8,4.4-6.1c0.1-0.9,0-1.8,0.4-2.7l-0.1-0.3c-0.6-0.6-1-1.2-1-2
		c-0.1-0.1-0.1-0.2-0.1-0.3c0.3-0.1,0.6,0.2,0.9,0.2c0.4,0.2,0.8,0.6,1.2,0.9c0.4-0.5,0.7-0.9,1-1.5c0.2-0.1,0.3,0.1,0.3,0.2
		c0.1,0.5,0.1,1.1-0.1,1.6c0.2,0.4,0.5,0.5,0.9,0.9v0.3c0.3,0.6,1.5,0.7,1.1,1.6c-0.4,1-2.7-0.3-2,1.5c0.1,0.2,0,0.5,0.2,0.7
		c0.1,0.5,0.2,0.9,0.3,1.4c0.1,0,0.2,0.1,0.2,0c0.1-0.1,0-0.2,0.2-0.3C57.5,11.9,58.2,10.7,59.4,11.1L59.4,11.1z M77.3,37.8
		c-0.2,0.4-0.5,0.6-0.9,0.7c0-0.5,0.5-0.8,0.3-1.4c-0.3-0.4-0.8-0.5-1.3-0.4c-0.2,0.1-0.1,0.3-0.2,0.5l-0.1,0.7
		c-0.4,0-0.4-0.4-0.5-0.6c0-0.4,0.2-0.8,0.6-1c0.3-0.2,0.8-0.1,1.2,0c0.3,0.1,0.6,0.2,0.7,0.4C77.5,36.9,77.4,37.4,77.3,37.8z
		 M75.7,38c0.2-0.2-0.1-1.5,0.6-0.7c0,0.2,0,0.4-0.1,0.5C76,37.9,75.9,38.1,75.7,38z M75.9,38.5c0,0.3-0.3,0.2-0.4,0.4H75
		c-0.1-0.2-0.1-0.4-0.1-0.6C75.3,38.4,75.6,38.4,75.9,38.5L75.9,38.5z M76.5,41c-0.2,0.2,0,0.5-0.2,0.7c0,0.4-0.3,0.5-0.6,0.7
		c-2.4,0.5-4.8-0.3-7.1-0.7c-3.3-0.7-7-0.9-10.3-0.2c-1.6,0.3-3.1,0.6-4.6,1.1c-0.9,0.1-1.9,0.3-2.8,0c-0.7-0.3-0.4-1.3-0.6-1.9
		c0-0.5-0.1-0.9-0.2-1.4C50,39.1,50,38.9,50,38.7c0.3,0,0.6,0.3,0.9,0.3c1.7,0.3,3.2-0.2,4.8-0.5c1.5-0.3,3.1-0.6,4.7-0.7
		c1.8,0,3.7-0.1,5.4,0.2c0.6,0,1,0.2,1.6,0.2c1.1,0.1,2.2,0.4,3.3,0.5c0.2,0.1,0.4,0.1,0.6,0.1c1.8,0.3,3.9,0.8,5.6,0
		C76.9,39.6,76.6,40.3,76.5,41z M66.2,42.5c0.1,0.3,0.3,0.5,0.2,0.9c-0.2,0.4-0.6,0.4-1,0.5c-0.2,0-0.3,0-0.5-0.1
		c0-0.1,0-0.1-0.1-0.2c0.1-0.3-0.5-0.5-0.1-0.7C65.1,42.4,65.9,41.7,66.2,42.5z M66.7,42.5c0.2,0.1,0.3,0.3,0.3,0.5
		c0,0.4-0.3,0.8-0.7,1c-0.2,0.1-0.6,0.2-0.8,0.1c0.5,0,1-0.2,1.2-0.7L66.7,42.5L66.7,42.5z M67.2,45.2
		C67.2,45.2,67.2,45.3,67.2,45.2c-0.6,0.1-1-0.2-1.5-0.5l0-0.1C66.3,44.6,66.7,45,67.2,45.2z M66.5,47.1c0,0.1-0.1,0.1-0.2,0
		c-0.6-0.8-0.9-1.6-1.3-2.4l0.1,0C65.6,45.5,66,46.3,66.5,47.1z M65.5,46.6l-0.1,0c-0.1-0.1-0.1-0.3,0-0.4
		C65.4,46.3,65.5,46.5,65.5,46.6z M64.9,45.4c0,0.2,0.2,0.3,0.1,0.5C65,45.8,64.8,45.6,64.9,45.4z M64.8,44.1L64.8,44.1L64.8,44.1
		L64.8,44.1L64.8,44.1L64.8,44.1z M63.6,47c-0.4,0-1,0.2-1.3-0.1c0-0.2-0.2-0.2-0.1-0.4c0.3-0.1,0.6,0.3,0.9,0c0.5,0,1-0.1,1.4,0
		c0.2,0.1,0.6-0.4,0.6,0.1C64.9,47.3,64.1,46.8,63.6,47L63.6,47z M62.7,44.6l0.1-0.2c-0.2,0.5-0.4,1-0.7,1.5
		C62,45.4,62.5,45,62.7,44.6z M63.3,44.2c0.3-0.3,0.5,0.2,0.6,0.4c0.3,0.4,1.1,0.8,0.8,1.5c-0.4,0.3-1,0-1.4,0.3
		c-0.2,0-0.6,0-0.7-0.2C62.8,45.5,63,44.8,63.3,44.2z M63.2,43.5L63.2,43.5l0-0.1C63.3,43.4,63.2,43.4,63.2,43.5L63.2,43.5z
		 M63.7,43.5c0.1-0.1,0.2-0.3,0.3-0.3c0,0,0,0,0,0.1C63.9,43.4,63.8,43.5,63.7,43.5z M64,43.8c0,0,0.1,0,0.2,0
		C64.1,43.8,64,43.8,64,43.8z M64.5,44.4c0,0,0,0.1,0,0.1L64,44.2C64.2,44.2,64.4,44.3,64.5,44.4z M64.4,43.3L64.4,43.3L64.4,43.3
		L64.4,43.3L64.4,43.3L64.4,43.3z M65.3,41.9c-0.2,0.1-0.4,0.4-0.7,0.4C64.8,42.1,65.1,41.9,65.3,41.9z M64.3,41.7
		c0-0.2,0.2,0,0.3-0.1l0.6,0C64.9,41.6,64.5,42.3,64.3,41.7L64.3,41.7z M62.8,42.3c0.1-0.3,0.1-0.5,0.3-0.8c0.2,0,0.4,0,0.5,0.1
		c0,0.4,0.6,1,0,1.3C63.5,43,63.2,43.1,63,43C62.8,42.7,62.7,42.5,62.8,42.3z M62.5,43.5c0-0.1,0-0.2,0.1-0.3
		c0.1-0.1,0.2,0.1,0.2,0.1C62.8,43.5,62.7,43.5,62.5,43.5z M62.5,42.6L62.5,42.6l0-0.2h0V42.6z M62.3,42c-0.3-0.1-0.4-0.4-0.7-0.4
		c0.2-0.1,0.5-0.1,0.8,0C62.5,41.7,62.3,41.8,62.3,42z M62,43.6c0.1-0.3,0.2-0.6,0.3-0.8C62.4,43,62.2,43.4,62,43.6z M61.6,43.6
		c-0.3,0-0.7-0.1-1-0.2c-0.2-0.2,0-0.4,0-0.6c0.3-0.4,1.1-0.7,1.5-0.3C62,42.9,61.9,43.3,61.6,43.6L61.6,43.6z M61.8,44.2L61.8,44.2
		L61.8,44.2L61.8,44.2L61.8,44.2C61.8,44.1,61.8,44.1,61.8,44.2C61.7,44.2,61.8,44.2,61.8,44.2z M61.3,45.3c-0.3,0.7-0.6,1.3-1,1.9
		c0,0.1-0.2,0.1-0.3,0.1c0-0.3,0.3-0.5,0.4-0.7c0.4-0.5,0.5-1.1,1-1.7C61.5,45.1,61.3,45.2,61.3,45.3z M59.4,45.1
		c0.5-0.2,1-0.6,1.5-0.4C60.5,45,59.9,45.1,59.4,45.1z M60.1,43.7c-0.1-0.7,0.2-1.3,0.6-1.8c0.3-0.1,0.6-0.1,0.9,0
		c-0.5,0.1-1.2,0.3-1.3,0.9c0,0.3-0.1,0.4,0.1,0.6c0.2,0.4,0.7,0.2,1,0.5c0,0.1-0.1,0.2-0.2,0.2C60.8,44.1,60.4,44,60.1,43.7z
		 M50.6,37.2c0.1-0.2,0-0.4,0.2-0.4c0.1,0,0.4,0,0.4,0.1c0,0.3,0,0.5-0.1,0.7C50.9,37.6,50.7,37.5,50.6,37.2z M50.7,37.9
		c0.3,0.2,0.7,0.1,1.1,0.2c0.1,0.2,0.1,0.5-0.1,0.7c-0.3-0.1-0.8,0-1-0.4C50.8,38.3,50.7,38.1,50.7,37.9z M49.7,37.3
		c0.1-0.4,0.1-0.7,0.5-1c0.5-0.3,1.2-0.2,1.6,0.1c0.1,0.1,0.2,0.2,0.3,0.4c0.1,0.3-0.1,0.7-0.3,0.9h-0.2c0-0.3,0-0.6,0.1-0.9
		c0-0.2-0.2-0.3-0.4-0.4c-0.3-0.1-0.6,0.1-0.9,0.2c-0.2,0.2-0.4,0.6-0.3,0.9c0.1,0.2,0,0.5,0.1,0.8l-0.1,0.1
		C50,38.1,49.7,37.8,49.7,37.3z M68.7,45.9c0.5,0.2,1.5,0.4,2.2,0.5c-0.1,0.3-0.6,0-0.5,0.4c-0.6-0.2-1.3-0.4-1.8-0.8
		C68.5,46,68.6,45.9,68.7,45.9z M56.1,46.3L55.8,46c0.1-0.2,0.4-0.1,0.7-0.2c0.5-0.2,1.1-0.4,1.7-0.2C57.6,46,56.8,46.1,56.1,46.3z
		 M77.9,37c-0.2-0.6-0.7-1.1-1.4-1.3c-0.6-0.1-1.3,0-1.8,0.4c-0.7,0.6-0.2,1.6-0.2,2.3c0,0.2,0,0.3-0.1,0.4c-2.9-0.3-5.6-1-8.6-1.3
		c-0.7-0.1-1.3-0.1-2-0.2l-0.8-0.1c-2.5,0.1-5,0.2-7.4,0.8c-0.5,0.2-1.1,0.2-1.6,0.4c-0.4-0.1-0.7,0.2-1,0.1l-0.7,0.2
		c-0.1,0-0.2,0-0.2,0c-0.3-0.8,0.6-1.3,0.3-2.1c-0.3-0.5-0.8-0.9-1.4-0.8c-0.7-0.1-1.3,0.3-1.6,0.8c-0.5,1,0.1,2.1,0.3,3.1
		c0,0.3,0.3,0.7,0,0.9c-0.6-0.4-1.5-0.7-2.3-0.5c-0.2,0.1-0.7,0-0.8,0.2c0.9,0.5,2,0.4,2.9,0.4c0.1,0,0.2-0.1,0.3,0
		c0.1,0.5-0.1,1.2,0.2,1.7c0.4,0.5,1,0.6,1.6,0.7c1.9-0.1,3.5-0.6,5.2-1c0.3,0,0.5-0.2,0.7-0.2c0.9-0.2,1.9-0.4,2.9-0.4
		c-0.4,0.5-0.7,1.2-0.8,1.8c-0.2,0.5,0.4,0.6,0.6,0.9c-0.6,0.2-1.1,0.6-1.7,0.8c-1.3,0-2.4,0.4-3.6,0.6c0,0.3,0.4,0.2,0.5,0.4
		c-0.1,0.2-0.2,0.2-0.4,0.3c0,0.1,0,0.1,0.1,0.2c0.1-0.1,0.4,0,0.5-0.2c0.4,0,0.8-0.1,1.1-0.1c0.3-0.1,0.7-0.2,1-0.4
		c0.4-0.1,0.7-0.4,1.1-0.5c0.6,0,1.2-0.2,1.7-0.2v0.1c-0.5,0.8-1,1.5-1.4,2.2c-0.1,0.1,0,0.3,0.1,0.3c0.3,0.1,0.6,0,0.8-0.1
		c0.4-0.7,0.8-1.4,1.2-2.2c0.1-0.7,0.6-1.1,1.2-1.5c0.1,0,0.2-0.2,0.3,0c-0.4,0.5-0.7,0.9-1,1.4c-0.2,0.6-0.2,1.3,0.3,1.8
		c0.2,0.2,0.6,0.1,0.9,0.2c0.8-0.4,1.8,0.2,2.4-0.5c0.4-0.1,0.4,0.4,0.6,0.6c0.3,0.1,0.7,0.4,1.1,0.2c0-0.2-0.3-0.4-0.4-0.6
		c-0.2-0.4-0.5-0.8-0.8-1.2c-0.1-0.3-0.3-0.5-0.3-0.7c0.4,0.1,0.7,0.4,1.1,0.4c0.3,0.1,0.8,0.1,1.1,0.3c0.3,0.3,0.7,0.5,1,0.8
		c0.5,0.2,1.1,0.3,1.6,0.5c0.2,0,0.5,0.2,0.6,0c-0.1-0.1-0.2-0.2-0.3-0.2c-0.1-0.3,0.4-0.1,0.5-0.3c0-0.1-0.1-0.1-0.2-0.2
		c-0.3-0.2-1-0.2-1.2-0.3c-0.2,0-0.5-0.1-0.7-0.2c-1.2,0-1.9-1.1-2.8-1.5c0.2-0.2,0.6-0.4,0.7-0.7c0.2-0.3,0.2-0.7,0.1-1.1
		c-0.2-0.6-1-0.5-1.4-0.9l0.1-0.1c0.8,0,1.5,0.1,2.2,0.3c1.9,0.3,3.7,1,5.8,1c1.1,0,2.5,0.1,3-1c0.1-0.6,0.2-1.3,0.3-1.9
		C77.3,39.1,78,38.1,77.9,37L77.9,37z M56.8,39.1c-0.2,0.1-0.3,0.1-0.2,0.4l0.3,1.1c0,0.2,0.1,0.5-0.1,0.7c-0.2,0.2-0.5,0.4-0.7,0.4
		c-0.2,0-0.6,0.1-0.9,0c-0.2-0.1-0.3-0.2-0.4-0.5l-0.3-1.1c-0.1-0.3-0.2-0.3-0.4-0.2l0-0.1l1.3-0.3l0,0.1c-0.3,0.1-0.4,0.1-0.3,0.4
		l0.3,1.1c0,0.2,0.2,0.7,0.7,0.5c0.7-0.2,0.6-0.7,0.5-0.9l-0.2-1c0-0.2-0.1-0.3-0.5-0.2l0-0.1L56.8,39.1
		C56.8,39,56.8,39.1,56.8,39.1z M58.8,39.3c-0.1-0.2-0.5-0.5-0.9-0.4c-0.2,0.1-0.4,0.2-0.4,0.4c0,0.2,0.1,0.2,0.5,0.3l0.6,0.1
		c0.2,0,0.5,0.2,0.6,0.5c0.1,0.3-0.1,0.8-0.8,0.9c-0.4,0.1-0.6,0-0.7,0c-0.1,0-0.1,0.1-0.1,0.1l-0.1,0l-0.2-0.8l0.1,0
		c0.2,0.3,0.5,0.7,1,0.5c0.5-0.1,0.4-0.4,0.4-0.5c0-0.2-0.3-0.3-0.5-0.3l-0.3,0c-0.7-0.1-0.8-0.4-0.8-0.6c0-0.2,0-0.7,0.7-0.9
		c0.3-0.1,0.5,0,0.7,0c0.1,0,0.1-0.1,0.1-0.1l0.1,0l0.2,0.7C58.9,39.3,58.8,39.3,58.8,39.3z M61.5,40.6L60,40.8l0-0.1
		c0.3,0,0.4-0.1,0.4-0.4l-0.2-1.8c-0.3,0-0.7,0.1-0.7,0.7l-0.1,0l0-0.7l2.5-0.2l0.1,0.7l-0.1,0c-0.1-0.5-0.6-0.5-0.8-0.5l0.2,1.8
		C61.1,40.5,61.2,40.5,61.5,40.6L61.5,40.6L61.5,40.6z M63.1,39.4c0.5,0,0.8-0.1,0.8-0.5c0-0.3-0.2-0.5-0.5-0.5
		c-0.2,0-0.2,0-0.3,0.1L63.1,39.4L63.1,39.4z M64.9,40.6l-0.8,0l-0.8-1.1h-0.1l0,0.7c0,0.3,0.1,0.3,0.4,0.3l0,0.1l-1.4,0v-0.1
		c0.3,0,0.4,0,0.4-0.3l0-1.5c0-0.3-0.1-0.3-0.4-0.3v-0.1l1.3,0c0.3,0,1.2,0,1.2,0.6c0,0.4-0.4,0.5-0.7,0.6l0.8,1
		C64.8,40.5,64.8,40.5,64.9,40.6C64.9,40.5,64.9,40.6,64.9,40.6z M66.4,40l-0.3-0.9l-0.5,0.8L66.4,40L66.4,40z M67.6,41l-1.3-0.2
		l0-0.1c0.2,0,0.3,0,0.3-0.1c0-0.1-0.1-0.4-0.1-0.5L65.6,40c-0.1,0.2-0.2,0.4-0.2,0.4c0,0.1,0.2,0.2,0.3,0.2l0,0.1l-0.8-0.1l0-0.1
		c0.2,0,0.3-0.1,0.5-0.4l1.1-1.8l0.1,0l0.7,1.9C67.4,40.7,67.4,40.9,67.6,41L67.6,41L67.6,41z M70,41.4L67.6,41l0-0.1
		c0.2,0,0.3,0,0.4-0.2l0.3-1.6c0-0.2-0.1-0.3-0.3-0.3l0-0.1l1.4,0.3l0,0.1c-0.3,0-0.4-0.1-0.5,0.2l-0.3,1.6c0,0.2,0.1,0.2,0.3,0.3
		c0.6,0.1,0.9-0.1,1.1-0.5l0.1,0C70.3,40.7,70,41.4,70,41.4z M71.5,41.8l-1.4-0.3l0-0.1c0.2,0,0.4,0,0.4-0.2l0.3-1.6
		c0-0.2-0.1-0.3-0.3-0.3l0-0.1l1.4,0.3l0,0.1c-0.2,0-0.4-0.1-0.4,0.2l-0.3,1.6C71.2,41.6,71.3,41.6,71.5,41.8
		C71.6,41.7,71.5,41.8,71.5,41.8z M73.2,41.2l-0.3-0.9l-0.5,0.8L73.2,41.2L73.2,41.2z M74.4,42.2L73.1,42l0-0.1c0.3,0,0.3,0,0.3-0.1
		c0-0.1-0.1-0.4-0.1-0.5l-0.9-0.1c-0.1,0.2-0.2,0.4-0.2,0.4c0,0.1,0.2,0.2,0.3,0.2l0,0.1l-0.8-0.1l0-0.1c0.2,0,0.3-0.1,0.4-0.4
		l1.1-1.8l0.1,0l0.7,1.9C74.2,41.9,74.2,42.1,74.4,42.2L74.4,42.2L74.4,42.2z M53.2,41.4l-0.5-0.8l-0.3,0.9L53.2,41.4L53.2,41.4z
		 M54.6,42l-1.3,0.2l0-0.1c0.3,0,0.3-0.1,0.3-0.2c0-0.1-0.2-0.3-0.2-0.4l-0.9,0.1c-0.1,0.3-0.1,0.4-0.1,0.5c0,0.1,0.2,0.1,0.4,0.1
		l0,0.1l-0.8,0.1l0-0.1c0.2-0.1,0.3-0.2,0.4-0.4l0.7-2l0.1,0l1.1,1.7C54.3,41.9,54.4,42,54.6,42L54.6,42z M69.3,12.3
		c0,0,0.2,0.4,0.2,0.4c0,0.1-0.1,0.2-0.2,0.2c-0.1,0-0.2-0.1-0.2-0.2C69.1,12.6,69.3,12.3,69.3,12.3z M57.1,12.3
		c0,0,0.2,0.4,0.2,0.4c0,0.1-0.1,0.2-0.2,0.2c-0.1,0-0.2-0.1-0.2-0.2C56.9,12.6,57.1,12.3,57.1,12.3z M60.2,12.3
		c0,0,0.2,0.4,0.2,0.4c0,0.1-0.1,0.2-0.2,0.2c-0.1,0-0.2-0.1-0.2-0.2C60,12.6,60.2,12.3,60.2,12.3z M63.2,12.3c0,0,0.2,0.4,0.2,0.4
		c0,0.1-0.1,0.2-0.2,0.2c-0.1,0-0.2-0.1-0.2-0.2C63,12.6,63.2,12.3,63.2,12.3z M66.3,12.3c0,0,0.2,0.4,0.2,0.4
		c0,0.1-0.1,0.2-0.2,0.2c-0.1,0-0.2-0.1-0.2-0.2C66.1,12.6,66.3,12.3,66.3,12.3z M57.1,16.4c0,0,0.2,0.3,0.2,0.4
		c0,0.1-0.1,0.2-0.2,0.2C57,17,57,16.9,57,16.8C57,16.8,57.1,16.4,57.1,16.4z M57.1,20.5c0,0,0.2,0.3,0.2,0.4c0,0.1-0.1,0.2-0.2,0.2
		C57,21.1,57,21,57,20.9C57,20.8,57.1,20.5,57.1,20.5z M57.6,23.7c0,0,0.2,0.3,0.2,0.4c0,0.1-0.1,0.2-0.2,0.2
		c-0.1,0-0.2-0.1-0.2-0.2C57.4,24.1,57.6,23.7,57.6,23.7z M60.2,25.4c0,0,0.2,0.3,0.2,0.4c0,0.1-0.1,0.2-0.2,0.2
		c-0.1,0-0.2-0.1-0.2-0.2C60,25.8,60.2,25.4,60.2,25.4z M69.5,16.4c0,0,0.2,0.3,0.2,0.4c0,0.1-0.1,0.2-0.2,0.2
		c-0.1,0-0.2-0.1-0.2-0.2C69.3,16.7,69.5,16.4,69.5,16.4z M69.5,20.5c0,0,0.2,0.3,0.2,0.4c0,0.1-0.1,0.2-0.2,0.2
		c-0.1,0-0.2-0.1-0.2-0.2C69.3,20.8,69.5,20.5,69.5,20.5z M69,23.7c0,0,0.2,0.4,0.2,0.4c0,0.1-0.1,0.2-0.2,0.2
		c-0.1,0-0.2-0.1-0.2-0.2C68.8,24,69,23.7,69,23.7L69,23.7z M66.4,25.4c0,0,0.2,0.3,0.2,0.4c0,0.1-0.1,0.2-0.2,0.2
		c-0.1,0-0.2-0.1-0.2-0.2C66.2,25.7,66.4,25.4,66.4,25.4L66.4,25.4z M63.3,27.2c0,0,0.2,0.4,0.2,0.4c0,0.1-0.1,0.2-0.2,0.2
		c-0.1,0-0.2-0.1-0.2-0.2C63.1,27.5,63.3,27.2,63.3,27.2z M65.2,19.4h3.5v-6.2h-3.5V19.4z M68.8,22.3c-0.1,0.7-0.3,1.2-0.7,1.5
		l-2.8,1.6v-5.8h3.5V22.3L68.8,22.3z M61.7,19.4h3.3v-6.2h-3.3L61.7,19.4L61.7,19.4z M64.9,25.7l-1.3,0.8h0
		c-0.1,0.1-0.2,0.1-0.3,0.1c-0.1,0-0.2,0-0.3-0.1l-1.3-0.8v-6h3.3V25.7L64.9,25.7z M60.4,19.4h1v-2.3h-1V19.4L60.4,19.4z M61.4,25.5
		l-2.8-1.6c-0.5-0.3-0.7-0.9-0.8-1.5v-2.6h3.5V25.5z M57.8,15.6h1.2v-2.4h-1.2V15.6z M59.4,14.1l0.1-0.1l-0.1-0.2l0.2,0l0.1-0.2
		l0.1,0.2l0.2,0L59.9,14l0.1,0.1l-0.2,0v0.2l-0.2-0.1l-0.2,0.1v-0.2C59.5,14.2,59.4,14.1,59.4,14.1z M60.2,16.6
		c0-0.1-0.1-0.1-0.1-0.1c-0.1,0-0.2,0.2-0.2,0.2c-0.1,0-0.1,0-0.1-0.1c0-0.1,0.1-0.1,0.2-0.2c-0.8,0-0.8,0.3-0.9,0.3
		c-0.2,0,0.2-0.4,0.3-0.5c-0.2,0-0.2-0.2-0.4-0.3c0.1-0.1,0.1-0.1,0.2,0c0-0.1,0.1-0.2,0.2-0.2c0.3,0,0.2,0.3,0.3,0.3
		c0.1,0,0-0.3,0.2-0.3c0.3,0,0.8,0.8,0.4,0.8C60.1,16.8,60.2,16.6,60.2,16.6z M59.4,18.4l0.2,0l0.1-0.2l0.1,0.2l0.2,0l-0.1,0.2
		l0.1,0.1l-0.2,0V19l-0.2-0.1L59.5,19v-0.2l-0.2,0l0.1-0.1L59.4,18.4L59.4,18.4z M58,16.1l0.2,0l0.1-0.2l0.1,0.2l0.2,0l-0.1,0.2
		l0.1,0.1l-0.2,0v0.2l-0.2-0.1l-0.2,0.1v-0.2l-0.2,0l0.1-0.1L58,16.1L58,16.1z M57.8,19.4h1.2v-2.3h-1.2V19.4z M60.6,16.4l0.1-0.1
		l-0.1-0.2l0.2,0L61,16l0.1,0.2l0.2,0l-0.1,0.2l0.1,0.1l-0.2,0v0.2L61,16.5l-0.2,0.1v-0.2L60.6,16.4L60.6,16.4z M60.4,15.6h1v-2.4
		h-1V15.6z M69.1,12.9L69.1,12.9l-11.6,0v0h0l0,9.3c0,0.9,0.4,1.7,0.9,1.9l4.5,2.6c0.2,0.2,0.5,0.2,0.8,0c0,0,0,0,0,0l4.5-2.7
		c0.5-0.2,0.9-1,0.9-1.9L69.1,12.9L69.1,12.9L69.1,12.9z M69.9,22.6c-0.1,0.8-0.3,1.5-0.9,1.9l-5.3,3.4h0C63.6,28,63.4,28,63.3,28
		c-0.2,0-0.3-0.1-0.4-0.1l-5.3-3.4c-0.6-0.4-0.8-1.1-0.9-1.9V12.2h13.3C69.9,12.2,69.9,22.6,69.9,22.6z M70.3,11.8L70.3,11.8
		l-14.1,0v0l0,10.7c0,1.1,0.5,2,1.1,2.3l5.4,3.4c0.2,0.3,0.6,0.3,0.9,0.1c0,0,0,0,0,0l5.5-3.5c0.6-0.3,1.1-1.2,1.1-2.3L70.3,11.8
		L70.3,11.8L70.3,11.8z M66.4,16.2c0,0.3,0.4,0.1,0.6,0.1c0.3,0,0.6,0.2,0.6-0.1c0-0.4-0.4-0.2-0.6-0.2C66.8,16,66.4,15.9,66.4,16.2
		z M67.6,16.8c0.3,0,0.3-0.4,0.3-0.7c0-0.7-0.5,0-0.8-0.7c-0.2,0.5-0.8,0-0.8,0.6c0,0.4,0,0.7,0.4,0.7L67.6,16.8L67.6,16.8z
		 M65.9,13.8l1.1,0.4l1.1-0.4l-0.4,1.7l0.9-0.2l-0.3,1l0.3,1l-0.8-0.2l0.3,1.8L67,18.5l-1.1,0.4l0.5-1.8l-0.9,0.3l0.2-1l-0.2-1
		l0.9,0.1C66.3,15.5,65.9,13.8,65.9,13.8z M63.2,16.3v-0.2L63,16l0.1-0.2l-0.1-0.2l0.2,0l0.1-0.2l0.1,0.2l0.2,0l-0.1,0.2l0.1,0.2
		l-0.2,0v0.2l-0.2-0.1C63.4,16.2,63.2,16.3,63.2,16.3z M62.3,17.4v-0.2l-0.2,0l0.1-0.2l-0.1-0.2l0.2,0l0.1-0.2l0.1,0.2l0.2,0
		L62.7,17l0.2,0.2l-0.2,0v0.2l-0.2-0.1C62.5,17.3,62.3,17.4,62.3,17.4z M63.8,17.3v-0.2l-0.2,0l0.2-0.2l-0.1-0.2l0.2,0l0.1-0.2
		l0.1,0.2l0.2,0l-0.1,0.2l0.2,0.2l-0.2,0v0.2L64,17.1L63.8,17.3L63.8,17.3z M64,18.1V18l-0.1,0l0.1-0.1l-0.1-0.1l0.1,0l0.1-0.1
		l0.1,0.1l0.1,0l-0.1,0.1l0.1,0.1l-0.1,0v0.1l-0.1-0.1C64.1,18.1,64,18.1,64,18.1z M62.6,19.1v-0.4l-0.3-0.1l0.3-0.3l-0.2-0.3l0.3,0
		l0.2-0.3l0.2,0.3l0.3,0l-0.2,0.3l0.3,0.3l-0.3,0.1v0.4l-0.3-0.2L62.6,19.1L62.6,19.1z M63.2,14.5c-0.2,0-0.6,0.2-0.6-0.1
		c0-0.4,0.3-0.3,0.5-0.3c0.2,0,0.6-0.1,0.6,0.3C63.7,14.7,63.4,14.5,63.2,14.5 M63.9,14.4c0,0.2-0.1,0.3-0.2,0.4v0.3
		c0,0.1,0,0.1-0.1,0.1h-0.9c-0.1,0-0.1-0.1-0.1-0.1v-0.2c-0.1-0.1-0.2-0.2-0.2-0.5c0-0.6,0.6-0.1,0.8-0.7
		C63.4,14.3,63.9,13.5,63.9,14.4z M64.8,21.2c0,0.4-0.7-0.1-0.6,0.5c0.1,0.4,0.2,0.8,0.4,1.1c0.2,0.3,0.1,0.7,0.1,1
		c-0.2,0.3-0.5,0.5-0.8,0.7c-0.6-0.1-1.4,0.3-1.7-0.4c-0.1-0.3-0.3-0.6-0.3-1c0.1,0,0.1,0,0.2-0.1c0-0.1-0.2-0.2-0.1-0.3
		c0.7-0.1-0.3-0.7,0.3-0.7c0.5,0.5,1.2,0.3,1.6,0.8c0.1,0.1,0.2,0.2,0.3,0.2c-0.1-0.5-0.3-1-0.4-1.5c-0.1-0.2,0-0.5,0.2-0.7
		C64.3,20.6,64.6,21,64.8,21.2z M68.3,21.2c-0.1-0.1-0.3-0.1-0.4,0c0.1,0.3,0.5,0.3,0.6,0.6c0,0.3-0.3,0.4-0.3,0.7
		c0.4,0.3-0.2,0.4-0.1,0.8c-0.1,0.2-0.3,0.2-0.5,0.2c-0.3-0.2,0.2-0.2,0.1-0.4c-0.3,0.1-0.4,0.5-0.7,0.7c-0.1,0-0.3,0.1-0.4-0.1
		c0-0.1,0-0.1,0-0.2c0.3-0.1,0.5-0.3,0.5-0.6c-0.1-0.2-0.3-0.3-0.4-0.2c-0.2,0.1-0.3,0.3-0.4,0.5c0,0.4-0.4,0.5-0.7,0.6l-0.1-0.1
		c0-0.1,0-0.2,0.1-0.3c0.4-0.2,0.4-0.7,0.6-1c-0.1-0.3-0.7-0.7-0.7-0.7s-0.1-0.2-0.1-0.3c0-0.1,0-0.3,0.1-0.3c0,0,0.1-0.1,0.2-0.1
		c0.2,0,0.2,0.3,0.2,0.5c0.1,0.1,0.2,0.3,0.3,0.2c0-0.1,0-0.2-0.1-0.2l0.2-0.1c0-0.1-0.1-0.1-0.1-0.1c-0.1-0.1-0.1-0.2-0.2-0.3
		c0.2-0.2,0.4-0.4,0.7-0.3c0.2,0,0.5-0.2,0.6,0.1c0.1,0.1,0,0.1-0.1,0.2c0.2,0.3,0.1,0.6,0,0.9c0.2,0.3,0.6,0,0.8,0.2
		c0.1,0,0.2-0.1,0.1-0.2c-0.1-0.1-0.1-0.2-0.2-0.1c-0.2-0.1-0.3-0.3-0.3-0.5c0.2-0.3,0.5-0.3,0.9-0.4c0.1,0,0.2,0.1,0.2,0.1
		l-0.1,0.3C68.4,21.3,68.3,21.2,68.3,21.2z M61.2,21.9c0,0.1,0,1.1-0.5,0.8c-0.5-0.3-0.1,0.3-0.1,0.2c0,0.2,0.1,0.1,0.2,0.2
		c0.1,0.1-0.4,0.1-0.4,0.3c0,0.2,0.1,0.1,0.1,0.4c0,0.1-0.4-0.1-0.4-0.1C60,23.7,60,24,59.9,24c-0.2,0-0.2-0.3-0.3-0.3
		c0,0-0.4,0.3-0.4,0.2c0-0.1,0-0.1,0-0.5c0-0.3-0.4,0-0.4-0.3c0-0.2,0.2-0.1,0.2-0.3c0-0.2-0.1,0-0.1-0.2c0,0.1,0,0.3-0.2,0.3
		c-0.3,0-0.8-0.3-0.8-1.1c0-0.2,0-0.3,0.1-0.3c-0.1,0-0.1-0.1-0.1-0.1c0-0.1,0.1-0.1,0.2,0c0-0.1-0.2-0.1-0.2-0.2
		c0-0.2,0.2,0,0.2-0.1c0-0.1-0.2-0.2-0.2-0.3c0-0.2,0.2,0.1,0.4,0.1c0-0.3-0.3-0.4-0.3-0.7c0.2,0,0.9,0.5,0.9,0.9c0,0.2,0,0.2,0,0.4
		c0,0.1,0.2,0.5,0.3,0.5c0.2,0,0.1-0.3,0.1-0.4c0-0.1-0.1-0.3-0.2-0.3c0.1-0.2,0.4-0.2,0.6-0.2c0.5,0,0.3,0.9,0.5,0.7
		c0.1-0.1,0.2-0.6,0.2-0.8c0-0.4,0.3-0.3,0.6-0.8c0.1,0.1,0,0.4-0.4,0.7c0.4-0.2,0.6-0.2,0,0.4c0.4-0.1,0.8-0.5,0.1,0.5
		c0.2-0.1,0.4-0.2,0.4-0.1c-0.1,0.1-0.3,0.3-0.4,0.5C60.7,22,61.2,21.8,61.2,21.9L61.2,21.9z M66.4,7.1h-0.2c-0.6,0-0.1,0.7,0.2,0.7
		C66.8,7.9,66.8,7.1,66.4,7.1L66.4,7.1z M64.6,7.9c0.6,0,0-0.7-0.3-0.7h-0.6c-0.6,0,0,0.7,0.3,0.7H64.6z M62.2,7.9
		c0.6,0,0-0.7-0.3-0.7h-0.6c-0.6,0,0,0.7,0.3,0.7H62.2z M66.4,7c0.3,0,0.5,0.2,0.5,0.5c0,0.3-0.2,0.5-0.5,0.5h-6
		c-0.3,0-0.5-0.2-0.5-0.5S60.1,7,60.4,7L66.4,7L66.4,7z M63.3,0L64,1.7l1.8-0.5l-0.9,1.6l1.5,1.1l-1.8,0.3l0.1,1.9l-1.4-1.3
		l-1.4,1.3L62,4.3l-1.9-0.3l1.5-1.1l-0.9-1.6l1.8,0.5C62.6,1.7,63.3,0,63.3,0z"/>
</g>
</svg>
