<svg xmlns="http://www.w3.org/2000/svg" xmlns:xlink="http://www.w3.org/1999/xlink" width="32" height="32" viewBox="0 0 32 32">
  <defs>
    <clipPath id="clip-path">
      <path id="Path_82" data-name="Path 82" d="M16-4A16,16,0,0,0,32-20,16,16,0,0,0,16-36,16,16,0,0,0,0-20,16,16,0,0,0,16-4Z" fill="none" clip-rule="evenodd"/>
    </clipPath>
    <clipPath id="clip-path-2">
      <path id="Path_81" data-name="Path 81" d="M0-4H32V-36H0Z" fill="none"/>
    </clipPath>
    <clipPath id="clip-path-3">
      <path id="Path_85" data-name="Path 85" d="M19.173-17.929H8v-3H19.171L15.02-25.078,16.929-27,24-19.429l-7.071,7.572L15.02-13.766Z" fill="none" clip-rule="evenodd"/>
    </clipPath>
    <clipPath id="clip-path-4">
      <path id="Path_84" data-name="Path 84" d="M8-11H24V-28H8Z" fill="none"/>
    </clipPath>
  </defs>
  <g id="Group_3348" data-name="Group 3348" transform="translate(-852 -2945)">
    <g id="Group_215" data-name="Group 215" transform="translate(852 2981)" clip-path="url(#clip-path)">
      <g id="Group_214" data-name="Group 214" clip-path="url(#clip-path-2)">
        <path id="Path_80" data-name="Path 80" d="M-5-41H37V1H-5Z" fill="#fff"/>
      </g>
    </g>
    <g id="Group_217" data-name="Group 217" transform="translate(852 2981)" clip-path="url(#clip-path-3)">
      <g id="Group_216" data-name="Group 216" clip-path="url(#clip-path-4)">
        <path id="Path_83" data-name="Path 83" d="M3-32H29V-6.857H3Z" fill="#244e90"/>
      </g>
    </g>
  </g>
</svg>
